<svg width="1443" height="896" viewBox="0 0 1443 896" fill="none" xmlns="http://www.w3.org/2000/svg">
<path d="M1442 0.620117H0V895.62H1442V0.620117Z" fill="#E3E5E9"/>
<path d="M1443 3H684C698.69 544.32 967.034 691.953 1443 673.499V3Z" fill="#6EEAB8"/>
<path d="M1442 3H751C764.374 491.961 1008.68 625.313 1442 608.644V3Z" fill="#2CDD9B"/>
<g clip-path="url(#clip0)">
<path d="M355.095 470.719C339.522 471.799 324.093 474.35 309.024 478.337C306.797 478.905 304.43 478.518 302.508 477.274L266.851 453.92V505.711C266.851 507.629 266.139 509.486 264.844 510.926C221.065 559.944 226.028 634.543 275.939 677.543C325.847 720.545 401.796 715.666 445.578 666.648C489.361 617.63 484.394 543.031 434.486 500.028C412.525 481.109 384.305 470.689 355.095 470.719V470.719ZM355.095 691.334C297.497 691.334 250.806 645.475 250.806 588.906C250.806 532.335 297.497 486.476 355.095 486.476C412.689 486.476 459.38 532.335 459.38 588.906C459.312 645.448 412.662 691.27 355.095 691.334Z" fill="white" fill-opacity="0.5"/>
<path d="M379.16 588.907C379.16 601.961 368.386 612.543 355.095 612.543C341.803 612.543 331.026 601.961 331.026 588.907C331.026 575.852 341.803 565.267 355.095 565.267C368.386 565.267 379.16 575.852 379.16 588.907V588.907Z" fill="white" fill-opacity="0.5"/>
<path d="M355.095 502.235C306.359 502.235 266.851 541.039 266.851 588.907C266.851 636.771 306.359 675.574 355.095 675.574C403.827 675.574 443.335 636.771 443.335 588.907C443.276 541.062 403.803 502.293 355.095 502.235V502.235ZM355.095 628.299C332.941 628.299 314.984 610.662 314.984 588.907C314.984 567.148 332.941 549.511 355.095 549.511C377.245 549.511 395.205 567.148 395.205 588.907C395.178 610.652 377.234 628.275 355.095 628.299V628.299Z" fill="white" fill-opacity="0.5"/>
<path d="M631.684 328.893H571.689V344.653H642.17C639.269 339.04 635.751 333.758 631.684 328.893Z" fill="white" fill-opacity="0.5"/>
<path d="M571.689 297.781V313.137H614.245C601.676 304.439 587.001 299.144 571.689 297.781V297.781Z" fill="white" fill-opacity="0.5"/>
<path d="M563.666 265.861C497.209 265.861 443.335 318.776 443.335 384.048C443.335 449.321 497.209 502.235 563.666 502.235C579.235 501.152 594.664 498.602 609.737 494.615C610.411 494.443 611.103 494.356 611.799 494.356C613.381 494.359 614.93 494.82 616.252 495.678L651.909 519.035V467.244C651.909 465.323 652.622 463.469 653.913 462.029C697.843 413.152 693.112 338.556 643.352 295.409C621.353 276.335 593.009 265.828 563.666 265.861V265.861ZM641.16 452.352C641.023 452.494 640.91 452.645 640.766 452.776C602.399 494.601 536.778 497.956 494.195 460.273C491.523 457.904 488.974 455.404 486.566 452.776C486.422 452.645 486.309 452.494 486.172 452.352C447.648 410.423 451.022 345.756 493.708 307.915C536.398 270.074 602.238 273.388 640.766 315.317C640.91 315.452 641.023 315.603 641.16 315.744C650.138 325.555 657.102 336.975 661.672 349.38C661.672 349.457 661.727 349.538 661.761 349.625C674.823 384.97 666.893 424.511 641.16 452.352Z" fill="white" fill-opacity="0.5"/>
<path d="M571.689 360.412V376.168H651.498C650.998 370.836 649.991 365.56 648.49 360.412H571.689Z" fill="white" fill-opacity="0.5"/>
<path d="M478.841 407.684H648.49C649.991 402.537 650.998 397.261 651.498 391.928H475.816C476.323 397.261 477.334 402.537 478.841 407.684Z" fill="white" fill-opacity="0.5"/>
<path d="M563.666 470.719C581.777 470.723 599.446 465.218 614.245 454.96H513.128C527.913 465.208 545.568 470.713 563.666 470.719Z" fill="white" fill-opacity="0.5"/>
<path d="M555.643 297.781C513.296 301.627 479.749 334.572 475.833 376.169H555.643V297.781ZM507.513 360.412H491.468V344.653H507.513V360.412ZM539.601 360.412H523.555V344.653H539.601V360.412ZM539.601 328.893H523.555V313.137H539.601V328.893Z" fill="white" fill-opacity="0.5"/>
<path d="M495.647 439.2H631.684C635.751 434.338 639.269 429.053 642.17 423.444H485.161C488.066 429.053 491.581 434.338 495.647 439.2Z" fill="white" fill-opacity="0.5"/>
<path d="M312.576 390.35L299.237 381.606C296.164 386.128 293.242 390.855 290.556 395.653L304.625 403.24C307.105 398.846 309.784 394.502 312.576 390.35Z" fill="white" fill-opacity="0.5"/>
<path d="M409.411 320.296L404.831 305.176C399.439 306.754 394.112 308.534 389.001 310.506L394.859 325.182C399.566 323.378 404.454 321.733 409.411 320.296Z" fill="white" fill-opacity="0.5"/>
<path d="M354.732 346.944L345.202 334.26C340.748 337.5 336.377 340.972 332.181 344.589L342.787 356.408C346.637 353.091 350.659 349.908 354.732 346.944Z" fill="white" fill-opacity="0.5"/>
<path d="M607.435 580.939L620.887 589.529C623.936 584.909 626.8 580.135 629.382 575.344L615.224 567.945C612.857 572.36 610.233 576.707 607.435 580.939Z" fill="white" fill-opacity="0.5"/>
<path d="M511.525 652.191L516.242 667.247C521.565 665.672 526.868 663.782 532.003 661.732L525.964 647.14C521.26 649.008 516.399 650.71 511.525 652.191Z" fill="white" fill-opacity="0.5"/>
<path d="M565.855 624.867L575.539 637.424C579.992 634.123 584.363 630.593 588.429 626.936L577.663 615.261C573.901 618.609 569.931 621.839 565.855 624.867V624.867Z" fill="white" fill-opacity="0.5"/>
</g>
<defs>
<clipPath id="clip0">
<rect x="235" y="265" width="449" height="441" fill="white"/>
</clipPath>
</defs>
</svg>
