<svg width="1440" height="960" viewBox="0 0 1440 960" fill="none" xmlns="http://www.w3.org/2000/svg">
<g clip-path="url(#clip0)">
<path d="M1483.58 107.52C1312.51 76.9924 1222.27 144 1193.09 176.832C1163.9 209.664 1066.18 361.728 929.664 378.432C812.352 392.64 728.832 361.152 583.104 408.192C437.376 455.232 445.824 584.064 318.144 679.68C190.464 775.296 -14.9761 741.312 -14.9761 741.312L391.296 262.08L1231.1 -4.79964C1231.1 -4.79964 1480.7 -59.7116 1479.55 -50.4956C1478.59 -41.2796 1483.58 107.52 1483.58 107.52Z" fill="#6EEAB8"/>
<path d="M1495.49 54.1444C1393.73 -26.1116 1296.58 92.7364 1268.16 72.1924C1239.55 51.6484 1335.74 -55.4877 1335.74 -55.4877C1335.74 -55.4877 1414.85 -97.5357 1440 -70.4637C1464.96 -43.3917 1504.13 -3.83963 1505.09 11.1364C1506.05 26.1124 1495.49 54.1444 1495.49 54.1444Z" fill="#6EEAB8"/>
<path d="M73.5359 570.624C223.104 617.28 335.808 551.808 367.296 427.968C349.248 434.496 73.5359 570.624 73.5359 570.624Z" fill="#6EEAB8"/>
<path d="M711.744 338.112C861.312 384.768 974.016 319.296 1005.5 195.456C987.456 202.176 711.744 338.112 711.744 338.112Z" fill="#6EEAB8"/>
<path d="M-9.0249 777.984L-9.02483 -19.0077L1427.33 -19.0076C1283.33 14.4004 1275.84 130.176 1188.48 189.504C1110.14 242.688 1008.38 193.92 886.847 279.936C872.831 289.92 858.431 301.632 843.839 315.456C663.743 487.296 434.303 392.448 308.543 463.296C291.839 472.704 276.479 485.184 262.079 499.584C261.695 499.968 261.311 500.352 260.927 500.736C167.999 595.776 115.967 776.064 -9.0249 777.984Z" fill="#2CDD9B"/>
<path d="M-9.0249 777.984L-9.02487 350.976C68.9272 283.2 186.047 228.864 321.599 228.096C526.079 226.752 755.327 119.04 787.199 -19.0076L1427.33 -19.0076C1283.33 14.4004 1275.84 130.176 1188.48 189.504C1110.14 242.688 1008.38 193.92 886.847 279.936C872.831 289.92 858.431 301.632 843.839 315.456C663.743 487.296 434.303 392.448 308.543 463.296C291.839 472.704 276.479 485.184 262.079 499.584C261.695 499.968 261.311 500.352 260.927 500.736C167.999 595.776 115.967 776.064 -9.0249 777.984Z" fill="#2CDD9B"/>
<path d="M262.08 499.776C393.6 362.112 557.184 179.328 788.928 139.392C934.08 114.432 1009.92 36.0963 1046.4 -19.0077L1427.33 -19.0077C1283.33 14.4003 1275.84 130.176 1188.48 189.504C1110.14 242.688 1008.38 193.92 886.848 279.936C872.832 289.92 858.432 301.632 843.84 315.456C747.84 407.04 637.824 422.784 537.024 428.352C496.896 430.464 458.496 431.232 422.784 434.112C379.584 437.76 340.8 445.056 308.544 463.104C291.648 472.896 276.48 485.184 262.08 499.776Z" fill="#2CDD9B"/>
<path d="M886.848 279.936C968.64 211.776 1009.73 39.3603 1182.53 -19.1997L1427.33 -19.1997C1283.33 14.2083 1275.84 129.984 1188.48 189.312C1148.54 216.384 1102.66 216.96 1051.2 222.528C1023.74 225.408 994.752 229.632 964.032 240L963.84 240C939.072 248.832 913.536 261.12 886.848 279.936Z" fill="#2CDD9B"/>
<path d="M964.224 240.192C1093.25 194.496 1060.8 37.8244 1270.46 -19.1996C1276.61 -20.9276 1282.75 -22.4636 1289.28 -23.8076C1320.77 -27.6476 1398.91 -23.8076 1398.91 -23.8076C1391.62 -22.6556 1384.51 -21.1196 1377.79 -19.1996C1261.25 14.5924 1198.08 169.344 1051.39 222.528C1023.74 225.6 994.752 229.824 964.224 240.192Z" fill="url(#paint0_linear)"/>
<path d="M422.592 434.304C611.328 413.184 580.992 271.872 768.192 206.784C929.472 150.72 1036.61 40.5121 1070.78 -19.1998C1076.35 -28.7998 1080 -37.0559 1081.73 -43.5839L1165.82 -38.5918C1156.22 -35.5198 1144.7 -28.7998 1131.46 -19.1998C1045.44 43.5842 910.272 229.632 798.144 310.464C714.816 370.56 643.2 410.496 536.832 428.352C496.896 430.848 458.304 431.424 422.592 434.304Z" fill="url(#paint1_linear)"/>
<path d="M960.96 -43.5837C959.424 29.3763 865.728 85.6323 817.536 98.6883C769.536 111.744 730.176 129.216 663.552 155.328C596.928 181.44 249.408 335.232 171.264 504.384C93.1199 673.728 137.856 619.008 57.984 757.632C52.7999 760.704 -37.056 835.968 -37.056 835.968L-37.056 669.696C66.048 653.76 52.0319 484.416 213.312 359.424C321.984 275.136 545.856 209.472 665.664 144.384C785.28 79.2963 888.96 40.1282 865.92 -33.4078L960.96 -43.5837Z" fill="#6EEAB8"/>
<path d="M667.2 -43.5839C626.688 277.44 66.2402 58.1761 -31.1038 273.984C0.000215837 -100.416 473.28 158.784 667.2 -43.5839Z" fill="url(#paint2_linear)"/>
<g opacity="0.3">
<path opacity="0.3" d="M751.679 -33.5997C753.023 -9.79166 738.431 19.7763 710.399 49.9203C641.087 124.608 491.711 201.216 314.495 203.712C170.111 205.824 26.1115 264 -35.5205 345.216L-38.5925 342.912C-6.5285 300.672 45.6954 264.768 112.511 238.848C174.719 214.656 246.335 200.832 314.495 199.872C490.559 197.184 638.783 121.344 707.711 47.2324C734.975 17.8564 749.375 -10.7516 748.031 -33.5997L751.679 -33.5997Z" fill="white"/>
</g>
<g opacity="0.3">
<path opacity="0.3" d="M841.344 -43.7757C854.208 35.5203 720.192 117.888 605.376 173.184C577.92 186.24 532.608 203.52 480 223.68C371.904 264.96 237.312 316.416 182.4 361.152C143.232 393.216 103.488 454.272 68.5438 508.224C30.3358 566.976 -2.49628 617.856 -26.4963 618.24L-26.4963 614.4C-4.60828 614.016 29.3757 561.6 65.2797 506.112C100.416 451.968 140.16 390.528 179.904 358.08C235.2 312.96 370.176 261.312 478.464 220.032C530.88 200.064 576.192 182.592 603.456 169.536C717.12 115.008 849.792 33.7923 837.312 -43.1997L841.344 -43.7757Z" fill="white"/>
</g>
<g opacity="0.3">
<path opacity="0.3" d="M995.135 -43.5837C998.015 5.76032 965.183 49.9203 897.215 87.9363C827.135 126.912 744.191 144.96 720.383 149.568C674.303 158.4 559.295 203.52 446.015 286.848C351.743 356.16 232.127 472.128 197.183 631.296L193.343 630.528C228.479 470.208 348.863 353.472 443.519 283.776C557.183 200.256 673.151 154.752 719.423 145.92C823.295 125.952 997.439 63.5524 991.103 -43.1996L995.135 -43.5837Z" fill="white"/>
</g>
<g opacity="0.3">
<path opacity="0.3" d="M1107.26 -58.3679L1110.91 -57.0239C1082.5 13.4401 1032.96 76.8002 971.327 121.344C930.623 150.72 884.543 172.608 839.807 193.536C794.303 215.04 747.263 237.312 706.175 267.456C680.063 286.656 655.871 309.504 632.639 331.584C619.967 343.488 607.103 355.776 593.855 367.488C564.095 393.6 518.399 429.888 463.871 442.368L463.103 438.72C516.863 426.432 562.175 390.528 591.551 364.8C604.799 353.28 617.663 340.992 630.335 329.088C653.759 307.008 677.951 284.16 704.255 264.768C745.535 234.432 792.767 211.968 838.463 190.464C883.007 169.536 928.895 147.648 969.407 118.464C1030.08 74.1121 1079.23 11.5201 1107.26 -58.3679Z" fill="white"/>
</g>
<g opacity="0.3">
<path opacity="0.3" d="M1333.82 -45.5037C1337.66 -45.5037 1341.5 -45.5036 1345.54 -45.3116L1345.34 -41.4716C1170.62 -46.6556 1097.86 63.9363 1039.3 152.832C1005.5 203.904 976.511 248.256 935.039 261.504L933.887 257.856C974.015 244.992 1002.82 201.216 1036.22 150.72C1094.02 62.9763 1165.44 -45.5037 1333.82 -45.5037Z" fill="white"/>
</g>
<path opacity="0.1" d="M818.88 0.000427246C794.496 133.824 625.152 236.544 371.136 285.696C117.12 334.656 300.48 711.936 141.12 785.472C95.2318 806.592 53.5677 808.896 17.4717 801.408C-88.3202 779.52 -153.408 672.768 -127.872 567.744C-102.144 461.184 -5.76021 318.72 306.432 241.344C846.912 107.52 540.864 -28.7996 398.016 -19.1996L818.88 0.000427246Z" fill="white"/>
<path opacity="0.1" d="M1037.76 -37.4397C999.359 112.128 639.935 196.416 508.607 267.072C377.279 337.728 405.311 453.12 565.055 406.272C724.799 359.616 975.743 -30.5277 1183.1 -43.5837C1390.46 -56.6397 959.807 73.5363 901.631 225.792C843.455 378.048 1063.49 352.896 1128.96 186.24C1194.43 19.5843 1192.13 0.384314 1261.25 -33.5997C1330.37 -67.5837 1240.7 4.99235 1288.32 52.0323C1335.94 99.0723 1522.18 68.7363 1448.06 -44.5437C1373.95 -157.632 1037.76 -37.4397 1037.76 -37.4397Z" fill="white"/>
</g>
<defs>
<linearGradient id="paint0_linear" x1="1398.91" y1="107.447" x2="964.16" y2="107.447" gradientUnits="userSpaceOnUse">
<stop stop-color="#2CDD9B"/>
<stop offset="1" stop-color="#6EEAB8"/>
</linearGradient>
<linearGradient id="paint1_linear" x1="1166.01" y1="195.447" x2="422.663" y2="195.447" gradientUnits="userSpaceOnUse">
<stop stop-color="#2CDD9B"/>
<stop offset="1" stop-color="#6EEAB8"/>
</linearGradient>
<linearGradient id="paint2_linear" x1="691.698" y1="-101.05" x2="-197.845" y2="373.774" gradientUnits="userSpaceOnUse">
<stop stop-color="#2CDD9B"/>
<stop offset="1" stop-color="#6EEAB8"/>
</linearGradient>
<clipPath id="clip0">
<rect x="1440" y="960" width="1440" height="960" transform="rotate(-180 1440 960)" fill="white"/>
</clipPath>
</defs>
</svg>
