<svg width="360" height="640" viewBox="0 0 360 640" fill="none" xmlns="http://www.w3.org/2000/svg">
<g clip-path="url(#clip0)">
<rect width="360" height="640" fill="white"/>
<ellipse opacity="0.6" cx="188" cy="398.5" rx="50" ry="6.5" fill="#C4C4C4" fill-opacity="0.4"/>
<rect width="360" height="650" fill="#E3E5E9"/>
<path d="M360 212.283C154.703 212.283 139 74.5518 139 0H360V212.283Z" fill="#2CDD9B" fill-opacity="0.4"/>
<path d="M360 182.524C182.571 182.524 169 64.1006 169 0H360V182.524Z" fill="#2CDD9B"/>
<g clip-path="url(#clip1)">
<path d="M122.065 407.222C113.499 407.826 105.011 409.255 96.7213 411.488C95.4964 411.806 94.1943 411.59 93.1371 410.892L73.5217 397.812V426.82C73.5217 427.894 73.1297 428.934 72.4174 429.741C48.334 457.196 51.0646 498.978 78.5212 523.061C105.976 547.147 147.756 544.414 171.842 516.959C195.927 489.505 193.194 447.722 165.74 423.637C153.658 413.041 138.134 407.205 122.065 407.222V407.222ZM122.065 530.786C90.3801 530.786 64.6949 505.1 64.6949 473.417C64.6949 441.732 90.3801 416.046 122.065 416.046C153.749 416.046 179.434 441.732 179.434 473.417C179.396 505.085 153.734 530.75 122.065 530.786Z" fill="white" fill-opacity="0.5"/>
<path d="M135.304 473.417C135.304 480.729 129.377 486.655 122.065 486.655C114.754 486.655 108.825 480.729 108.825 473.417C108.825 466.105 114.754 460.177 122.065 460.177C129.377 460.177 135.304 466.105 135.304 473.417V473.417Z" fill="white" fill-opacity="0.5"/>
<path d="M122.065 424.873C95.2552 424.873 73.5217 446.607 73.5217 473.417C73.5217 500.225 95.2552 521.959 122.065 521.959C148.874 521.959 170.607 500.225 170.607 473.417C170.575 446.62 148.861 424.905 122.065 424.873V424.873ZM122.065 495.48C109.879 495.48 100 485.602 100 473.417C100 461.23 109.879 451.352 122.065 451.352C134.25 451.352 144.131 461.23 144.131 473.417C144.116 485.596 134.245 495.467 122.065 495.48V495.48Z" fill="white" fill-opacity="0.5"/>
<path d="M274.221 327.786H241.216V336.613H279.989C278.393 333.469 276.457 330.511 274.221 327.786Z" fill="white" fill-opacity="0.5"/>
<path d="M241.216 310.36V318.961H264.627C257.713 314.09 249.64 311.123 241.216 310.36V310.36Z" fill="white" fill-opacity="0.5"/>
<path d="M236.803 292.482C200.244 292.482 170.607 322.119 170.607 358.678C170.607 395.236 200.244 424.873 236.803 424.873C245.368 424.267 253.855 422.838 262.147 420.605C262.518 420.509 262.899 420.46 263.281 420.46C264.152 420.462 265.004 420.72 265.731 421.2L285.346 434.282V405.275C285.346 404.199 285.738 403.161 286.449 402.354C310.615 374.978 308.013 333.198 280.639 309.032C268.537 298.349 252.945 292.464 236.803 292.482V292.482ZM279.433 396.934C279.358 397.013 279.295 397.098 279.216 397.172C258.11 420.597 222.012 422.476 198.586 401.37C197.116 400.044 195.714 398.643 194.389 397.172C194.31 397.098 194.248 397.013 194.172 396.934C172.98 373.45 174.836 337.231 198.318 316.036C221.802 294.842 258.022 296.698 279.216 320.182C279.295 320.257 279.358 320.342 279.433 320.421C284.372 325.916 288.203 332.312 290.717 339.26C290.717 339.304 290.747 339.349 290.766 339.398C297.952 359.194 293.589 381.34 279.433 396.934Z" fill="white" fill-opacity="0.5"/>
<path d="M241.216 345.44V354.264H285.12C284.845 351.278 284.291 348.323 283.466 345.44H241.216Z" fill="white" fill-opacity="0.5"/>
<path d="M190.14 371.916H283.466C284.291 369.033 284.845 366.078 285.12 363.091H188.476C188.755 366.078 189.311 369.033 190.14 371.916Z" fill="white" fill-opacity="0.5"/>
<path d="M236.803 407.222C246.766 407.223 256.486 404.14 264.627 398.395H209.001C217.135 404.135 226.847 407.218 236.803 407.222Z" fill="white" fill-opacity="0.5"/>
<path d="M232.389 310.36C209.094 312.514 190.639 330.967 188.485 354.264H232.389V310.36ZM205.913 345.439H197.086V336.613H205.913V345.439ZM223.564 345.439H214.738V336.613H223.564V345.439ZM223.564 327.786H214.738V318.961H223.564V327.786Z" fill="white" fill-opacity="0.5"/>
<path d="M199.385 389.568H274.221C276.457 386.845 278.393 383.884 279.989 380.743H193.617C195.215 383.884 197.148 386.845 199.385 389.568Z" fill="white" fill-opacity="0.5"/>
<path d="M98.6755 362.207L91.3374 357.31C89.6471 359.842 88.0396 362.49 86.5622 365.177L94.3017 369.427C95.666 366.966 97.1397 364.533 98.6755 362.207Z" fill="white" fill-opacity="0.5"/>
<path d="M151.945 322.971L149.426 314.502C146.46 315.386 143.529 316.383 140.718 317.487L143.94 325.707C146.53 324.697 149.219 323.776 151.945 322.971Z" fill="white" fill-opacity="0.5"/>
<path d="M121.866 337.896L116.623 330.792C114.173 332.606 111.769 334.551 109.46 336.577L115.295 343.197C117.413 341.339 119.625 339.556 121.866 337.896Z" fill="white" fill-opacity="0.5"/>
<path d="M260.88 468.955L268.281 473.766C269.958 471.178 271.533 468.504 272.954 465.821L265.166 461.677C263.864 464.149 262.42 466.584 260.88 468.955Z" fill="white" fill-opacity="0.5"/>
<path d="M208.119 508.862L210.714 517.295C213.643 516.413 216.56 515.354 219.385 514.206L216.062 506.033C213.475 507.079 210.801 508.033 208.119 508.862Z" fill="white" fill-opacity="0.5"/>
<path d="M238.007 493.558L243.334 500.591C245.784 498.742 248.189 496.766 250.426 494.717L244.503 488.178C242.434 490.053 240.249 491.862 238.007 493.558V493.558Z" fill="white" fill-opacity="0.5"/>
</g>
</g>
<defs>
<clipPath id="clip0">
<rect width="360" height="640" fill="white"/>
</clipPath>
<clipPath id="clip1">
<rect x="56" y="292" width="247" height="247" fill="white"/>
</clipPath>
</defs>
</svg>
