<svg width="50" height="50" viewBox="0 0 50 50" fill="none" xmlns="http://www.w3.org/2000/svg">
<path d="M25 -2.18557e-06C31.6776 -1.60179e-06 37.9559 2.60048 42.6777 7.32231C47.3995 12.0441 50 18.3224 50 25C50 31.6776 47.3995 37.9559 42.6777 42.6777C37.9559 47.3995 31.6776 50 25 50C18.3224 50 12.0441 47.3995 7.32231 42.6777C2.60048 37.9559 1.60179e-06 31.6776 2.18557e-06 25C2.76935e-06 18.3224 2.60048 12.0441 7.32232 7.32231C12.0441 2.60048 18.3224 -2.76935e-06 25 -2.18557e-06ZM25 46.0937C36.631 46.0937 46.0938 36.631 46.0938 25C46.0938 13.369 36.631 3.90625 25 3.90625C13.369 3.90625 3.90625 13.369 3.90625 25C3.90625 36.631 13.369 46.0937 25 46.0937ZM18.9175 14.2578L29.6597 25L18.9175 35.7422L21.6797 38.5044L35.1841 25L21.6797 11.4956L18.9175 14.2578Z" fill="url(#paint0_linear)"/>
<defs>
<linearGradient id="paint0_linear" x1="25" y1="50" x2="25" y2="-2.18557e-06" gradientUnits="userSpaceOnUse">
<stop stop-color="#2AF598"/>
<stop offset="1" stop-color="#009EFD"/>
</linearGradient>
</defs>
</svg>
