<svg width="51" height="50" viewBox="0 0 51 50" fill="none" xmlns="http://www.w3.org/2000/svg">
<path d="M25.5 50C18.6888 50 12.285 47.3995 7.46876 42.6777C2.65249 37.9559 0 31.6776 0 25C0 18.3224 2.65249 12.0441 7.46876 7.32231C12.285 2.60048 18.6888 0 25.5 0C32.3112 0 38.715 2.60048 43.5312 7.32231C48.3475 12.0441 51 18.3224 51 25C51 31.6776 48.3475 37.9559 43.5312 42.6777C38.715 47.3995 32.3112 50 25.5 50ZM25.5 3.90625C13.6364 3.90625 3.98438 13.369 3.98438 25C3.98438 36.631 13.6364 46.0938 25.5 46.0938C37.3636 46.0938 47.0156 36.631 47.0156 25C47.0156 13.369 37.3636 3.90625 25.5 3.90625ZM31.7042 35.7422L20.7472 25L31.7042 14.2578L28.8867 11.4956L15.1122 25L28.8867 38.5044L31.7042 35.7422Z" fill="url(#paint0_linear)"/>
<defs>
<linearGradient id="paint0_linear" x1="25.5" y1="0" x2="25.5" y2="50" gradientUnits="userSpaceOnUse">
<stop stop-color="#2AF598"/>
<stop offset="1" stop-color="#009EFD"/>
</linearGradient>
</defs>
</svg>
