<svg width="1440" height="960" viewBox="0 0 1440 960" fill="none" xmlns="http://www.w3.org/2000/svg">
<g clip-path="url(#clip0)">
<g opacity="0.2">
<path d="M-43.5845 852.48C127.488 883.008 217.728 816 246.912 783.168C276.096 750.336 373.824 598.272 510.336 581.568C627.648 567.36 711.168 598.848 856.896 551.808C1002.62 504.768 994.176 375.936 1121.86 280.32C1249.54 184.704 1454.98 218.688 1454.98 218.688L1048.7 697.92L208.896 964.8C208.896 964.8 -40.7045 1019.71 -39.5525 1010.5C-38.5925 1001.28 -43.5845 852.48 -43.5845 852.48Z" fill="#6EEAB8"/>
<path d="M-55.4882 905.856C46.2718 986.112 143.424 867.264 171.84 887.808C200.448 908.352 104.256 1015.49 104.256 1015.49C104.256 1015.49 25.1518 1057.54 -0.000198364 1030.46C-24.9602 1003.39 -64.1282 963.84 -65.0882 948.864C-66.0482 933.888 -55.4882 905.856 -55.4882 905.856Z" fill="#6EEAB8"/>
<path d="M1366.46 389.376C1216.9 342.72 1104.19 408.192 1072.7 532.032C1090.75 525.504 1366.46 389.376 1366.46 389.376Z" fill="#6EEAB8"/>
<path d="M728.256 621.888C578.688 575.232 465.984 640.704 434.496 764.544C452.544 757.824 728.256 621.888 728.256 621.888Z" fill="#6EEAB8"/>
<path d="M1449.02 182.016V979.008H12.6719C156.672 945.6 164.16 829.824 251.52 770.496C329.856 717.312 431.616 766.08 553.152 680.064C567.168 670.08 581.568 658.368 596.16 644.544C776.256 472.704 1005.7 567.552 1131.46 496.704C1148.16 487.296 1163.52 474.816 1177.92 460.416C1178.3 460.032 1178.69 459.648 1179.07 459.264C1272 364.224 1324.03 183.936 1449.02 182.016Z" fill="#2CDD9B"/>
<path d="M1449.02 182.016V609.024C1371.07 676.8 1253.95 731.136 1118.4 731.904C913.92 733.248 684.672 840.96 652.8 979.008H12.6719C156.672 945.6 164.16 829.824 251.52 770.496C329.856 717.312 431.616 766.08 553.152 680.064C567.168 670.08 581.568 658.368 596.16 644.544C776.256 472.704 1005.7 567.552 1131.46 496.704C1148.16 487.296 1163.52 474.816 1177.92 460.416C1178.3 460.032 1178.69 459.648 1179.07 459.264C1272 364.224 1324.03 183.936 1449.02 182.016Z" fill="#2CDD9B"/>
<path d="M1177.92 460.224C1046.4 597.888 882.816 780.672 651.072 820.608C505.92 845.568 430.08 923.904 393.6 979.008H12.6719C156.672 945.6 164.16 829.824 251.52 770.496C329.856 717.312 431.616 766.08 553.152 680.064C567.168 670.08 581.568 658.368 596.16 644.544C692.16 552.96 802.176 537.216 902.976 531.648C943.104 529.536 981.504 528.768 1017.22 525.888C1060.42 522.24 1099.2 514.944 1131.46 496.896C1148.35 487.104 1163.52 474.816 1177.92 460.224Z" fill="#2CDD9B"/>
<path d="M553.152 680.063C471.36 748.223 430.272 920.639 257.472 979.199H12.6719C156.672 945.791 164.16 830.015 251.52 770.687C291.456 743.615 337.344 743.039 388.8 737.471C416.256 734.591 445.248 730.367 475.968 719.999H476.16C500.928 711.167 526.464 698.879 553.152 680.063Z" fill="#2CDD9B"/>
<path d="M475.776 719.808C346.752 765.504 379.2 922.176 169.536 979.2C163.392 980.928 157.248 982.464 150.72 983.808C119.232 987.648 41.0879 983.808 41.0879 983.808C48.3839 982.656 55.4879 981.12 62.2079 979.2C178.752 945.408 241.92 790.656 388.608 737.472C416.256 734.4 445.248 730.176 475.776 719.808Z" fill="url(#paint0_linear)"/>
<path d="M1017.41 525.696C828.672 546.816 859.008 688.128 671.808 753.216C510.528 809.28 403.392 919.488 369.216 979.2C363.648 988.8 360 997.056 358.272 1003.58L274.176 998.592C283.776 995.52 295.296 988.8 308.544 979.2C394.56 916.416 529.728 730.368 641.856 649.536C725.184 589.44 796.8 549.504 903.168 531.648C943.104 529.152 981.696 528.576 1017.41 525.696Z" fill="url(#paint1_linear)"/>
<path d="M479.04 1003.58C480.576 930.624 574.272 874.368 622.464 861.312C670.464 848.256 709.824 830.784 776.448 804.672C843.072 778.56 1190.59 624.768 1268.74 455.616C1346.88 286.272 1302.14 340.992 1382.02 202.368C1387.2 199.296 1477.06 124.032 1477.06 124.032V290.304C1373.95 306.24 1387.97 475.584 1226.69 600.576C1118.02 684.864 894.144 750.528 774.336 815.616C654.72 880.704 551.04 919.872 574.08 993.408L479.04 1003.58Z" fill="#6EEAB8"/>
<path d="M772.8 1003.58C813.312 682.56 1373.76 901.824 1471.1 686.016C1440 1060.42 966.72 801.216 772.8 1003.58Z" fill="url(#paint2_linear)"/>
<g opacity="0.3">
<path opacity="0.3" d="M688.32 993.6C686.976 969.792 701.568 940.224 729.6 910.08C798.912 835.392 948.288 758.784 1125.5 756.288C1269.89 754.176 1413.89 696 1475.52 614.784L1478.59 617.088C1446.53 659.328 1394.3 695.232 1327.49 721.152C1265.28 745.344 1193.66 759.168 1125.5 760.128C949.44 762.816 801.216 838.656 732.288 912.768C705.024 942.144 690.624 970.752 691.968 993.6H688.32Z" fill="white"/>
</g>
<g opacity="0.3">
<path opacity="0.3" d="M598.655 1003.78C585.791 924.48 719.807 842.112 834.623 786.816C862.079 773.76 907.391 756.48 959.999 736.32C1068.1 695.04 1202.69 643.584 1257.6 598.848C1296.77 566.784 1336.51 505.728 1371.46 451.776C1409.66 393.024 1442.5 342.144 1466.5 341.76V345.6C1444.61 345.984 1410.62 398.4 1374.72 453.888C1339.58 508.032 1299.84 569.472 1260.1 601.92C1204.8 647.04 1069.82 698.688 961.535 739.968C909.119 759.936 863.807 777.408 836.543 790.464C722.879 844.992 590.207 926.208 602.687 1003.2L598.655 1003.78Z" fill="white"/>
</g>
<g opacity="0.3">
<path opacity="0.3" d="M444.864 1003.58C441.984 954.24 474.816 910.08 542.784 872.064C612.864 833.088 695.808 815.04 719.616 810.432C765.696 801.6 880.704 756.48 993.984 673.152C1088.26 603.84 1207.87 487.872 1242.82 328.704L1246.66 329.472C1211.52 489.792 1091.14 606.528 996.48 676.224C882.816 759.744 766.848 805.248 720.576 814.08C616.704 834.048 442.56 896.448 448.896 1003.2L444.864 1003.58Z" fill="white"/>
</g>
<g opacity="0.3">
<path opacity="0.3" d="M332.736 1018.37L329.088 1017.02C357.504 946.56 407.04 883.2 468.672 838.656C509.376 809.28 555.456 787.392 600.192 766.464C645.696 744.96 692.736 722.688 733.824 692.544C759.936 673.344 784.128 650.496 807.36 628.416C820.032 616.512 832.896 604.224 846.144 592.512C875.904 566.4 921.6 530.112 976.128 517.632L976.896 521.28C923.136 533.568 877.824 569.472 848.448 595.2C835.2 606.72 822.336 619.008 809.664 630.912C786.24 652.992 762.048 675.84 735.744 695.232C694.464 725.568 647.232 748.032 601.536 769.536C556.992 790.464 511.104 812.352 470.592 841.536C409.92 885.888 360.768 948.48 332.736 1018.37Z" fill="white"/>
</g>
<g opacity="0.3">
<path opacity="0.3" d="M106.176 1005.5C102.336 1005.5 98.4959 1005.5 94.4639 1005.31L94.6559 1001.47C269.376 1006.66 342.144 896.064 400.704 807.168C434.496 756.096 463.488 711.744 504.96 698.496L506.112 702.144C465.984 715.008 437.184 758.784 403.776 809.28C345.984 897.024 274.56 1005.5 106.176 1005.5Z" fill="white"/>
</g>
<path opacity="0.1" d="M621.12 960C645.504 826.176 814.848 723.456 1068.86 674.304C1322.88 625.344 1139.52 248.064 1298.88 174.528C1344.77 153.408 1386.43 151.104 1422.53 158.592C1528.32 180.48 1593.41 287.232 1567.87 392.256C1542.14 498.816 1445.76 641.28 1133.57 718.656C593.088 852.48 899.136 988.8 1041.98 979.2L621.12 960Z" fill="white"/>
<path opacity="0.1" d="M402.24 997.44C440.64 847.872 800.064 763.584 931.392 692.928C1062.72 622.272 1034.69 506.88 874.944 553.728C715.2 600.384 464.256 990.528 256.896 1003.58C49.5361 1016.64 480.192 886.464 538.368 734.208C596.544 581.952 376.512 607.104 311.04 773.76C245.568 940.416 247.872 959.616 178.752 993.6C109.632 1027.58 199.296 955.008 151.68 907.968C104.064 860.928 -82.1759 891.264 -8.06391 1004.54C66.0481 1117.63 402.24 997.44 402.24 997.44Z" fill="white"/>
</g>
</g>
<defs>
<linearGradient id="paint0_linear" x1="41.094" y1="852.553" x2="475.84" y2="852.553" gradientUnits="userSpaceOnUse">
<stop stop-color="#2CDD9B"/>
<stop offset="1" stop-color="#6EEAB8"/>
</linearGradient>
<linearGradient id="paint1_linear" x1="273.99" y1="764.553" x2="1017.34" y2="764.553" gradientUnits="userSpaceOnUse">
<stop stop-color="#2CDD9B"/>
<stop offset="1" stop-color="#6EEAB8"/>
</linearGradient>
<linearGradient id="paint2_linear" x1="748.302" y1="1061.05" x2="1637.84" y2="586.226" gradientUnits="userSpaceOnUse">
<stop stop-color="#2CDD9B"/>
<stop offset="1" stop-color="#6EEAB8"/>
</linearGradient>
<clipPath id="clip0">
<rect width="1440" height="960" fill="white"/>
</clipPath>
</defs>
</svg>
