<svg width="233" height="63" viewBox="0 0 233 63" fill="none" xmlns="http://www.w3.org/2000/svg">
<g clip-path="url(#clip0)">
<path d="M202.966 18.6792C201.544 18.7777 200.135 19.0102 198.759 19.3737C198.556 19.4256 198.34 19.3903 198.164 19.2768L194.908 17.1475V21.8697C194.908 22.0445 194.843 22.2139 194.725 22.3452C190.728 26.8146 191.181 33.6164 195.738 37.537C200.296 41.4579 207.231 41.0131 211.229 36.5437C215.227 32.0743 214.773 25.2724 210.216 21.3515C208.211 19.6265 205.634 18.6764 202.966 18.6792ZM202.966 38.7945C197.707 38.7945 193.443 34.6131 193.443 29.4553C193.443 24.2972 197.707 20.1158 202.966 20.1158C208.226 20.1158 212.489 24.2972 212.489 29.4553C212.483 34.6107 208.223 38.7887 202.966 38.7945Z" fill="black"/>
<path d="M205.164 29.4552C205.164 30.6455 204.18 31.6103 202.966 31.6103C201.753 31.6103 200.769 30.6455 200.769 29.4552C200.769 28.2649 201.753 27.2998 202.966 27.2998C204.18 27.2998 205.164 28.2649 205.164 29.4552Z" fill="black"/>
<path d="M202.966 21.5527C198.516 21.5527 194.908 25.0908 194.908 29.4553C194.908 33.8195 198.516 37.3575 202.966 37.3575C207.416 37.3575 211.024 33.8195 211.024 29.4553C211.018 25.0929 207.414 21.5579 202.966 21.5527ZM202.966 33.047C200.943 33.047 199.303 31.4389 199.303 29.4553C199.303 27.4714 200.943 25.8632 202.966 25.8632C204.989 25.8632 206.629 27.4714 206.629 29.4553C206.626 31.438 204.988 33.0449 202.966 33.047Z" fill="black"/>
<path d="M228.223 5.74756H222.744V7.18291H229.18C228.915 6.67177 228.594 6.19067 228.223 5.74756Z" fill="black"/>
<path d="M222.744 2.91089V4.30946H226.63C225.482 3.51733 224.142 3.035 222.744 2.91089Z" fill="black"/>
<path d="M222.012 7.34437e-06C215.943 7.34437e-06 211.024 4.82467 211.024 10.7761C211.024 16.7276 215.943 21.5522 222.012 21.5522C223.434 21.4535 224.842 21.2209 226.219 20.8574C226.28 20.8417 226.344 20.8338 226.407 20.8338C226.552 20.8341 226.693 20.8761 226.814 20.9543L230.07 23.084V18.3618C230.07 18.1866 230.135 18.0176 230.253 17.8863C234.264 13.4297 233.832 6.62821 229.288 2.69411C227.279 0.955001 224.691 -0.00306037 222.012 7.34437e-06ZM229.088 17.004C229.076 17.0169 229.065 17.0307 229.052 17.0426C225.549 20.8562 219.557 21.162 215.668 17.7261C215.424 17.5102 215.191 17.2822 214.972 17.0426C214.958 17.0307 214.948 17.0169 214.936 17.004C211.418 13.1809 211.726 7.28471 215.624 3.8344C219.522 0.384091 225.534 0.686265 229.052 4.50931C229.065 4.52158 229.076 4.53538 229.088 4.54827C229.908 5.44282 230.544 6.48402 230.961 7.6151C230.961 7.62216 230.966 7.62952 230.969 7.6375C232.162 10.8602 231.438 14.4654 229.088 17.004Z" fill="black"/>
<path d="M222.744 8.62134V10.0564H230.032C229.986 9.57068 229.894 9.09018 229.757 8.62134H222.744Z" fill="black"/>
<path d="M214.266 12.9299H229.757C229.894 12.4611 229.986 11.9806 230.032 11.4949H213.99C214.036 11.9806 214.128 12.4611 214.266 12.9299Z" fill="black"/>
<path d="M222.012 18.6775C223.666 18.6778 225.279 18.1765 226.63 17.2422H217.397C218.747 18.1756 220.359 18.6769 222.012 18.6775Z" fill="black"/>
<path d="M221.279 2.91089C217.413 3.26153 214.349 6.26548 213.992 10.0582H221.279V2.91089ZM216.885 8.62152H215.419V7.18458H216.885V8.62152ZM219.815 8.62152H218.349V7.18458H219.815V8.62152ZM219.815 5.74764H218.349V4.31101H219.815V5.74764Z" fill="black"/>
<path d="M215.801 15.8037H228.223C228.594 15.3609 228.915 14.8795 229.18 14.3687H214.843C215.109 14.8795 215.429 15.3609 215.801 15.8037Z" fill="black"/>
<path d="M199.084 11.351L197.866 10.5537C197.585 10.966 197.318 11.397 197.073 11.8345L198.358 12.5263C198.584 12.1256 198.829 11.7296 199.084 11.351Z" fill="black"/>
<path d="M207.926 4.96361L207.508 3.58496C207.016 3.72884 206.529 3.89112 206.062 4.07089L206.597 5.40905C207.027 5.24462 207.474 5.0946 207.926 4.96361Z" fill="black"/>
<path d="M202.933 7.39336L202.063 6.23682C201.656 6.53224 201.257 6.84883 200.874 7.17862L201.842 8.25632C202.194 7.95384 202.561 7.66363 202.933 7.39336Z" fill="black"/>
<path d="M226.008 28.7287L227.237 29.5119C227.515 29.0907 227.777 28.6554 228.012 28.2185L226.72 27.5439C226.503 27.9464 226.264 28.3428 226.008 28.7287Z" fill="black"/>
<path d="M217.25 35.2254L217.681 36.5982C218.167 36.4546 218.652 36.2822 219.12 36.0954L218.569 34.7649C218.139 34.9352 217.696 35.0904 217.25 35.2254Z" fill="black"/>
<path d="M222.212 32.734L223.096 33.8789C223.503 33.578 223.902 33.2561 224.273 32.9227L223.29 31.8582C222.947 32.1634 222.584 32.4579 222.212 32.734Z" fill="black"/>
</g>
<path d="M2.508 13.1806H4.136V27.1726H12.76V28.5806H2.508V13.1806ZM25.164 24.4666H16.584L14.736 28.5806H13.042L20.082 13.1806H21.688L28.728 28.5806H27.012L25.164 24.4666ZM24.57 23.1466L20.874 14.8746L17.178 23.1466H24.57ZM44.1456 13.1806V28.5806H42.8036L32.9036 16.0846V28.5806H31.2756V13.1806H32.6176L42.5396 25.6766V13.1806H44.1456ZM60.0181 20.8806H61.5801V26.7546C60.8614 27.3852 60.0107 27.8692 59.0281 28.2066C58.0454 28.5439 57.0114 28.7126 55.9261 28.7126C54.3861 28.7126 53.0001 28.3752 51.7681 27.7006C50.5361 27.0259 49.5681 26.0946 48.8641 24.9066C48.1601 23.7039 47.8081 22.3619 47.8081 20.8806C47.8081 19.3992 48.1601 18.0646 48.8641 16.8766C49.5681 15.6739 50.5361 14.7352 51.7681 14.0606C53.0001 13.3859 54.3934 13.0486 55.9481 13.0486C57.1214 13.0486 58.1994 13.2392 59.1821 13.6206C60.1647 13.9872 60.9934 14.5372 61.6681 15.2706L60.6561 16.3046C59.4387 15.1019 57.8914 14.5006 56.0141 14.5006C54.7674 14.5006 53.6381 14.7792 52.6261 15.3366C51.6287 15.8792 50.8441 16.6419 50.2721 17.6246C49.7001 18.5926 49.4141 19.6779 49.4141 20.8806C49.4141 22.0832 49.7001 23.1686 50.2721 24.1366C50.8441 25.1046 51.6287 25.8672 52.6261 26.4246C53.6234 26.9819 54.7454 27.2606 55.9921 27.2606C57.5761 27.2606 58.9181 26.8646 60.0181 26.0726V20.8806ZM72.3917 28.7126C70.397 28.7126 68.8424 28.1406 67.7277 26.9966C66.613 25.8526 66.0557 24.1879 66.0557 22.0026V13.1806H67.6837V21.9366C67.6837 23.7259 68.087 25.0606 68.8937 25.9406C69.7004 26.8206 70.8664 27.2606 72.3917 27.2606C73.9317 27.2606 75.105 26.8206 75.9117 25.9406C76.7184 25.0606 77.1217 23.7259 77.1217 21.9366V13.1806H78.7057V22.0026C78.7057 24.1879 78.1484 25.8526 77.0337 26.9966C75.9337 28.1406 74.3864 28.7126 72.3917 28.7126ZM92.9473 24.4666H84.3673L82.5193 28.5806H80.8253L87.8653 13.1806H89.4713L96.5113 28.5806H94.7953L92.9473 24.4666ZM92.3533 23.1466L88.6573 14.8746L84.9613 23.1466H92.3533ZM109.69 20.8806H111.252V26.7546C110.533 27.3852 109.683 27.8692 108.7 28.2066C107.717 28.5439 106.683 28.7126 105.598 28.7126C104.058 28.7126 102.672 28.3752 101.44 27.7006C100.208 27.0259 99.2399 26.0946 98.5359 24.9066C97.8319 23.7039 97.4799 22.3619 97.4799 20.8806C97.4799 19.3992 97.8319 18.0646 98.5359 16.8766C99.2399 15.6739 100.208 14.7352 101.44 14.0606C102.672 13.3859 104.065 13.0486 105.62 13.0486C106.793 13.0486 107.871 13.2392 108.854 13.6206C109.837 13.9872 110.665 14.5372 111.34 15.2706L110.328 16.3046C109.111 15.1019 107.563 14.5006 105.686 14.5006C104.439 14.5006 103.31 14.7792 102.298 15.3366C101.301 15.8792 100.516 16.6419 99.9439 17.6246C99.3719 18.5926 99.0859 19.6779 99.0859 20.8806C99.0859 22.0832 99.3719 23.1686 99.9439 24.1366C100.516 25.1046 101.301 25.8672 102.298 26.4246C103.295 26.9819 104.417 27.2606 105.664 27.2606C107.248 27.2606 108.59 26.8646 109.69 26.0726V20.8806ZM126.75 27.1726V28.5806H115.86V13.1806H126.42V14.5886H117.488V20.0666H125.452V21.4526H117.488V27.1726H126.75ZM149.776 13.1806V28.5806H146.212V22.2666H139.216V28.5806H135.652V13.1806H139.216V19.2526H146.212V13.1806H149.776ZM160.262 28.8446C158.062 28.8446 156.346 28.2359 155.114 27.0186C153.896 25.8012 153.288 24.0632 153.288 21.8046V13.1806H156.852V21.6726C156.852 24.4299 157.996 25.8086 160.284 25.8086C161.398 25.8086 162.249 25.4786 162.836 24.8186C163.422 24.1439 163.716 23.0952 163.716 21.6726V13.1806H167.236V21.8046C167.236 24.0632 166.62 25.8012 165.388 27.0186C164.17 28.2359 162.462 28.8446 160.262 28.8446ZM182.066 20.5726C182.946 20.8512 183.635 21.3206 184.134 21.9806C184.632 22.6259 184.882 23.4252 184.882 24.3786C184.882 25.7279 184.354 26.7692 183.298 27.5026C182.256 28.2212 180.731 28.5806 178.722 28.5806H170.758V13.1806H178.282C180.159 13.1806 181.596 13.5399 182.594 14.2586C183.606 14.9772 184.112 15.9526 184.112 17.1846C184.112 17.9326 183.928 18.5999 183.562 19.1866C183.21 19.7732 182.711 20.2352 182.066 20.5726ZM174.3 15.8646V19.4946H177.842C178.722 19.4946 179.389 19.3406 179.844 19.0326C180.298 18.7246 180.526 18.2699 180.526 17.6686C180.526 17.0672 180.298 16.6199 179.844 16.3266C179.389 16.0186 178.722 15.8646 177.842 15.8646H174.3ZM178.458 25.8966C179.396 25.8966 180.1 25.7426 180.57 25.4346C181.054 25.1266 181.296 24.6499 181.296 24.0046C181.296 22.7286 180.35 22.0906 178.458 22.0906H174.3V25.8966H178.458Z" fill="black"/>
<path d="M6.372 50.0161V54.3721H5.058V50.0161L0.018 41.7721H1.44L5.76 48.8461L10.08 41.7721H11.412L6.372 50.0161ZM16.0055 54.4621C15.0935 54.4621 14.2715 54.2581 13.5395 53.8501C12.8075 53.4301 12.2315 52.8541 11.8115 52.1221C11.3915 51.3901 11.1815 50.5621 11.1815 49.6381C11.1815 48.7141 11.3915 47.8861 11.8115 47.1541C12.2315 46.4221 12.8075 45.8521 13.5395 45.4441C14.2715 45.0361 15.0935 44.8321 16.0055 44.8321C16.9175 44.8321 17.7395 45.0361 18.4715 45.4441C19.2035 45.8521 19.7735 46.4221 20.1815 47.1541C20.6015 47.8861 20.8115 48.7141 20.8115 49.6381C20.8115 50.5621 20.6015 51.3901 20.1815 52.1221C19.7735 52.8541 19.2035 53.4301 18.4715 53.8501C17.7395 54.2581 16.9175 54.4621 16.0055 54.4621ZM16.0055 53.3281C16.6775 53.3281 17.2775 53.1781 17.8055 52.8781C18.3455 52.5661 18.7655 52.1281 19.0655 51.5641C19.3655 51.0001 19.5155 50.3581 19.5155 49.6381C19.5155 48.9181 19.3655 48.2761 19.0655 47.7121C18.7655 47.1481 18.3455 46.7161 17.8055 46.4161C17.2775 46.1041 16.6775 45.9481 16.0055 45.9481C15.3335 45.9481 14.7275 46.1041 14.1875 46.4161C13.6595 46.7161 13.2395 47.1481 12.9275 47.7121C12.6275 48.2761 12.4775 48.9181 12.4775 49.6381C12.4775 50.3581 12.6275 51.0001 12.9275 51.5641C13.2395 52.1281 13.6595 52.5661 14.1875 52.8781C14.7275 53.1781 15.3335 53.3281 16.0055 53.3281ZM31.9527 44.9041V54.3721H30.7287V52.6441C30.3927 53.2201 29.9307 53.6701 29.3427 53.9941C28.7547 54.3061 28.0827 54.4621 27.3267 54.4621C26.0907 54.4621 25.1127 54.1201 24.3927 53.4361C23.6847 52.7401 23.3307 51.7261 23.3307 50.3941V44.9041H24.6087V50.2681C24.6087 51.2641 24.8547 52.0201 25.3467 52.5361C25.8387 53.0521 26.5407 53.3101 27.4527 53.3101C28.4487 53.3101 29.2347 53.0101 29.8107 52.4101C30.3867 51.7981 30.6747 50.9521 30.6747 49.8721V44.9041H31.9527ZM36.756 46.7581C37.056 46.1221 37.5 45.6421 38.088 45.3181C38.688 44.9941 39.426 44.8321 40.302 44.8321V46.0741L39.996 46.0561C39 46.0561 38.22 46.3621 37.656 46.9741C37.092 47.5861 36.81 48.4441 36.81 49.5481V54.3721H35.532V44.9041H36.756V46.7581ZM50.1855 42.9241H45.7575V41.7721H55.9455V42.9241H51.5175V54.3721H50.1855V42.9241ZM60.5881 44.8321C61.8241 44.8321 62.7721 45.1441 63.4321 45.7681C64.0921 46.3801 64.4221 47.2921 64.4221 48.5041V54.3721H63.1981V52.8961C62.9101 53.3881 62.4841 53.7721 61.9201 54.0481C61.3681 54.3241 60.7081 54.4621 59.9401 54.4621C58.8841 54.4621 58.0441 54.2101 57.4201 53.7061C56.7961 53.2021 56.4841 52.5361 56.4841 51.7081C56.4841 50.9041 56.7721 50.2561 57.3481 49.7641C57.9361 49.2721 58.8661 49.0261 60.1381 49.0261H63.1441V48.4501C63.1441 47.6341 62.9161 47.0161 62.4601 46.5961C62.0041 46.1641 61.3381 45.9481 60.4621 45.9481C59.8621 45.9481 59.2861 46.0501 58.7341 46.2541C58.1821 46.4461 57.7081 46.7161 57.3121 47.0641L56.7361 46.1101C57.2161 45.7021 57.7921 45.3901 58.4641 45.1741C59.1361 44.9461 59.8441 44.8321 60.5881 44.8321ZM60.1381 53.4541C60.8581 53.4541 61.4761 53.2921 61.9921 52.9681C62.5081 52.6321 62.8921 52.1521 63.1441 51.5281V49.9801H60.1741C58.5541 49.9801 57.7441 50.5441 57.7441 51.6721C57.7441 52.2241 57.9541 52.6621 58.3741 52.9861C58.7941 53.2981 59.3821 53.4541 60.1381 53.4541ZM76.6945 44.9041V53.2201C76.6945 54.8281 76.2985 56.0161 75.5065 56.7841C74.7265 57.5641 73.5445 57.9541 71.9605 57.9541C71.0845 57.9541 70.2505 57.8221 69.4585 57.5581C68.6785 57.3061 68.0425 56.9521 67.5505 56.4961L68.1985 55.5241C68.6545 55.9321 69.2065 56.2501 69.8545 56.4781C70.5145 56.7061 71.2045 56.8201 71.9245 56.8201C73.1245 56.8201 74.0065 56.5381 74.5705 55.9741C75.1345 55.4221 75.4165 54.5581 75.4165 53.3821V52.1761C75.0205 52.7761 74.4985 53.2321 73.8505 53.5441C73.2145 53.8561 72.5065 54.0121 71.7265 54.0121C70.8385 54.0121 70.0285 53.8201 69.2965 53.4361C68.5765 53.0401 68.0065 52.4941 67.5865 51.7981C67.1785 51.0901 66.9745 50.2921 66.9745 49.4041C66.9745 48.5161 67.1785 47.7241 67.5865 47.0281C68.0065 46.3321 68.5765 45.7921 69.2965 45.4081C70.0165 45.0241 70.8265 44.8321 71.7265 44.8321C72.5305 44.8321 73.2565 44.9941 73.9045 45.3181C74.5525 45.6421 75.0745 46.1101 75.4705 46.7221V44.9041H76.6945ZM71.8525 52.8781C72.5365 52.8781 73.1545 52.7341 73.7065 52.4461C74.2585 52.1461 74.6845 51.7321 74.9845 51.2041C75.2965 50.6761 75.4525 50.0761 75.4525 49.4041C75.4525 48.7321 75.2965 48.1381 74.9845 47.6221C74.6845 47.0941 74.2585 46.6861 73.7065 46.3981C73.1665 46.0981 72.5485 45.9481 71.8525 45.9481C71.1685 45.9481 70.5505 46.0921 69.9985 46.3801C69.4585 46.6681 69.0325 47.0761 68.7205 47.6041C68.4205 48.1321 68.2705 48.7321 68.2705 49.4041C68.2705 50.0761 68.4205 50.6761 68.7205 51.2041C69.0325 51.7321 69.4585 52.1461 69.9985 52.4461C70.5505 52.7341 71.1685 52.8781 71.8525 52.8781ZM80.2683 41.0161H81.5463V54.3721H80.2683V41.0161ZM85.1023 44.9041H86.3803V54.3721H85.1023V44.9041ZM85.7503 42.8341C85.4863 42.8341 85.2643 42.7441 85.0843 42.5641C84.9043 42.3841 84.8143 42.1681 84.8143 41.9161C84.8143 41.6761 84.9043 41.4661 85.0843 41.2861C85.2643 41.1061 85.4863 41.0161 85.7503 41.0161C86.0143 41.0161 86.2363 41.1061 86.4163 41.2861C86.5963 41.4541 86.6863 41.6581 86.6863 41.8981C86.6863 42.1621 86.5963 42.3841 86.4163 42.5641C86.2363 42.7441 86.0143 42.8341 85.7503 42.8341ZM94.7603 44.8321C95.9483 44.8321 96.8903 45.1801 97.5863 45.8761C98.2943 46.5601 98.6483 47.5621 98.6483 48.8821V54.3721H97.3703V49.0081C97.3703 48.0241 97.1243 47.2741 96.6323 46.7581C96.1403 46.2421 95.4383 45.9841 94.5263 45.9841C93.5063 45.9841 92.6963 46.2901 92.0963 46.9021C91.5083 47.5021 91.2143 48.3361 91.2143 49.4041V54.3721H89.9363V44.9041H91.1603V46.6501C91.5083 46.0741 91.9883 45.6301 92.6003 45.3181C93.2243 44.9941 93.9443 44.8321 94.7603 44.8321ZM110.397 50.0341H102.477C102.549 51.0181 102.927 51.8161 103.611 52.4281C104.295 53.0281 105.159 53.3281 106.203 53.3281C106.791 53.3281 107.331 53.2261 107.823 53.0221C108.315 52.8061 108.741 52.4941 109.101 52.0861L109.821 52.9141C109.401 53.4181 108.873 53.8021 108.237 54.0661C107.613 54.3301 106.923 54.4621 106.167 54.4621C105.195 54.4621 104.331 54.2581 103.575 53.8501C102.831 53.4301 102.249 52.8541 101.829 52.1221C101.409 51.3901 101.199 50.5621 101.199 49.6381C101.199 48.7141 101.397 47.8861 101.793 47.1541C102.201 46.4221 102.753 45.8521 103.449 45.4441C104.157 45.0361 104.949 44.8321 105.825 44.8321C106.701 44.8321 107.487 45.0361 108.183 45.4441C108.879 45.8521 109.425 46.4221 109.821 47.1541C110.217 47.8741 110.415 48.7021 110.415 49.6381L110.397 50.0341ZM105.825 45.9301C104.913 45.9301 104.145 46.2241 103.521 46.8121C102.909 47.3881 102.561 48.1441 102.477 49.0801H109.191C109.107 48.1441 108.753 47.3881 108.129 46.8121C107.517 46.2241 106.749 45.9301 105.825 45.9301ZM128.527 41.7721V54.3721H127.213V48.5581H119.329V54.3721H117.997V41.7721H119.329V47.3881H127.213V41.7721H128.527ZM140.614 50.0341H132.694C132.766 51.0181 133.144 51.8161 133.828 52.4281C134.512 53.0281 135.376 53.3281 136.42 53.3281C137.008 53.3281 137.548 53.2261 138.04 53.0221C138.532 52.8061 138.958 52.4941 139.318 52.0861L140.038 52.9141C139.618 53.4181 139.09 53.8021 138.454 54.0661C137.83 54.3301 137.14 54.4621 136.384 54.4621C135.412 54.4621 134.548 54.2581 133.792 53.8501C133.048 53.4301 132.466 52.8541 132.046 52.1221C131.626 51.3901 131.416 50.5621 131.416 49.6381C131.416 48.7141 131.614 47.8861 132.01 47.1541C132.418 46.4221 132.97 45.8521 133.666 45.4441C134.374 45.0361 135.166 44.8321 136.042 44.8321C136.918 44.8321 137.704 45.0361 138.4 45.4441C139.096 45.8521 139.642 46.4221 140.038 47.1541C140.434 47.8741 140.632 48.7021 140.632 49.6381L140.614 50.0341ZM136.042 45.9301C135.13 45.9301 134.362 46.2241 133.738 46.8121C133.126 47.3881 132.778 48.1441 132.694 49.0801H139.408C139.324 48.1441 138.97 47.3881 138.346 46.8121C137.734 46.2241 136.966 45.9301 136.042 45.9301ZM144.457 46.7581C144.757 46.1221 145.201 45.6421 145.789 45.3181C146.389 44.9941 147.127 44.8321 148.003 44.8321V46.0741L147.697 46.0561C146.701 46.0561 145.921 46.3621 145.357 46.9741C144.793 47.5861 144.511 48.4441 144.511 49.5481V54.3721H143.233V44.9041H144.457V46.7581ZM158.473 50.0341H150.553C150.625 51.0181 151.003 51.8161 151.687 52.4281C152.371 53.0281 153.235 53.3281 154.279 53.3281C154.867 53.3281 155.407 53.2261 155.899 53.0221C156.391 52.8061 156.817 52.4941 157.177 52.0861L157.897 52.9141C157.477 53.4181 156.949 53.8021 156.313 54.0661C155.689 54.3301 154.999 54.4621 154.243 54.4621C153.271 54.4621 152.407 54.2581 151.651 53.8501C150.907 53.4301 150.325 52.8541 149.905 52.1221C149.485 51.3901 149.275 50.5621 149.275 49.6381C149.275 48.7141 149.473 47.8861 149.869 47.1541C150.277 46.4221 150.829 45.8521 151.525 45.4441C152.233 45.0361 153.025 44.8321 153.901 44.8321C154.777 44.8321 155.563 45.0361 156.259 45.4441C156.955 45.8521 157.501 46.4221 157.897 47.1541C158.293 47.8741 158.491 48.7021 158.491 49.6381L158.473 50.0341ZM153.901 45.9301C152.989 45.9301 152.221 46.2241 151.597 46.8121C150.985 47.3881 150.637 48.1441 150.553 49.0801H157.267C157.183 48.1441 156.829 47.3881 156.205 46.8121C155.593 46.2241 154.825 45.9301 153.901 45.9301Z" fill="black"/>
<defs>
<clipPath id="clip0">
<rect x="192" width="41" height="40.2097" fill="white"/>
</clipPath>
</defs>
</svg>
