<svg width="150" height="208" viewBox="0 0 150 208" fill="none" xmlns="http://www.w3.org/2000/svg">
<path d="M131.147 121.514L64.2184 160.196C63.666 160.519 63.2057 160.196 63.2057 159.411L63.2517 101.111C63.2517 100.373 63.712 99.4957 64.2644 99.1726L131.193 60.4444C131.745 60.1213 132.206 60.4444 132.206 61.2291L132.16 119.529C132.206 120.314 131.745 121.191 131.147 121.514Z" fill="#2727E2"/>
<path d="M89.9536 25.259L88.1925 24.1468C87.7754 23.8224 87.2656 23.7761 86.6168 24.1468L53.0638 43.7032C51.8589 44.3983 50.932 46.252 50.932 47.8277L51.1637 104.921C51.1637 105.802 51.4418 106.404 51.9052 106.682L53.898 107.933L54.9176 105.616L86.8949 86.9868C88.0998 86.2916 89.0267 84.438 89.0267 82.8623L88.795 27.9469L89.9536 25.259Z" fill="#FF4633"/>
<path d="M55.0102 44.9081L88.5632 25.3518C89.7682 24.6566 90.7414 25.3981 90.7414 26.9737L90.9731 84.0672C90.9731 85.6429 89.9999 87.4966 88.8413 88.1917L55.2883 107.748C54.0834 108.443 53.1101 107.702 53.1101 106.126L52.8784 49.0326C52.8784 47.457 53.8053 45.6033 55.0102 44.9081Z" fill="#BC0400"/>
<path d="M102.605 32.7665L100.844 31.6543C100.427 31.3299 99.9176 31.2836 99.2687 31.6543L65.7157 51.2107C64.5108 51.9058 63.5839 53.7595 63.5839 55.3351L63.8156 112.429C63.8156 113.309 64.0937 113.912 64.5571 114.19L66.5499 115.441L67.5695 113.124L99.5468 94.4942C100.752 93.7991 101.679 91.9454 101.679 90.3698L101.447 35.4543L102.605 32.7665Z" fill="#FF4633"/>
<path d="M67.6158 52.4156L101.169 32.8592C102.374 32.164 103.347 32.9055 103.347 34.4812L103.579 91.5747C103.579 93.1503 102.605 95.004 101.447 95.6991L67.8939 115.255C66.689 115.951 65.7157 115.209 65.7157 113.634L65.484 56.54C65.484 54.9644 66.4109 53.1107 67.6158 52.4156Z" fill="#BC0400"/>
<path d="M65.7157 113.634L65.484 56.54C65.484 55.6595 65.7621 54.6863 66.2718 53.8985L64.279 52.7399L61.5911 51.1643L51.5808 45.3716C51.2101 46.113 50.932 46.9935 50.9784 47.7813L51.2101 104.875C51.2101 105.755 51.4881 106.358 51.9516 106.636L53.9444 107.887L53.9907 107.841L64.6035 114.19L66.4109 115.302C65.9474 114.977 65.7157 114.375 65.7157 113.634Z" fill="#EA2100"/>
<path d="M51.5808 45.3716L54.3615 44.352L67.3841 51.9058L66.2719 53.8985L51.5808 45.3716Z" fill="#FF4633"/>
<path d="M57.0031 45.8813L88.7023 27.4835L97.6003 32.6275L65.9475 51.0716L57.0031 45.8813Z" fill="#FBDB92"/>
<path d="M57.0031 45.8813L88.7023 27.4835L90.417 28.503L58.6251 46.8082L57.0031 45.8813Z" fill="#C19F63"/>
<path d="M50.932 53.2497L65.484 61.6376V75.3549L51.0247 66.8743L50.932 53.2497Z" fill="#FCDFA7"/>
<path d="M65.484 61.6376L103.347 39.8568L103.393 53.5741L65.484 75.3549V61.6376Z" fill="#F7C45E"/>
<path d="M51.1637 100.565V96.0698L65.6694 104.504V109.046L51.1637 100.565Z" fill="#FCDFA7"/>
<path d="M65.6694 104.504L103.579 82.5379V87.2185L65.6694 109.046V104.504Z" fill="#F7C45E"/>
<path d="M82.1678 61.4523L82.1215 56.4936L85.0411 54.779V55.5668L82.9093 56.818V58.0693L84.9021 56.9107V57.6985L82.9093 58.8571V60.1547L85.1338 58.8571V59.6449L82.1678 61.4523Z" fill="#BC0400"/>
<path d="M87.5901 58.2546V56.1229C87.5901 55.4741 87.4047 55.2424 87.0802 55.4278C86.8949 55.5205 86.7559 55.7058 86.6632 55.9839C86.5705 56.2619 86.5241 56.54 86.5241 56.8644V58.9034L85.7826 59.3205V56.3546C85.7826 56.1692 85.7826 55.9839 85.7826 55.8449C85.7826 55.7058 85.7826 55.6131 85.7826 55.5204L86.4778 55.1034C86.4778 55.1497 86.4778 55.2424 86.4778 55.4278C86.4778 55.6131 86.4778 55.7522 86.4778 55.7985C86.5705 55.4278 86.7095 55.1497 86.8485 54.9643C86.9876 54.7326 87.1729 54.5936 87.4047 54.4546C87.6827 54.2692 87.9144 54.2692 88.0998 54.4082C88.2852 54.5473 88.3315 54.8717 88.3315 55.3351V57.7449L87.5901 58.2546Z" fill="#BC0400"/>
<path d="M90.2316 58.2546C89.9072 58.44 89.5828 58.5327 89.3974 58.4863C89.1657 58.44 89.0731 58.2546 88.9804 57.9766L89.7219 57.4205C89.7682 57.5595 89.8145 57.6522 89.9072 57.6985C89.9999 57.7449 90.0926 57.6985 90.2316 57.6522C90.417 57.5132 90.6024 57.3741 90.6951 57.1424C90.7878 56.9107 90.8341 56.6327 90.8341 56.3083V56.1229V55.7521C90.6951 56.3083 90.3707 56.7253 89.9072 57.0034C89.5828 57.1888 89.3048 57.1888 89.1194 56.957C88.934 56.7253 88.8413 56.3083 88.8413 55.7058C88.8413 55.1034 88.934 54.5473 89.1194 54.0838C89.3048 53.6204 89.5828 53.296 89.9536 53.1106C90.3707 52.8789 90.6487 52.9253 90.8341 53.296C90.8341 53.2033 90.8341 53.1106 90.8341 52.9716C90.8341 52.8326 90.8341 52.7399 90.8804 52.6936L91.5756 52.2765C91.5756 52.5545 91.5756 52.8326 91.5756 53.157V55.9839C91.5756 56.54 91.4829 57.0034 91.2512 57.4205C91.0195 57.6522 90.6951 57.9766 90.2316 58.2546ZM90.8341 54.4082C90.8341 54.0375 90.7878 53.7594 90.6951 53.5741C90.6024 53.435 90.4634 53.3887 90.2316 53.5277C89.8146 53.7594 89.6292 54.3155 89.6292 55.1497C89.6292 55.9839 89.8146 56.2619 90.2316 56.0302C90.417 55.9375 90.5561 55.7058 90.6951 55.4278C90.7878 55.1497 90.8341 54.8253 90.8341 54.4082Z" fill="#BC0400"/>
<path d="M92.3171 55.4741L92.2708 50.2838L93.0123 49.8667L93.0586 55.057L92.3171 55.4741Z" fill="#BC0400"/>
<path d="M93.8001 50.1448V49.4033L94.5416 48.9862V49.7277L93.8001 50.1448ZM93.8001 54.64V50.8399L94.5416 50.4228V54.2229L93.8001 54.64Z" fill="#BC0400"/>
<path d="M97.693 51.257C97.693 51.6277 97.6003 51.9985 97.3686 52.3228C97.1369 52.6472 96.8125 52.9716 96.4417 53.2033C96.071 53.4351 95.7466 53.5277 95.5612 53.4814C95.3758 53.4351 95.1904 53.2497 95.1441 52.9716L95.7929 52.4619C95.8393 52.6009 95.8856 52.6936 95.9783 52.7399C96.071 52.7399 96.21 52.6936 96.4417 52.5546C96.6271 52.4155 96.8125 52.3228 96.9052 52.1838C96.9979 52.0448 97.0442 51.9058 97.0442 51.7667C97.0442 51.6277 96.9979 51.5814 96.9515 51.535C96.8588 51.4887 96.7661 51.535 96.5808 51.5814C96.1637 51.7204 95.8856 51.7667 95.7466 51.7667C95.6075 51.7667 95.4685 51.7204 95.4222 51.5814C95.3295 51.4887 95.2831 51.3033 95.2831 51.0716C95.2831 50.7009 95.3758 50.3765 95.6075 50.0521C95.7929 49.7277 96.1173 49.4496 96.4881 49.2179C96.8125 49.0326 97.0906 48.9399 97.3223 48.9862C97.5077 49.0326 97.6467 49.2179 97.693 49.5423L97.0442 50.0057C97.0442 49.8667 96.9515 49.774 96.9052 49.7277C96.8125 49.6813 96.6735 49.7277 96.5344 49.8204C96.349 49.9131 96.21 50.0521 96.1637 50.1448C96.071 50.2375 96.0247 50.3765 96.0247 50.5155C96.0247 50.6082 96.071 50.7009 96.1173 50.7009C96.1637 50.7472 96.3027 50.7009 96.4417 50.6545C96.6735 50.6082 96.8588 50.5155 97.0442 50.5155C97.2296 50.4692 97.3686 50.4692 97.4613 50.5155C97.554 50.5618 97.6467 50.6082 97.693 50.7009C97.6467 50.8399 97.693 51.0253 97.693 51.257Z" fill="#BC0400"/>
<path d="M99.037 48.5228C99.1297 48.1521 99.2687 47.874 99.4078 47.6886C99.5468 47.4569 99.7322 47.3179 99.9639 47.1789C100.288 46.9935 100.474 46.9935 100.659 47.1325C100.844 47.2716 100.891 47.596 100.891 48.0594V50.4692L100.149 50.8862V48.7545C100.149 48.1057 99.9639 47.874 99.6395 48.0594C99.4541 48.1521 99.3151 48.3374 99.2224 48.6155C99.1297 48.8935 99.0833 49.1716 99.0833 49.496V51.535L98.3418 51.9521L98.2955 46.7618L99.037 46.3447V47.7813C99.037 48.013 99.037 48.2911 99.037 48.5228Z" fill="#BC0400"/>
<path d="M67.2924 84.3454L65.9485 83.5112C65.6704 83.2795 65.2533 83.2332 64.7899 83.5112L39.8105 98.0626C38.93 98.5724 38.2348 99.9627 38.2348 101.121L38.4202 143.617C38.4202 144.266 38.6519 144.729 38.9763 144.915L40.4593 145.841L41.2008 144.127L64.9752 130.27C65.8558 129.761 66.5509 128.37 66.5509 127.212L66.4119 86.3844L67.2924 84.3454Z" fill="#AFD805"/>
<path d="M41.2461 98.9894L66.2254 84.438C67.106 83.9283 67.8475 84.4844 67.8475 85.6429L68.0329 128.139C68.0329 129.344 67.3377 130.687 66.4572 131.197L41.4778 145.749C40.5972 146.258 39.8557 145.702 39.8557 144.544L39.6703 102.048C39.6703 100.889 40.3655 99.4992 41.2461 98.9894Z" fill="#4F7000"/>
<path d="M76.6528 89.9527L75.3089 89.1186C75.0308 88.8869 74.6137 88.8405 74.1503 89.1186L49.1709 103.67C48.2903 104.18 47.5952 105.57 47.5952 106.729L47.7806 149.224C47.7806 149.873 48.0123 150.337 48.3367 150.522L49.8197 151.449L50.5612 149.734L74.3356 135.878C75.2162 135.368 75.9113 133.978 75.9113 132.819L75.7259 91.9454L76.6528 89.9527Z" fill="#AFD805"/>
<path d="M50.6539 104.597L75.6333 90.0454C76.5138 89.5356 77.2553 90.0918 77.2553 91.2503L77.4407 133.746C77.4407 134.951 76.7455 136.295 75.865 136.805L50.8856 151.356C50.0051 151.866 49.2636 151.31 49.2636 150.151L49.0782 107.655C49.0319 106.497 49.7734 105.107 50.6539 104.597Z" fill="#4F7000"/>
<path d="M49.2172 150.151L49.0319 107.655C49.0319 107.007 49.2636 106.265 49.588 105.663L48.105 104.829L46.1122 103.67L38.6508 99.3602C38.3728 99.9163 38.1874 100.565 38.1874 101.168L38.3728 143.663C38.3728 144.312 38.6045 144.775 38.9289 144.961L40.4119 145.888V145.841L48.2904 150.568L49.6343 151.402C49.4026 151.124 49.2172 150.707 49.2172 150.151Z" fill="#88AD00"/>
<path d="M38.6972 99.3602L40.7827 98.5724L50.4685 104.226L49.6343 105.709L38.6972 99.3602Z" fill="#AFD805"/>
<path d="M43.4706 100.148L66.4108 86.8941L72.2038 90.2771L49.4026 103.577L43.4706 100.148Z" fill="#FBDB92"/>
<path d="M43.4706 100.148L66.4108 86.8941L67.6621 87.6356L44.7682 100.889L43.4706 100.148Z" fill="#C19F63"/>
<path d="M38.2337 105.246L49.0782 111.455V121.651L38.2801 115.348L38.2337 105.246Z" fill="#FBDB92"/>
<path d="M49.0782 111.455L77.2553 95.2357L77.3016 105.477L49.0782 121.651V111.455Z" fill="#F7C45E"/>
<path d="M38.3727 140.419V137.083L49.2172 143.339V146.722L38.3727 140.419Z" fill="#FBDB92"/>
<path d="M49.2172 143.339L77.3943 126.98V130.502L49.2172 146.722V143.339Z" fill="#F7C45E"/>
<path d="M58.2079 109.37V110.899L60.108 109.787V110.575L58.2079 111.687V113.495L57.4201 113.958L57.3737 108.999L60.108 107.424V108.212L58.2079 109.37Z" fill="#4F7000"/>
<path d="M60.7569 112.012V109.092C60.7569 108.86 60.7569 108.721 60.7569 108.582C60.7569 108.443 60.7569 108.304 60.7569 108.212L61.452 107.794C61.452 107.841 61.452 107.98 61.452 108.165C61.452 108.397 61.452 108.536 61.452 108.582C61.5447 108.258 61.5911 108.026 61.6374 107.887C61.6837 107.748 61.7764 107.609 61.8228 107.516C61.9155 107.424 62.0081 107.331 62.1008 107.285C62.1935 107.238 62.2862 107.192 62.3326 107.192V108.026C62.1935 108.073 62.1008 108.119 62.0081 108.165C61.8228 108.258 61.6837 108.443 61.5911 108.721C61.4984 108.999 61.452 109.324 61.452 109.694V111.548L60.7569 112.012Z" fill="#4F7000"/>
<path d="M64.0009 110.204C63.5839 110.436 63.2595 110.482 63.0277 110.251C62.796 110.019 62.657 109.602 62.657 108.953C62.657 108.304 62.7497 107.794 62.9814 107.285C63.2131 106.821 63.5375 106.451 63.9546 106.219C64.3717 105.987 64.6961 105.987 64.8815 106.219C65.1132 106.451 65.2059 106.914 65.2059 107.609V107.655L63.3985 108.721C63.3985 109.092 63.4448 109.324 63.5375 109.463C63.6302 109.602 63.7692 109.602 63.9546 109.509C64.2327 109.37 64.3717 109.092 64.4644 108.768L65.1595 108.443C65.0205 109.231 64.6034 109.834 64.0009 110.204ZM64.0009 106.868C63.8156 106.96 63.6765 107.146 63.5839 107.331C63.4912 107.563 63.4448 107.794 63.4448 108.119L64.5571 107.47C64.5571 107.192 64.4644 106.96 64.3717 106.868C64.279 106.775 64.14 106.775 64.0009 106.868Z" fill="#4F7000"/>
<path d="M67.6621 107.98V105.848C67.6621 105.199 67.4767 104.968 67.1523 105.153C66.9669 105.246 66.8279 105.431 66.7352 105.709C66.6425 105.987 66.5962 106.265 66.5962 106.59V108.629L65.8547 109.046V106.08C65.8547 105.894 65.8547 105.709 65.8547 105.57C65.8547 105.431 65.8547 105.338 65.8547 105.246L66.5498 104.829C66.5498 104.875 66.5498 104.968 66.5498 105.153C66.5498 105.338 66.5498 105.477 66.5498 105.524C66.6425 105.153 66.7816 104.875 66.9206 104.69C67.0596 104.458 67.245 104.319 67.4767 104.18C67.8011 103.994 67.9865 103.994 68.1719 104.133C68.3573 104.272 68.4036 104.597 68.4036 105.06V107.47L67.6621 107.98Z" fill="#4F7000"/>
<path d="M70.3037 106.497C69.8866 106.729 69.5622 106.775 69.2842 106.543C69.0524 106.358 68.9134 105.941 68.9134 105.292C68.9134 104.643 69.0061 104.087 69.2378 103.624C69.4695 103.114 69.7939 102.743 70.2574 102.511C70.5818 102.326 70.8598 102.28 71.0915 102.372C71.3233 102.465 71.4623 102.697 71.5086 103.068L70.7672 103.531C70.7672 103.346 70.6744 103.207 70.6281 103.16C70.5354 103.114 70.4427 103.114 70.2574 103.207C69.8866 103.438 69.7012 103.948 69.7012 104.829C69.7012 105.709 69.8866 106.033 70.3037 105.802C70.4428 105.709 70.5818 105.57 70.6745 105.431C70.7672 105.246 70.8135 105.06 70.8598 104.782L71.6013 104.411C71.555 104.69 71.5086 104.968 71.416 105.246C71.3233 105.524 71.1379 105.755 70.9525 105.987C70.7208 106.172 70.5354 106.358 70.3037 106.497Z" fill="#4F7000"/>
<path d="M72.8063 101.909C72.899 101.538 73.038 101.26 73.177 101.075C73.3161 100.843 73.5014 100.704 73.7332 100.565C74.0576 100.38 74.2429 100.38 74.4283 100.519C74.6137 100.658 74.66 100.982 74.66 101.446V103.855L73.9185 104.272V102.141C73.9185 101.492 73.7332 101.26 73.4087 101.446C73.2234 101.538 73.0844 101.724 72.9917 102.002C72.899 102.28 72.8526 102.558 72.8526 102.882V104.921L72.1111 105.338L72.0648 100.148L72.8063 99.7309V101.168C72.8063 101.399 72.8063 101.677 72.8063 101.909Z" fill="#4F7000"/>
<path d="M148.486 106.08V105.338H147.049L127.307 94.0308C126.751 93.7064 125.777 93.7528 125.129 94.1235L98.9906 109.37L95.9319 110.297V111.734H95.9783C96.0246 111.873 96.1173 112.012 96.3027 112.104L117.111 124.061C117.667 124.385 118.64 124.339 119.289 123.968L147.698 107.053C147.976 106.868 148.44 106.311 148.486 106.08Z" fill="#A00000"/>
<path d="M117.111 122.856L96.3027 110.946C95.7466 110.621 95.7929 110.065 96.4417 109.694L125.129 92.965C125.777 92.5942 126.751 92.5479 127.307 92.8723L148.115 104.829C148.671 105.153 148.625 105.709 147.976 106.08L119.243 122.763C118.64 123.134 117.667 123.18 117.111 122.856Z" fill="#E00B00"/>
<path d="M96.7661 105.755V110.065L118.501 122.578L122.811 117.665C122.811 117.665 120.031 114.931 119.706 114.792C119.428 114.653 96.7661 105.755 96.7661 105.755Z" fill="#FBDB92"/>
<path d="M96.7661 106.821L118.733 119.38L121.885 117.619C121.885 117.619 115.304 109.046 115.165 109.046C115.026 109.046 96.7661 105.755 96.7661 105.755V106.821Z" fill="#C19F63"/>
<path d="M148.486 99.9163V98.7114H147.049L127.307 87.4039C126.751 87.0795 125.777 87.1259 125.129 87.4966L98.9906 102.743L95.9319 103.67V105.107H95.9783C96.0246 105.246 96.1173 105.385 96.3027 105.477L117.111 117.434C117.667 117.758 118.64 117.712 119.289 117.341L147.976 100.611C148.254 100.38 148.44 100.148 148.486 99.9163Z" fill="#A00000"/>
<path d="M117.111 116.229L96.3027 104.272C95.7466 103.948 95.7929 103.392 96.4417 103.021L125.129 86.2917C125.777 85.9209 126.751 85.8746 127.307 86.199L148.115 98.1553C148.671 98.4796 148.625 99.0358 147.976 99.4065L119.243 116.136C118.64 116.507 117.667 116.553 117.111 116.229Z" fill="#E00B00"/>
<path d="M117.25 116.924C117.25 116.924 118.131 118.407 118.27 120.214C118.362 122.021 117.76 124.061 117.76 124.061H119.011L120.911 119.38L119.984 117.156L118.501 116.321L117.25 116.924Z" fill="#A80202"/>
<path d="M118.501 116.414C118.501 116.414 119.382 117.99 119.382 120.399C119.382 122.856 119.011 124.107 119.011 124.107L148.486 106.543C148.486 106.543 149.135 104.829 149.135 102.372C149.135 99.9626 148.486 98.665 148.486 98.665L118.501 116.414Z" fill="#7A0B00"/>
<path d="M121.931 121.095C121.792 121.095 121.699 121.048 121.56 121.002C121.328 120.863 121.189 120.631 121.189 120.353C121.189 119.982 121.189 119.38 121.143 118.639C121.097 117.804 121.004 117.434 120.865 117.063C120.726 116.646 121.143 115.997 121.467 115.812L145.288 101.816C145.52 101.677 145.844 101.677 146.076 101.77C146.354 101.909 146.54 102.141 146.586 102.419C146.632 102.743 146.725 103.16 146.725 103.716C146.725 104.597 146.679 105.477 146.632 105.941C146.632 106.265 146.354 106.543 146.122 106.682L122.255 121.002C122.163 121.048 122.07 121.095 121.931 121.095ZM121.838 116.414C121.746 116.46 121.514 116.831 121.56 116.924C121.653 117.295 121.792 117.712 121.838 118.639C121.885 119.38 121.885 120.029 121.885 120.4C121.885 120.446 121.885 120.446 121.931 120.446C121.931 120.446 121.977 120.446 122.024 120.446L145.891 106.126C145.983 106.08 146.076 105.941 146.076 105.894C146.122 105.431 146.169 104.55 146.169 103.716C146.169 103.207 146.122 102.836 146.03 102.511C146.03 102.419 145.937 102.372 145.891 102.326C145.798 102.28 145.752 102.28 145.659 102.326L121.838 116.414Z" fill="#F73934"/>
<path d="M148.903 96.6723V95.9309H147.42L127.446 84.4843C126.89 84.16 125.916 84.2063 125.268 84.577L98.8053 100.055L95.7002 100.982V102.419H95.7466C95.7929 102.558 95.8856 102.697 96.071 102.789L117.157 114.885C117.714 115.209 118.687 115.163 119.336 114.792L148.069 97.6455C148.44 97.4602 148.903 96.904 148.903 96.6723Z" fill="#5C8C00"/>
<path d="M117.157 113.68L96.071 101.585C95.5149 101.26 95.5612 100.704 96.21 100.333L125.268 83.3721C125.916 83.0014 126.89 82.9551 127.446 83.2795L148.532 95.3748C149.088 95.6992 149.042 96.2553 148.393 96.626L119.336 113.587C118.687 113.958 117.714 114.004 117.157 113.68Z" fill="#7AD603"/>
<path d="M96.5344 96.3479V100.704L118.548 113.356L122.95 108.351C122.95 108.351 120.123 105.57 119.799 105.431C119.475 105.338 96.5344 96.3479 96.5344 96.3479Z" fill="#FBDB92"/>
<path d="M96.5344 97.4138L118.779 110.158L121.977 108.397C121.977 108.397 115.35 99.6846 115.211 99.6846C115.072 99.6846 96.5807 96.3479 96.5807 96.3479V97.4138H96.5344Z" fill="#C19F63"/>
<path d="M148.903 90.4625V89.2576H147.42L127.446 77.8111C126.89 77.4867 125.916 77.533 125.268 77.9038L98.8053 93.3821L95.7002 94.3089V95.7455H95.7466C95.7929 95.8845 95.8856 96.0236 96.071 96.1162L117.157 108.212C117.714 108.536 118.687 108.49 119.336 108.119L148.393 91.1576C148.718 90.9259 148.903 90.6942 148.903 90.4625Z" fill="#5C8C00"/>
<path d="M117.157 106.96L96.071 94.865C95.5149 94.5406 95.5612 93.9845 96.21 93.6137L125.268 76.6525C125.916 76.2818 126.89 76.2354 127.446 76.5598L148.532 88.6551C149.088 88.9795 149.042 89.5356 148.393 89.9064L119.336 106.868C118.687 107.238 117.714 107.285 117.157 106.96Z" fill="#7AD603"/>
<path d="M117.296 107.655C117.296 107.655 118.223 109.138 118.316 110.992C118.455 112.799 117.76 114.885 117.76 114.885H119.058L120.958 110.158L120.031 107.933L118.548 107.099L117.296 107.655Z" fill="#5C8C00"/>
<path d="M118.594 107.146C118.594 107.146 119.475 108.721 119.475 111.177C119.475 113.634 119.104 114.931 119.104 114.931L148.949 97.1821C148.949 97.1821 149.598 95.4211 149.598 92.965C149.598 90.5088 148.949 89.2113 148.949 89.2113L118.594 107.146Z" fill="#4F7000"/>
<path d="M122.163 111.919C122.024 111.919 121.931 111.873 121.792 111.826C121.56 111.687 121.421 111.455 121.421 111.177C121.421 110.621 121.421 110.019 121.375 109.463C121.328 108.629 121.189 108.119 121.05 107.748C120.911 107.331 121.097 106.914 121.467 106.729L145.983 92.3162C146.215 92.1772 146.539 92.1308 146.818 92.2698C147.096 92.4089 147.281 92.6406 147.327 92.9186C147.374 93.243 147.466 93.7064 147.466 94.2625C147.466 95.143 147.42 96.0699 147.374 96.5333C147.374 96.8577 147.096 97.1358 146.864 97.2748L122.533 111.826C122.394 111.873 122.302 111.919 122.163 111.919ZM121.838 107.285C121.745 107.331 121.699 107.47 121.746 107.563C121.885 107.933 122.024 108.49 122.07 109.416C122.116 110.019 122.116 110.621 122.116 111.224C122.116 111.27 122.116 111.27 122.163 111.27C122.163 111.27 122.209 111.27 122.255 111.27L146.586 96.7187C146.679 96.6723 146.771 96.5333 146.818 96.487C146.864 96.0699 146.91 95.143 146.91 94.2625C146.91 93.7528 146.818 93.382 146.771 93.0576C146.771 92.965 146.678 92.9186 146.632 92.8723C146.539 92.8259 146.493 92.8259 146.4 92.8723L121.838 107.285Z" fill="#7AD603"/>
<path d="M118.872 102.28C119.289 102.048 119.336 101.724 119.011 101.353L119.892 101.167C120.123 101.446 120.216 101.724 120.123 101.955C120.031 102.187 119.845 102.419 119.475 102.65C118.965 102.975 118.362 103.114 117.714 103.068C117.065 103.021 116.462 102.836 115.813 102.465C115.165 102.094 114.84 101.724 114.794 101.399C114.748 101.028 114.979 100.704 115.489 100.38C115.86 100.148 116.277 100.009 116.694 99.9626C117.111 99.9162 117.575 99.9626 117.992 100.102L117.575 100.565C117.343 100.472 117.065 100.472 116.833 100.472C116.555 100.472 116.323 100.565 116.138 100.704C115.813 100.889 115.721 101.075 115.767 101.307C115.813 101.538 116.092 101.77 116.509 102.002C116.972 102.233 117.389 102.419 117.76 102.419C118.177 102.511 118.548 102.419 118.872 102.28Z" fill="#4F7000"/>
<path d="M119.66 99.7309C119.521 99.5455 119.475 99.4065 119.521 99.2675C119.567 99.1284 119.66 98.9894 119.845 98.8967C120.123 98.7577 120.402 98.665 120.772 98.7114C121.097 98.7577 121.467 98.8504 121.838 99.0821L123.692 100.148L123.043 100.519L121.375 99.5918C120.865 99.3138 120.448 99.2211 120.123 99.4065C119.984 99.4992 119.892 99.6382 119.984 99.7772C120.031 99.9162 120.216 100.055 120.448 100.194L122.024 101.121L121.375 101.492L117.343 99.1748L117.992 98.804L119.104 99.4528C119.289 99.4992 119.475 99.6382 119.66 99.7309Z" fill="#4F7000"/>
<path d="M120.865 97.7845L120.309 97.4601L120.958 97.0894L121.514 97.4138L120.865 97.7845ZM124.294 99.7772L121.375 98.1089L122.024 97.7382L124.943 99.4065L124.294 99.7772Z" fill="#4F7000"/>
<path d="M127.307 98.0162L125.638 97.0894C125.129 96.8113 124.712 96.7186 124.387 96.904C124.248 96.9967 124.155 97.1357 124.248 97.2747C124.294 97.4138 124.48 97.5528 124.712 97.6918L126.287 98.6186L125.638 98.9894L123.368 97.6918C123.229 97.5991 123.089 97.5064 122.997 97.4601C122.904 97.4138 122.811 97.3674 122.719 97.3211L123.368 96.9503C123.414 96.9503 123.507 96.9967 123.646 97.0894C123.785 97.1821 123.924 97.2284 123.97 97.2747C123.831 97.0894 123.785 96.9503 123.831 96.8113C123.877 96.6723 123.97 96.5333 124.155 96.4406C124.433 96.3016 124.712 96.2089 125.082 96.2552C125.407 96.3016 125.777 96.3942 126.148 96.6259L128.002 97.6918L127.307 98.0162Z" fill="#4F7000"/>
<path d="M129.67 96.7186C129.3 96.9503 128.882 97.043 128.419 96.9967C127.956 96.9503 127.446 96.8113 126.982 96.5333C126.519 96.2552 126.241 95.9772 126.195 95.6991C126.148 95.421 126.287 95.1893 126.704 94.9576C127.075 94.7259 127.492 94.6796 127.956 94.7259C128.419 94.7723 128.929 94.9576 129.485 95.282L127.863 96.2089C128.141 96.3942 128.419 96.4869 128.651 96.4869C128.882 96.5333 129.114 96.4869 129.253 96.3942C129.485 96.2552 129.531 96.1162 129.346 95.9308L130.041 95.6064C130.319 96.0235 130.226 96.3942 129.67 96.7186ZM127.121 95.2357C126.982 95.3284 126.89 95.421 126.936 95.5601C126.982 95.6991 127.121 95.7918 127.307 95.9308L128.28 95.3747C128.048 95.2357 127.817 95.1893 127.585 95.143C127.446 95.0966 127.26 95.143 127.121 95.2357Z" fill="#4F7000"/>
<path d="M132.544 93.9844C132.822 94.1698 132.961 94.3552 132.914 94.5406C132.868 94.7723 132.683 94.9576 132.312 95.143C131.941 95.3284 131.617 95.4674 131.339 95.5137C131.014 95.5601 130.69 95.5137 130.365 95.3747L130.829 94.9576C131.014 95.004 131.153 95.0503 131.292 95.0503C131.431 95.0503 131.617 94.9576 131.802 94.8649C131.988 94.7723 132.08 94.6796 132.127 94.5869C132.173 94.4942 132.127 94.4479 131.988 94.3552C131.895 94.3088 131.802 94.2625 131.663 94.2625C131.524 94.2625 131.385 94.3088 131.2 94.4015C130.736 94.5869 130.412 94.6796 130.226 94.6796C130.041 94.7259 129.809 94.7259 129.624 94.6796C129.439 94.6332 129.253 94.5869 129.114 94.4942C128.836 94.3552 128.697 94.1698 128.743 93.9381C128.79 93.7527 128.975 93.521 129.3 93.3357C129.624 93.1503 129.902 93.0576 130.226 93.0113C130.551 92.9649 130.875 93.0113 131.153 93.1503L130.644 93.521C130.505 93.4747 130.366 93.4283 130.226 93.4283C130.087 93.4283 129.948 93.4747 129.809 93.5674C129.67 93.66 129.578 93.7527 129.531 93.7991C129.485 93.8918 129.531 93.9381 129.624 93.9844C129.717 94.0308 129.809 94.0771 129.902 94.0308C129.995 94.0308 130.134 93.9844 130.319 93.9381C130.551 93.8454 130.783 93.7527 131.014 93.7064C131.2 93.66 131.385 93.6137 131.57 93.6137C131.709 93.6137 131.895 93.6137 132.08 93.6137C132.219 93.8454 132.358 93.8918 132.544 93.9844Z" fill="#4F7000"/>
<path d="M135.046 93.6137C134.675 93.8454 134.258 93.9381 133.795 93.8918C133.331 93.8454 132.822 93.7064 132.358 93.4283C131.895 93.1503 131.617 92.8722 131.57 92.5942C131.524 92.3161 131.663 92.0844 132.08 91.8527C132.451 91.621 132.868 91.5747 133.331 91.621C133.795 91.6673 134.305 91.8527 134.861 92.1771L133.239 93.1039C133.517 93.2893 133.795 93.382 134.027 93.382C134.258 93.4283 134.49 93.382 134.629 93.2893C134.861 93.1503 134.907 93.0113 134.722 92.8259L135.417 92.5015C135.695 92.9186 135.602 93.2893 135.046 93.6137ZM132.451 92.1308C132.312 92.2234 132.219 92.3161 132.266 92.4552C132.312 92.5942 132.451 92.6869 132.636 92.8259L133.61 92.2698C133.378 92.1308 133.146 92.0844 132.914 92.0381C132.775 91.9917 132.59 92.0381 132.451 92.1308Z" fill="#4F7000"/>
<path d="M112.199 74.2427L114.748 75.6793L114.794 95.3284L112.199 93.8918V74.2427Z" fill="#EA2100"/>
<path d="M114.979 72.6208L117.528 74.0574L114.748 75.6794L112.199 74.2428L114.979 72.6208Z" fill="#FF4239"/>
<path d="M120.865 75.4013C120.772 75.3549 120.726 75.3086 120.633 75.2623C120.031 74.9842 119.289 75.1232 118.455 75.633C117.296 76.2818 116.416 77.255 115.767 78.5062L116.231 79.8965C116.462 79.5721 116.694 79.3404 116.972 79.1087L117.296 82.7697L118.548 81.0087L119.289 79.8965C119.336 80.1282 120.633 79.0623 120.633 79.3404C121.421 79.016 121.328 79.7574 122.348 79.3404C122.302 78.6452 122.209 78.0428 122.07 77.533L123.228 76.7452L120.865 75.4013Z" fill="#EA2100"/>
<path d="M120.123 91.0186C120.123 91.0186 123.507 87.2185 123.507 87.0795C123.553 86.9405 123.507 80.6843 123.507 80.6843L122.348 80.0818C122.348 79.6648 122.302 79.2477 122.255 78.8769L119.289 80.2672C119.382 80.8233 119.475 81.5648 119.475 82.4453C119.475 85.7356 118.779 87.821 117.296 88.6551C117.204 88.7015 117.065 88.7478 116.972 88.7942L117.621 90.9259C117.76 90.8796 117.899 90.7869 118.084 90.7405V90.8796L120.123 91.0186Z" fill="#EA2100"/>
<path d="M124.943 82.1673C124.943 84.5307 124.619 86.5698 123.924 88.2844C123.228 89.9991 122.209 91.2503 120.911 92.0381C120.17 92.5016 119.475 92.6406 118.918 92.5479C118.362 92.4089 117.945 92.0381 117.621 91.3893C117.621 91.7137 117.621 92.1308 117.574 92.6869C117.528 93.243 117.528 93.6138 117.482 93.7528L114.794 95.3284C114.794 94.1699 114.794 92.8723 114.794 91.5284V75.6794L117.574 74.0574L117.621 79.5258L117.574 81.8892L117.621 81.8429C118.223 79.6648 119.382 78.0428 121.05 77.116C122.302 76.3745 123.275 76.4672 123.97 77.3477C124.572 78.1818 124.943 79.8038 124.943 82.1673ZM122.07 83.8356C122.07 82.2136 121.884 81.1014 121.514 80.5453C121.143 79.9892 120.587 79.8965 119.845 80.3136C119.104 80.7307 118.501 81.5185 118.131 82.5843C117.76 83.6502 117.574 84.9941 117.574 86.5698C117.574 88.0991 117.76 89.1649 118.177 89.7674C118.548 90.3698 119.15 90.4625 119.892 90.0454C121.328 89.2113 122.07 87.1259 122.07 83.8356Z" fill="#A00400"/>
<path d="M38.8362 156.083L36.8898 149.919L28.7796 154.646L26.9258 163.034L22.4768 165.629L30.1236 132.588L35.4068 129.529L43.2853 153.534L38.8362 156.083ZM32.7188 135.461L32.6262 135.97C32.5335 136.527 32.3944 137.129 32.2554 137.824C32.1164 138.519 31.2822 142.458 29.7065 149.595L35.8239 146.027L33.6921 139.075L33.0432 136.712L32.7188 135.461Z" fill="#A00400"/>
<path d="M22.4305 165.676L18.0278 163.127L25.6746 130.039L30.0772 132.634L22.4305 165.676Z" fill="#EA2100"/>
<path d="M35.3605 129.529L30.9578 126.98L25.6746 130.039L30.0773 132.634L35.3605 129.529Z" fill="#FF4239"/>
<path d="M38.8362 156.083L34.4336 153.534L33.8311 151.727L36.8898 149.919L38.8362 156.083Z" fill="#EA2100"/>
<path d="M35.8703 146.027L32.1627 143.802L30.8651 144.497L29.7528 149.595L35.8703 146.027Z" fill="#FF4239"/>
<path d="M32.7188 135.461L35.8702 146.027L32.1627 143.802L31.5139 141.485L32.7188 135.461Z" fill="#EA2100"/>
<path d="M139.263 52.0912L136.344 50.4229C135.88 50.1448 135.232 50.1448 134.583 50.5619L55.7517 95.9772C54.2687 96.8577 53.0638 99.1748 53.0638 101.121L52.9711 163.868C52.9711 165.027 53.3882 165.861 54.037 166.139L56.864 167.715L59.3665 164.424L58.9031 164.054L134.49 120.492C135.973 119.612 137.178 117.295 137.178 115.348L137.224 54.64L139.263 52.0912ZM128.604 119.565L61.2203 158.4C60.6642 158.724 60.2007 158.4 60.2007 157.612V99.0821C60.2007 98.3406 60.6642 97.4601 61.2203 97.1357L128.651 58.3937C129.207 58.0693 129.531 58.3937 129.531 59.1352L129.624 117.573C129.624 118.36 129.16 119.241 128.604 119.565Z" fill="url(#paint0_linear)"/>
<path d="M140.376 53.9449C140.376 53.7595 140.329 53.5741 140.283 53.4351C140.329 53.5741 140.376 53.7595 140.376 53.9449Z" fill="url(#paint1_linear)"/>
<path d="M137.688 52.2765L58.8568 97.6918C57.3738 98.5723 56.1688 100.889 56.1688 102.836L56.1225 165.629C56.1225 167.622 57.3274 168.549 58.8104 167.668L137.641 122.253C139.124 121.373 140.329 119.056 140.329 117.109L140.376 54.3619C140.376 52.3692 139.171 51.4424 137.688 52.2765ZM132.775 119.38C132.775 120.121 132.312 121.002 131.756 121.326L64.3717 160.161C63.8156 160.485 63.3521 160.161 63.3521 159.373V100.843C63.3521 100.102 63.8156 99.2211 64.3717 98.8967L131.802 60.1547C132.358 59.8303 132.683 60.1547 132.683 60.8962L132.775 119.38Z" fill="#EBF3FF"/>
<path d="M59.3665 139.678C59.0885 139.817 58.9031 139.678 58.9031 139.307V128.787C58.9031 128.417 59.1348 128 59.3665 127.861C59.6446 127.722 59.83 127.861 59.83 128.231V138.751C59.8763 139.122 59.6446 139.492 59.3665 139.678Z" fill="url(#paint2_linear)"/>
<path d="M59.4129 126.424C59.1348 126.563 58.9494 126.424 58.9494 126.053C58.9494 125.682 59.1812 125.265 59.4129 125.126C59.6909 124.987 59.8763 125.126 59.8763 125.497C59.8763 125.822 59.6446 126.239 59.4129 126.424Z" fill="url(#paint3_linear)"/>
<mask id="mask0" mask-type="alpha" maskUnits="userSpaceOnUse" x="63" y="58" width="72" height="105">
<path d="M133.749 121.975L64.3717 161.968C63.7692 162.293 63.3058 161.968 63.3058 161.181L63.3521 100.889C63.3521 100.102 63.8156 99.2211 64.418 98.8504L133.795 58.8571C134.397 58.5327 134.861 58.8571 134.861 59.6449L134.814 119.936C134.814 120.724 134.351 121.651 133.749 121.975Z" fill="url(#paint4_linear)"/>
</mask>
<g mask="url(#mask0)">
<path d="M133.749 121.975L64.3717 161.968C63.7692 162.293 63.3058 161.968 63.3058 161.181L63.3521 100.889C63.3521 100.102 63.8156 99.2211 64.418 98.8504L133.795 58.8571C134.397 58.5327 134.861 58.8571 134.861 59.6449L134.814 119.936C134.814 120.724 134.351 121.651 133.749 121.975Z" fill="url(#paint5_linear)"/>
</g>
<path d="M136.9 92.8259L135.417 93.6601C134.907 93.9381 134.49 93.6137 134.49 92.9186V86.8014C134.49 86.1063 134.907 85.3185 135.463 84.9941L136.946 84.1599C137.456 83.8819 137.873 84.2063 137.873 84.9014V91.0186C137.873 91.76 137.456 92.5479 136.9 92.8259Z" fill="url(#paint6_linear)"/>
<path d="M137.178 84.1136C137.224 84.2526 137.224 84.3916 137.224 84.5307V90.6478C137.224 91.343 136.807 92.1308 136.251 92.4552L134.768 93.2893C134.675 93.3357 134.583 93.382 134.536 93.382C134.675 93.7528 135 93.8918 135.417 93.6601L136.9 92.8259C137.41 92.5479 137.827 91.7137 137.873 91.0186V84.9014C137.873 84.3453 137.549 84.0209 137.178 84.1136Z" fill="#07002B"/>
<path d="M59.7373 92.9186L58.6251 93.6138L57.4201 94.4943C57.4201 94.4016 57.6055 91.343 57.4665 84.299C57.3738 78.4599 52.6003 75.5403 52.415 75.4476L43.7023 70.4427C42.9608 70.1646 39.5777 68.4963 39.5777 63.3524V32.6275C39.5777 32.2568 39.3923 23.081 44.6755 19.9298L49.4489 17.0566L75.8186 1.53194C76.2821 1.20755 79.5261 -0.924188 82.3068 0.466076C84.624 1.62463 85.7826 4.82224 85.7826 9.91987L85.7362 23.3591L85.7826 35.3617L83.4654 36.6593L83.3264 23.3591L83.3727 9.91987C83.3727 5.8881 82.6312 3.29295 81.1945 2.55147C79.8042 1.85634 77.7187 2.96855 77.0699 3.43197L76.9772 3.47831L50.5612 19.0029L45.8341 21.8761C41.7095 24.3786 41.8949 32.4885 41.8949 32.5812V63.306C41.8949 67.2914 44.5365 68.2183 44.5828 68.2183L44.8146 68.311L53.6199 73.3622C53.898 73.5013 59.7373 77.0233 59.83 84.2063C59.9227 92.3162 59.7836 92.7796 59.7373 92.9186Z" fill="url(#paint7_linear)"/>
<path d="M83.6508 183.332L82.4922 181.339L134.351 151.31L134.444 151.263C135.046 150.893 136.066 150.244 136.112 149.688C136.158 149.178 135.463 148.436 134.258 147.695L128.882 144.219L116.462 137.129L116.323 136.805C116.277 136.758 113.079 130.224 108.723 127.443C104.737 124.895 101.169 127.397 101.169 127.397C100.798 127.675 100.288 127.675 99.9175 127.443L96.3027 125.312C95.7465 125.034 92.6878 123.412 92.5952 120.817C92.5488 119.056 93.7538 117.48 96.3027 116.043C98.7589 114.653 99.7321 114.143 99.8248 114.097L102.142 115.441C102.049 115.487 101.632 115.719 97.4149 118.082C95.7466 119.009 94.866 119.936 94.9124 120.724C94.9587 121.79 96.5807 122.856 97.3686 123.226L97.4613 123.273L100.52 125.08C102.003 124.246 105.803 122.763 110.02 125.451C114.377 128.231 117.575 133.978 118.316 135.414L130.226 142.227L135.649 145.702C137.734 147.046 138.707 148.483 138.568 149.966C138.383 151.912 136.066 153.024 135.51 153.349L83.6508 183.332Z" fill="url(#paint8_linear)"/>
<path d="M93.6611 180.042L93.1513 178.003H91.9927C90.6951 177.169 88.8413 176.659 86.7558 176.659C84.6704 176.659 82.8166 177.169 81.5189 178.003H80.3603L79.8042 180.042C79.7579 180.273 79.7115 180.459 79.7115 180.691C79.7115 182.915 82.8629 184.722 86.7095 184.722C90.556 184.722 93.7074 182.915 93.7074 180.691C93.7538 180.459 93.7537 180.273 93.6611 180.042Z" fill="url(#paint9_linear)"/>
<path d="M93.244 178.466C93.244 180.505 90.3706 182.173 86.8022 182.173C83.2337 182.173 80.3604 180.505 80.3604 178.466C80.3604 176.427 83.2337 174.759 86.8022 174.759C90.3706 174.759 93.244 176.427 93.244 178.466Z" fill="url(#paint10_linear)"/>
<path d="M90.0463 178.281C90.0463 179.254 88.5633 180.042 86.7558 180.042C84.9484 180.042 83.4654 179.254 83.4654 178.281C83.4654 177.308 84.9484 176.52 86.7558 176.52C88.5633 176.52 90.0463 177.308 90.0463 178.281Z" fill="url(#paint11_linear)"/>
<path d="M107.193 182.915C106.545 183.286 105.896 183.471 105.247 183.564C104.598 183.61 103.949 183.517 103.347 183.286L104.506 182.405C104.784 182.498 105.108 182.591 105.386 182.544C105.664 182.544 105.942 182.452 106.22 182.313C106.591 182.081 106.73 181.849 106.637 181.617C106.545 181.386 106.22 181.061 105.71 180.783L105.386 180.598L104.784 180.227C105.201 180.83 105.015 181.339 104.227 181.849C103.625 182.22 102.884 182.313 102.049 182.22C101.169 182.127 100.288 181.756 99.315 181.2C98.3418 180.644 97.7393 180.088 97.5539 179.578C97.3686 179.069 97.6003 178.652 98.2491 178.234C98.9906 177.817 99.8712 177.725 100.891 177.956H100.937C100.798 177.864 100.659 177.771 100.427 177.632C100.242 177.493 100.103 177.4 100.057 177.354L101.354 176.612C101.725 176.844 102.188 177.122 102.698 177.447L107.147 180.042C107.981 180.552 108.445 181.015 108.445 181.525C108.398 181.988 108.028 182.452 107.193 182.915ZM102.837 179.069C102.235 178.698 101.632 178.466 101.122 178.373C100.566 178.281 100.149 178.327 99.7785 178.559C99.037 178.976 99.3614 179.578 100.705 180.32C102.003 181.061 103.023 181.247 103.718 180.83C104.088 180.644 104.181 180.366 104.042 180.042C103.903 179.81 103.486 179.439 102.837 179.069Z" fill="url(#paint12_linear)"/>
<path d="M108.63 179.3L104.042 176.612C103.718 176.427 103.44 176.242 103.208 176.149C102.976 176.01 102.791 175.917 102.605 175.825L103.903 175.083C103.996 175.13 104.181 175.222 104.552 175.408C104.923 175.593 105.154 175.732 105.247 175.778C104.969 175.454 104.784 175.222 104.691 175.037C104.645 174.898 104.598 174.712 104.691 174.62C104.737 174.481 104.876 174.342 105.108 174.249C105.293 174.156 105.432 174.064 105.618 174.064L106.915 174.805C106.637 174.898 106.406 174.99 106.267 175.083C105.942 175.269 105.803 175.5 105.942 175.825C106.081 176.103 106.452 176.427 107.054 176.798L110.02 178.512L108.63 179.3Z" fill="url(#paint13_linear)"/>
<path d="M113.821 176.473C113.311 176.751 112.755 176.891 112.152 176.891C111.55 176.891 110.947 176.705 110.391 176.381C109.789 176.01 109.464 175.639 109.511 175.269C109.557 174.898 109.881 174.481 110.53 174.11L111.643 173.461L111.318 173.276C110.947 173.044 110.577 172.905 110.252 172.859C109.928 172.812 109.65 172.859 109.372 173.044C109.14 173.183 109.001 173.322 109.001 173.461C109.001 173.6 109.14 173.786 109.418 173.971L107.935 174.712C107.425 174.342 107.24 173.925 107.286 173.554C107.379 173.183 107.75 172.766 108.398 172.395C109.047 172.025 109.742 171.839 110.484 171.839C111.225 171.839 111.921 172.071 112.616 172.442L114.794 173.693C115.118 173.878 115.396 174.017 115.582 174.064C115.767 174.11 115.953 174.064 116.092 173.971C116.184 173.925 116.277 173.832 116.37 173.786L117.204 174.295C117.157 174.342 117.111 174.388 117.065 174.434C117.018 174.481 116.972 174.527 116.926 174.573C116.879 174.62 116.833 174.666 116.74 174.712C116.694 174.759 116.601 174.805 116.509 174.851C116.184 175.037 115.813 175.13 115.443 175.13C115.072 175.13 114.701 174.99 114.284 174.805H114.238C114.748 175.5 114.562 176.056 113.821 176.473ZM112.477 173.925L111.782 174.342C111.503 174.527 111.318 174.666 111.225 174.805C111.133 174.944 111.179 175.037 111.225 175.13C111.272 175.269 111.411 175.361 111.643 175.5C111.921 175.686 112.199 175.778 112.43 175.778C112.662 175.778 112.894 175.732 113.079 175.639C113.311 175.5 113.404 175.361 113.45 175.176C113.496 174.99 113.45 174.805 113.311 174.62C113.172 174.434 112.987 174.249 112.708 174.11L112.477 173.925Z" fill="url(#paint14_linear)"/>
<path d="M121.05 172.21L117.667 170.264C116.601 169.661 115.813 169.476 115.304 169.8C115.026 169.939 114.979 170.171 115.118 170.449C115.257 170.727 115.582 171.005 116.092 171.329L119.289 173.183L117.945 173.971L113.265 171.283C112.94 171.098 112.662 170.959 112.477 170.82C112.245 170.727 112.06 170.588 111.921 170.495L113.218 169.754C113.311 169.8 113.496 169.893 113.821 170.078C114.145 170.264 114.377 170.356 114.47 170.449C114.191 170.078 114.052 169.754 114.099 169.522C114.145 169.244 114.33 169.012 114.701 168.827C115.489 168.364 116.416 168.364 117.482 168.734H117.528C117.25 168.364 117.111 168.039 117.157 167.807C117.204 167.529 117.436 167.298 117.806 167.066C118.316 166.788 118.919 166.649 119.567 166.742C120.216 166.834 120.911 167.066 121.699 167.529L125.499 169.754L124.155 170.542L120.772 168.595C119.706 167.993 118.919 167.807 118.409 168.132C118.131 168.271 118.084 168.503 118.223 168.781C118.362 169.059 118.64 169.337 119.15 169.661L122.441 171.561L121.05 172.21Z" fill="url(#paint15_linear)"/>
<path d="M129.856 167.159L126.473 165.212C125.407 164.61 124.619 164.424 124.109 164.749C123.831 164.888 123.785 165.12 123.924 165.398C124.063 165.676 124.387 165.954 124.897 166.278L128.095 168.132L126.751 168.92L122.07 166.232C121.746 166.046 121.467 165.907 121.282 165.768C121.05 165.676 120.865 165.537 120.726 165.444L122.024 164.703C122.116 164.749 122.302 164.842 122.626 165.027C122.95 165.212 123.182 165.305 123.275 165.398C122.997 165.027 122.858 164.703 122.904 164.471C122.95 164.193 123.136 163.961 123.507 163.776C124.294 163.312 125.221 163.312 126.287 163.683H126.334C126.055 163.312 125.916 162.988 125.963 162.756C126.009 162.478 126.241 162.246 126.612 162.015C127.121 161.737 127.724 161.598 128.373 161.69C129.022 161.783 129.763 162.015 130.504 162.478L134.305 164.703L132.961 165.49L129.578 163.544C128.512 162.942 127.724 162.756 127.214 163.081C126.936 163.22 126.89 163.451 127.029 163.729C127.168 164.007 127.446 164.285 127.956 164.61L131.246 166.51L129.856 167.159Z" fill="url(#paint16_linear)"/>
<path d="M136.854 163.266C136.344 163.544 135.788 163.683 135.185 163.683C134.583 163.683 133.98 163.498 133.424 163.173C132.822 162.802 132.497 162.432 132.544 162.061C132.59 161.69 132.914 161.273 133.563 160.902L134.675 160.254L134.351 160.068C133.98 159.837 133.61 159.698 133.285 159.651C132.961 159.605 132.683 159.651 132.405 159.837C132.173 159.976 132.034 160.115 132.034 160.254C132.034 160.393 132.173 160.578 132.451 160.763L130.968 161.505C130.458 161.134 130.273 160.717 130.319 160.346C130.412 159.976 130.783 159.559 131.431 159.188C132.08 158.817 132.775 158.632 133.517 158.632C134.258 158.632 134.953 158.863 135.649 159.234L137.827 160.485C138.151 160.671 138.429 160.81 138.615 160.856C138.8 160.902 138.985 160.856 139.124 160.763C139.217 160.717 139.31 160.624 139.402 160.578L140.237 161.088C140.19 161.134 140.144 161.181 140.098 161.227C140.051 161.273 140.005 161.32 139.959 161.366C139.912 161.412 139.866 161.459 139.773 161.505C139.727 161.551 139.634 161.598 139.542 161.644C139.217 161.829 138.846 161.922 138.476 161.922C138.105 161.922 137.734 161.783 137.317 161.598H137.271C137.827 162.293 137.641 162.849 136.854 163.266ZM135.556 160.717L134.861 161.134C134.583 161.32 134.397 161.459 134.305 161.598C134.258 161.69 134.258 161.829 134.305 161.922C134.351 162.061 134.49 162.154 134.722 162.293C135 162.478 135.278 162.571 135.51 162.571C135.741 162.571 135.973 162.524 136.158 162.432C136.39 162.293 136.483 162.154 136.529 161.968C136.576 161.783 136.529 161.598 136.39 161.412C136.251 161.227 136.066 161.041 135.788 160.902L135.556 160.717Z" fill="url(#paint17_linear)"/>
<path d="M141.025 160.763L136.436 158.076C136.112 157.89 135.834 157.705 135.602 157.612C135.371 157.473 135.185 157.38 135 157.288L136.297 156.546C136.39 156.593 136.576 156.685 136.946 156.871C137.317 157.056 137.549 157.195 137.641 157.241C137.363 156.917 137.178 156.685 137.085 156.5C137.039 156.361 136.993 156.176 137.085 156.083C137.132 155.944 137.271 155.805 137.502 155.712C137.688 155.619 137.827 155.527 138.012 155.527L139.31 156.268C139.032 156.361 138.8 156.454 138.661 156.546C138.337 156.732 138.198 156.963 138.337 157.288C138.476 157.566 138.846 157.89 139.449 158.261L142.415 159.976L141.025 160.763Z" fill="url(#paint18_linear)"/>
<path d="M122.302 49.357C122.858 45.6496 122.302 44.8155 122.302 44.8155L118.594 49.7741C118.594 49.7741 119.567 51.3497 119.336 52.2302C119.197 52.6936 119.058 53.1107 118.872 53.4351C118.779 53.6205 118.826 53.7595 118.965 53.8985C119.011 53.8985 119.011 53.9449 119.057 53.9449L120.355 54.7327L121.931 51.9522L122.302 50.3765L121.931 50.6546C122.116 50.2838 122.209 49.8204 122.302 49.357Z" fill="url(#paint19_linear)"/>
<path d="M133.192 26.2786L131.941 25.5371C131.848 25.4908 131.478 25.3518 131.385 25.3054C131.061 25.2128 130.644 25.2591 130.18 25.4908L114.701 34.5275C113.543 35.2227 112.569 37.03 112.616 38.5593L112.662 51.118C112.662 52.0448 113.033 52.6936 113.543 52.879L114.979 53.6205L116.092 51.9058L130.273 43.6569C131.431 42.9618 132.405 41.1544 132.358 39.6252L132.312 27.5299L133.192 26.2786Z" fill="url(#paint20_linear)"/>
<path d="M131.802 44.5374L116.323 53.5741C115.165 54.2693 114.191 53.5278 114.191 51.9985L114.145 39.4398C114.145 37.8641 115.072 36.0568 116.231 35.408L131.756 26.325C132.914 25.6298 133.888 26.3713 133.888 27.9006L133.934 40.4593C133.934 42.0349 133.007 43.8886 131.802 44.5374Z" fill="#F8FEFF"/>
<path d="M121.004 50.2375C121.004 50.2375 121.467 51.7204 120.865 53.1107C120.68 53.5278 120.494 53.9449 120.309 54.2229C120.123 54.5473 120.494 54.8717 120.819 54.6863C121.931 53.9449 123.507 52.5546 123.831 50.2375C124.387 46.5301 123.831 45.696 123.831 45.696L121.004 50.2375Z" fill="#F8FEFF"/>
<path d="M120.911 41.5715C121.05 42.8228 120.309 44.4911 119.243 45.3252C118.177 46.113 117.157 45.7886 117.018 44.4911C116.879 43.2398 117.621 41.5715 118.687 40.7374C119.799 39.9495 120.772 40.3203 120.911 41.5715Z" fill="url(#paint21_linear)"/>
<path d="M126.148 38.6983C126.287 39.9496 125.546 41.6179 124.48 42.452C123.414 43.2398 122.394 42.9155 122.255 41.6179C122.116 40.3666 122.858 38.6983 123.924 37.8642C124.99 37.0763 125.963 37.4471 126.148 38.6983Z" fill="url(#paint22_linear)"/>
<path d="M131.2 35.8251C131.339 37.0763 130.597 38.7447 129.531 39.5788C128.465 40.3666 127.446 40.0422 127.307 38.7447C127.168 37.4934 127.909 35.8251 128.975 34.991C130.041 34.1568 131.014 34.5275 131.2 35.8251Z" fill="url(#paint23_linear)"/>
<path d="M87.9144 161.922C88.6559 157.103 87.9144 155.99 87.9144 155.99L83.0946 162.386C83.0946 162.386 84.3922 164.425 84.0678 165.629C83.8824 166.232 83.697 166.788 83.4653 167.205C83.3263 167.437 83.419 167.669 83.6043 167.761C83.6507 167.808 83.6507 167.808 83.697 167.808L85.4118 168.827L87.4973 165.212L87.9607 163.173L87.4973 163.544C87.6826 163.081 87.8217 162.525 87.9144 161.922Z" fill="url(#paint24_linear)"/>
<path d="M102.096 131.8L100.474 130.873C100.335 130.78 99.8711 130.641 99.7321 130.595C99.2686 130.456 98.7588 130.548 98.2027 130.873L77.9968 142.597C76.4674 143.478 75.2625 145.841 75.2625 147.88L75.3088 164.239C75.3088 165.444 75.7723 166.278 76.4674 166.556L78.3212 167.529L79.8042 165.305L98.2954 154.554C99.8248 153.673 101.03 151.31 101.03 149.271L100.983 133.514L102.096 131.8Z" fill="url(#paint25_linear)"/>
<path d="M100.335 155.62L80.1286 167.39C78.5992 168.271 77.3479 167.344 77.3479 165.305L77.3016 148.946C77.3016 146.907 78.5066 144.544 80.0359 143.663L100.242 131.892C101.771 131.012 103.022 131.939 103.022 133.978L103.069 150.337C103.069 152.376 101.864 154.739 100.335 155.62Z" fill="#F8FEFF"/>
<path d="M86.246 163.081C86.246 163.081 86.8485 164.981 86.0606 166.788C85.8289 167.344 85.5508 167.854 85.3191 168.271C85.0874 168.688 85.5509 169.105 85.9679 168.873C87.4046 167.947 89.4437 166.093 89.9072 163.081C90.6487 158.261 89.9072 157.149 89.9072 157.149L86.246 163.081Z" fill="#F8FEFF"/>
<path d="M86.1533 151.773C86.3387 153.395 85.3655 155.62 83.9751 156.639C82.5848 157.705 81.2872 157.195 81.0554 155.573C80.8701 153.951 81.8433 151.727 83.2336 150.707C84.6239 149.641 85.9216 150.105 86.1533 151.773Z" fill="url(#paint26_linear)"/>
<path d="M92.9195 147.973C93.1049 149.595 92.1317 151.819 90.7413 152.839C89.351 153.905 88.0534 153.395 87.8217 151.773C87.6363 150.151 88.6095 147.927 89.9999 146.907C91.4365 145.888 92.7341 146.351 92.9195 147.973Z" fill="url(#paint27_linear)"/>
<path d="M99.5004 144.219C99.6857 145.841 98.7125 148.066 97.3222 149.085C95.9319 150.151 94.6342 149.641 94.4025 148.019C94.2171 146.397 95.1903 144.173 96.5807 143.154C98.0173 142.088 99.315 142.597 99.5004 144.219Z" fill="url(#paint28_linear)"/>
<path d="M16.2204 67.0133C17.0082 61.8694 16.2204 60.6645 16.2204 60.6645L11.0762 67.5231C11.0762 67.5231 12.4665 69.7012 12.0958 70.9524C11.9104 71.6012 11.725 72.1573 11.447 72.6207C11.3079 72.8524 11.4006 73.0842 11.586 73.2232C11.6324 73.2695 11.6787 73.2695 11.6787 73.2695L13.4861 74.3354L15.7106 70.489L16.1741 68.3109L15.6643 68.728C15.9423 68.2646 16.1277 67.6621 16.2204 67.0133Z" fill="url(#paint29_linear)"/>
<path d="M31.3749 34.8519L29.6138 33.8324C29.4748 33.7397 29.0113 33.6007 28.826 33.5543C28.3625 33.4153 27.8064 33.4616 27.1576 33.8324L5.60765 46.3911C3.98561 47.3179 2.68799 49.8668 2.68799 52.0448L2.73434 69.5158C2.73434 70.8134 3.19778 71.6939 3.93928 71.972L5.93206 73.0378L7.50775 70.6744L27.2503 59.1815C28.8723 58.2547 30.1699 55.7059 30.1699 53.5278L30.1236 36.7056L31.3749 34.8519Z" fill="url(#paint30_linear)"/>
<path d="M29.4748 60.2937L7.92483 72.8525C6.30279 73.7793 4.95882 72.8061 4.95882 70.628L4.91248 53.157C4.91248 50.979 6.21011 48.4765 7.83215 47.5033L29.3821 34.9446C31.0041 34.0177 32.3481 34.9909 32.3481 37.169L32.3944 54.64C32.3944 56.8181 31.0968 59.3669 29.4748 60.2937Z" fill="#F8FEFF"/>
<path d="M14.413 68.2646C14.413 68.2646 15.0618 70.3036 14.1813 72.25C13.9032 72.8525 13.6252 73.3622 13.3935 73.8256C13.1617 74.2427 13.6715 74.7525 14.0886 74.4744C15.6643 73.4549 17.7961 71.5085 18.3059 68.3109C19.0937 63.167 18.3059 61.9621 18.3059 61.9621L14.413 68.2646Z" fill="#F8FEFF"/>
<path d="M14.3203 56.1693C14.552 57.9303 13.4861 60.2474 12.0031 61.406C10.5201 62.5182 9.1298 62.0084 8.89808 60.2474C8.66637 58.4864 9.73227 56.1693 11.2153 55.0107C12.6983 53.8985 14.0886 54.4083 14.3203 56.1693Z" fill="url(#paint31_linear)"/>
<path d="M21.55 52.1375C21.7817 53.8985 20.7158 56.2156 19.2328 57.3742C17.7498 58.4864 16.3594 57.9766 16.1277 56.2156C15.896 54.4546 16.9619 52.1375 18.4449 50.979C19.9279 49.8668 21.3183 50.3765 21.55 52.1375Z" fill="url(#paint32_linear)"/>
<path d="M28.5942 48.1521C28.8259 49.9131 27.76 52.2302 26.277 53.3888C24.794 54.501 23.4037 53.9912 23.172 52.2302C22.9403 50.4692 24.0062 48.1521 25.4892 46.9935C26.9722 45.8813 28.3625 46.3911 28.5942 48.1521Z" fill="url(#paint33_linear)"/>
<path d="M8.80533 123.226C8.80533 123.226 8.61996 123.226 8.57361 123.736C8.52727 124.246 8.29554 124.617 8.61994 124.895C8.9907 125.126 9.91758 125.358 10.2883 125.219C10.6591 125.126 10.8908 124.987 11.0298 124.941C11.1225 124.895 13.8105 123.551 13.8105 123.551C13.8105 123.551 13.9958 123.273 13.9495 123.087C13.7641 122.624 13.347 122.578 13.2543 122.531C13.1617 122.485 11.7713 122.624 11.4006 122.67C11.0298 122.717 9.91759 122.439 9.91759 122.439L8.80533 123.226Z" fill="#07000C"/>
<mask id="mask1" mask-type="alpha" maskUnits="userSpaceOnUse" x="8" y="122" width="6" height="4">
<path d="M8.48093 124.292C8.52728 124.385 8.57361 124.478 8.61996 124.57C8.85168 124.848 9.73222 124.941 10.0566 124.941C10.381 124.941 10.2884 124.663 10.6591 124.478C11.0299 124.339 11.3543 124.431 11.4469 124.431C11.586 124.431 13.5324 123.365 13.6715 123.273C13.8105 123.18 13.8105 122.902 13.8105 122.902C13.8568 122.948 13.8568 122.995 13.9032 123.087C13.9959 123.273 13.7641 123.551 13.7641 123.551C13.7641 123.551 11.1225 124.895 10.9835 124.941C10.8908 124.987 10.6591 125.126 10.242 125.219C9.87125 125.312 8.94438 125.126 8.57363 124.895C8.43459 124.709 8.43459 124.524 8.48093 124.292Z" fill="url(#paint34_linear)"/>
</mask>
<g mask="url(#mask1)">
<path d="M8.48093 124.292C8.52728 124.385 8.57361 124.478 8.61996 124.57C8.85168 124.848 9.73222 124.941 10.0566 124.941C10.381 124.941 10.2884 124.663 10.6591 124.478C11.0299 124.339 11.3543 124.431 11.4469 124.431C11.586 124.431 13.5324 123.365 13.6715 123.273C13.8105 123.18 13.8105 122.902 13.8105 122.902C13.8568 122.948 13.8568 122.995 13.9032 123.087C13.9959 123.273 13.7641 123.551 13.7641 123.551C13.7641 123.551 11.1225 124.895 10.9835 124.941C10.8908 124.987 10.6591 125.126 10.242 125.219C9.87125 125.312 8.94438 125.126 8.57363 124.895C8.43459 124.709 8.43459 124.524 8.48093 124.292Z" fill="url(#paint35_linear)"/>
</g>
<path d="M3.84695 121.512C3.84695 121.512 3.66157 121.512 3.61523 122.021C3.56888 122.531 3.33717 122.902 3.66157 123.18C4.03233 123.412 4.95921 123.643 5.32996 123.504C5.70071 123.412 5.93241 123.273 6.07145 123.226C6.16413 123.18 8.85208 121.836 8.85208 121.836C8.85208 121.836 9.03746 121.558 8.99112 121.373C8.80574 120.909 8.38865 120.863 8.29596 120.817C8.20327 120.77 6.81296 120.909 6.44221 120.956C6.07145 121.002 4.9592 120.724 4.9592 120.724L3.84695 121.512Z" fill="#07000C"/>
<mask id="mask2" mask-type="alpha" maskUnits="userSpaceOnUse" x="3" y="121" width="6" height="3">
<path d="M3.52209 122.578C3.56844 122.67 3.61479 122.763 3.66113 122.856C3.89285 123.134 4.72705 123.226 5.0978 123.226C5.42221 123.226 5.32951 122.948 5.70026 122.763C6.07102 122.624 6.39543 122.717 6.48812 122.717C6.62715 122.717 8.57359 121.651 8.71262 121.558C8.85166 121.465 8.85165 121.187 8.85165 121.187C8.89799 121.234 8.898 121.28 8.94434 121.373C9.03703 121.558 8.80532 121.836 8.80532 121.836C8.80532 121.836 6.16371 123.18 6.02468 123.226C5.88565 123.273 5.70027 123.412 5.28317 123.504C4.91242 123.597 3.98554 123.412 3.61479 123.18C3.42941 123.041 3.4294 122.856 3.52209 122.578Z" fill="url(#paint36_linear)"/>
</mask>
<g mask="url(#mask2)">
<path d="M3.52209 122.578C3.56844 122.67 3.61479 122.763 3.66113 122.856C3.89285 123.134 4.72705 123.226 5.0978 123.226C5.42221 123.226 5.32951 122.948 5.70026 122.763C6.07102 122.624 6.39543 122.717 6.48812 122.717C6.62715 122.717 8.57359 121.651 8.71262 121.558C8.85166 121.465 8.85165 121.187 8.85165 121.187C8.89799 121.234 8.898 121.28 8.94434 121.373C9.03703 121.558 8.80532 121.836 8.80532 121.836C8.80532 121.836 6.16371 123.18 6.02468 123.226C5.88565 123.273 5.70027 123.412 5.28317 123.504C4.91242 123.597 3.98554 123.412 3.61479 123.18C3.42941 123.041 3.4294 122.856 3.52209 122.578Z" fill="url(#paint37_linear)"/>
</g>
<path d="M8.94436 102.141L7.27598 101.168C7.22963 101.121 7.1833 101.121 7.13695 101.075H7.0906C6.90523 101.029 6.71985 101.029 6.53447 101.121L0.787837 104.411C0.278055 104.69 0 105.199 0 105.755V110.807C0 111.038 0.0926764 111.224 0.278052 111.316H0.324399L1.01956 111.78L2.08547 112.336L3.84653 109.694L6.76619 108.073C7.27597 107.794 7.55404 107.285 7.55404 106.729V104.18L8.94436 102.141Z" fill="#88AD00"/>
<path d="M2.7343 112.429L8.48094 109.185C8.99073 108.907 9.2688 108.397 9.2688 107.841V102.743C9.2688 102.233 8.71267 101.909 8.29557 102.187L2.54893 105.477C2.03915 105.755 1.76108 106.265 1.76108 106.821V111.873C1.76108 112.336 2.31721 112.66 2.7343 112.429Z" fill="#4F7000"/>
<path d="M3.10504 104.041C3.10504 104.041 3.0587 110.529 3.10504 111.734C3.15138 112.985 3.42945 116.09 3.42945 118.268C3.42945 120.446 3.3831 121.234 3.8002 121.512C4.21729 121.836 6.1174 121.465 6.39546 121.095C6.62718 120.724 6.4418 115.673 6.58083 114.699C6.71986 113.726 7.32234 109.926 7.32234 109.926L7.04427 105.385L3.10504 104.041Z" fill="#1A59C6"/>
<path d="M11.2616 105.755C11.2616 105.755 12.1884 112.938 12.1421 114.653C12.0957 116.321 11.6787 122.068 11.5396 122.578C11.4006 123.041 11.2616 123.365 10.6591 123.458C10.0566 123.551 9.50049 123.597 9.08339 123.458C8.6663 123.319 8.43459 122.995 8.48093 122.531C8.52727 122.114 8.99071 116.229 8.85167 115.302C8.71264 114.375 6.95159 110.297 6.71987 108.814C6.48815 107.285 6.4418 105.477 6.4418 105.477L11.2616 105.755Z" fill="#367EE8"/>
<path d="M11.6323 108.675C11.6323 108.675 10.8908 108.536 10.52 107.98C10.1493 107.47 9.73221 106.451 9.73221 106.451L11.2616 105.755L11.6323 108.675Z" fill="#0A41A3"/>
<path d="M3.19773 90.6479C3.19773 90.6479 1.11225 95.0504 0.741504 95.9772C0.417098 96.9041 0.417098 97.3211 0.741504 97.7846C1.06591 98.248 2.87332 101.029 2.87332 101.029L5.00514 98.387L5.56127 94.0772L4.5417 91.2967L3.19773 90.6479Z" fill="#1A59C6"/>
<path d="M13.1617 97.1358C13.1617 97.1358 12.6519 94.9114 12.1884 93.6601C11.725 92.4089 11.4006 92.1308 10.8908 91.8064C10.4274 91.482 9.8249 91.0186 9.8249 91.0186L5.23685 89.9527C5.23685 89.9527 3.56847 90.0454 3.19772 90.6942C2.59525 91.7137 2.27084 102.929 2.54891 103.716C2.82697 104.504 4.17094 105.663 6.53448 106.265C8.89802 106.868 11.2616 106.543 11.7714 106.172C12.2811 105.802 12.3738 101.816 12.0958 99.9163C11.8177 97.9699 13.1617 97.1358 13.1617 97.1358Z" fill="#8BA3EA"/>
<path d="M9.2688 90.7869C9.2688 90.7869 9.08343 90.2771 9.03708 89.4893C8.99074 88.7015 9.22245 87.5429 9.22245 87.5429L6.48817 87.1259C6.48817 87.1259 6.76623 87.6356 6.67354 88.6088C6.58085 89.582 5.93204 90.2771 5.93204 90.2771C5.93204 90.2771 7.36869 91.2503 7.73944 91.2967C8.1102 91.343 8.99073 91.2967 8.99073 91.2967L9.2688 90.7869Z" fill="#F4B489"/>
<path d="M10.0566 85.1795C10.0566 85.1795 10.7518 86.0137 10.6591 87.2185C10.5664 88.4234 10.103 89.2576 9.73223 89.3039C9.36147 89.3966 8.34191 89.1649 7.87847 88.6551C7.41503 88.1454 6.90524 86.1527 6.90524 86.1527L9.40781 84.0209L10.0566 85.1795Z" fill="#FCBF9D"/>
<path d="M9.96393 83.6502C10.4274 83.9283 10.9371 84.438 10.9371 84.9941C10.9371 85.5039 10.381 86.06 10.381 86.06C10.381 86.06 9.96392 85.4112 9.36145 85.1331C8.85167 84.9014 8.80533 85.3649 8.80533 85.3649L7.69307 83.9282C7.64673 83.9282 8.94437 83.0478 9.96393 83.6502Z" fill="#080714"/>
<path d="M8.61994 83.8819L9.17607 83.6039C9.17607 83.6039 8.1565 83.0941 7.22962 83.2795C6.30274 83.4648 6.02469 84.2063 6.02469 84.2063C6.02469 84.2063 5.28318 84.7624 5.19049 85.6893C5.09781 86.5698 5.46857 87.3112 6.02469 87.682C6.58082 88.0527 6.6735 88.2844 7.55403 88.0527C8.20285 87.9137 8.80532 87.0795 8.66628 86.4771C8.5736 85.8746 8.9907 86.1527 9.26876 85.6893C9.54683 85.2258 9.54683 84.6234 9.26876 84.2063C9.08339 83.7429 8.61994 83.8819 8.61994 83.8819Z" fill="#000007"/>
<path d="M10.1029 91.0186C9.91757 90.7405 9.63951 90.5088 9.50048 90.3698C9.40779 90.2771 9.26875 90.2308 9.12972 90.2771C8.85166 90.3698 8.38823 90.5088 7.87845 90.3698C7.13695 90.2308 6.6735 89.9527 6.39544 89.5357C6.11738 89.1186 5.1905 89.6283 5.28319 89.9064C5.32953 90.1844 5.70029 90.9259 6.71985 91.2967C7.8321 91.7137 8.71263 91.6674 9.36144 91.5284C9.63951 91.482 9.87122 91.4357 10.0103 91.3893C10.1493 91.343 10.1956 91.1576 10.1029 91.0186Z" fill="#1A59C6"/>
<path d="M16.9619 94.9113L17.5643 93.9382C17.5643 93.9382 18.1668 93.9845 18.3522 93.6601C18.5376 93.3357 18.862 92.8723 18.7229 92.4552C18.5839 92.0845 18.1668 91.7601 18.1668 91.7601C18.1668 91.7601 18.8156 90.3698 18.7693 90.2308C18.7229 90.0454 18.5376 90.0454 18.4449 90.1381C18.3522 90.2308 17.6107 91.4357 17.6107 91.4357C17.6107 91.4357 17.1472 91.5747 16.8692 92.3625C16.5911 93.1503 16.5911 93.243 16.5911 93.243L16.174 93.8455L16.9619 94.9113Z" fill="#FCBF9D"/>
<path d="M16.9155 95.6992L17.2399 95.0967L16.2204 93.7064L15.7569 94.4943L16.9155 95.6992Z" fill="#080714"/>
<path d="M16.9618 95.4675C17.0545 95.6065 17.0545 95.7919 17.0082 95.9309C16.4057 96.9504 14.0885 100.797 13.208 101.029C12.6055 101.168 11.2152 99.2675 10.52 97.3211C9.77854 95.4211 9.40779 94.2162 9.63951 93.2894C9.87123 92.3625 10.6591 91.5284 11.2152 91.9454C11.7713 92.3625 12.3275 93.0113 12.8372 95.1431C13.3007 97.2748 13.3007 97.2748 13.3007 97.2748C13.3007 97.2748 15.1081 94.8187 15.4325 94.4016C15.5252 94.3089 15.6179 94.2162 15.6642 94.1699C15.7569 94.0772 15.9423 94.0772 16.035 94.2162L16.9618 95.4675Z" fill="#1A59C6"/>
<path d="M17.2399 95.0967L17.379 94.9113C17.4253 94.8187 17.4253 94.726 17.379 94.6333L16.4984 93.4747C16.4521 93.3821 16.313 93.4284 16.2667 93.4747L16.174 93.7065L17.2399 95.0967Z" fill="#F5E6FF"/>
<path d="M8.29553 90.4625C8.24919 90.4625 8.20284 90.4625 8.15649 90.4162C8.57359 90.4625 8.898 90.3698 9.12972 90.2771C9.26875 90.2308 9.40779 90.2771 9.50048 90.3698C9.63951 90.5088 9.91757 90.7406 10.1029 91.0186C10.1956 91.1113 10.1493 91.2967 10.0566 91.343C9.91756 91.2967 8.99069 90.6015 8.29553 90.4625Z" fill="#FFE9F4"/>
<path d="M32.8578 108.119C32.8578 108.119 33.2286 108.768 33.1822 109.138C33.1359 109.509 33.1822 109.694 33.1822 109.694L32.3944 110.019L32.209 109.694L32.1163 110.158C32.1163 110.158 30.6333 111.27 29.9845 111.409C29.3357 111.548 28.2698 111.177 28.2698 110.992C28.2698 110.807 28.4088 110.297 28.8259 109.973C29.243 109.648 30.4479 108.119 30.4479 108.119H32.8578Z" fill="#07000C"/>
<path d="M30.3553 108.768L31.0041 108.953C31.0504 108.953 31.1431 108.953 31.1431 108.86C31.1431 108.814 31.1431 108.721 31.0504 108.721L30.4016 108.536C30.3552 108.536 30.2626 108.536 30.2626 108.629C30.2162 108.675 30.2626 108.721 30.3553 108.768Z" fill="#F6F9ED"/>
<path d="M30.0308 109.185L30.6796 109.37C30.726 109.37 30.8187 109.37 30.8187 109.277C30.8187 109.231 30.8187 109.138 30.726 109.138L30.0772 108.953C30.0308 108.953 29.9381 108.953 29.9381 109.046C29.9381 109.092 29.9845 109.138 30.0308 109.185Z" fill="#F6F9ED"/>
<path d="M28.6869 107.192C28.6869 107.192 29.0113 107.794 28.9649 108.119C28.9186 108.443 28.9649 108.629 28.9649 108.629L28.2234 108.907L28.038 108.629L27.9453 109.092C27.9453 109.092 26.5087 110.158 25.9062 110.251C25.3038 110.39 24.3305 110.019 24.3305 109.88C24.3305 109.741 24.4232 109.231 24.8403 108.907C25.2111 108.629 26.416 107.192 26.416 107.192H28.6869Z" fill="#07000C"/>
<path d="M26.3233 107.609L26.9258 107.748C26.9721 107.748 27.0648 107.748 27.0648 107.655C27.0648 107.609 27.0648 107.516 26.9721 107.516L26.3697 107.377C26.3233 107.377 26.2306 107.377 26.2306 107.47C26.2306 107.516 26.277 107.563 26.3233 107.609Z" fill="#F6F9ED"/>
<path d="M26.0916 107.98L26.6941 108.119C26.7404 108.119 26.8331 108.119 26.8331 108.026C26.8331 107.98 26.8331 107.887 26.7404 107.887L26.138 107.748C26.0916 107.748 25.9989 107.748 25.9989 107.841C25.9526 107.887 25.9989 107.933 26.0916 107.98Z" fill="#F6F9ED"/>
<path d="M28.5478 93.8455C28.5478 93.8455 28.7332 99.1748 28.6868 101.399C28.6405 103.624 28.8259 107.192 28.8259 107.192C28.8259 107.192 28.0844 107.748 27.0185 107.655C25.9526 107.563 25.9526 107.424 25.9526 107.424L25.4891 100.889C25.4891 100.889 25.2111 100.102 24.9793 96.4406C24.794 92.8259 24.9793 91.7601 24.9793 91.7601L26.416 88.9795L28.7332 92.8259L28.5478 93.8455Z" fill="#1A59C6"/>
<path d="M32.9505 93.0113C32.9505 93.0113 33.0895 100.333 32.9969 101.538C32.9042 102.697 32.9969 101.955 32.9969 101.955L33.1822 108.258C33.1822 108.258 32.4871 108.721 31.6065 108.768C30.7723 108.814 29.7528 108.165 29.7528 108.165C29.7528 108.165 29.2893 101.863 29.1967 101.538C29.1503 101.214 28.7332 97.2748 28.3625 94.726C27.8063 89.7674 32.9505 93.0113 32.9505 93.0113Z" fill="#367EE8"/>
<path d="M28.9186 94.1699C29.6137 94.3552 30.3089 94.3552 31.004 94.1699L33.553 93.5674C33.553 93.5674 33.831 93.6138 33.7383 92.5479C33.5993 91.5284 33.1359 85.2722 33.553 82.6307C33.97 79.9892 33.7383 78.3209 33.7383 78.3209C33.7383 78.3209 31.4211 76.7916 30.9113 76.8842C30.4016 76.9769 28.0844 76.2355 28.0844 76.2355L25.9062 76.6525C25.9062 76.6525 25.4428 76.7916 24.8867 77.533C24.3769 78.2745 23.7281 80.6843 23.7281 80.6843L24.4696 84.0209V87.0795C24.4696 87.0795 24.6086 89.8137 24.4696 90.9723C24.3305 92.0845 24.2842 92.7333 24.4696 92.9186C24.6549 93.104 25.9989 93.6601 26.3697 93.0113C26.7404 92.3625 26.6014 89.582 26.6014 89.582C26.6014 89.582 27.0648 93.5211 27.9453 93.8918C28.2698 93.9845 28.5942 94.0772 28.9186 94.1699Z" fill="#8BA3EA"/>
<path d="M28.2234 75.8184C28.2234 75.8184 28.3624 76.5135 28.1771 77.3476C27.9454 78.2282 27.5283 78.5989 27.5283 78.5989V79.4794L29.7528 78.0891L30.9114 76.6062C30.5406 75.8647 30.4016 74.1037 30.4016 74.1037L28.1307 75.2159L28.2234 75.8184Z" fill="#EFAE6F"/>
<path d="M29.0576 75.9574C29.0576 75.9574 28.1771 76.3745 27.8063 75.9574C27.4356 75.5403 26.9258 74.4745 27.0185 73.3159C27.1112 72.111 27.6673 71.3695 27.6673 71.3695L31.2358 72.4354L30.5406 74.4281V74.8915L29.0576 75.9574Z" fill="#EFAE6F"/>
<path d="M29.6601 71.0915C29.7528 70.8134 30.1235 70.6744 30.4016 70.8134C30.5869 70.9061 30.8187 71.0451 31.004 71.1842C31.3748 71.4622 31.9309 72.5281 31.7455 73.1769C31.5602 73.7793 31.3284 74.6135 30.9113 74.8915C30.4942 75.1696 30.2162 75.0769 30.2162 75.0769L30.3089 74.4281C30.3089 74.4281 30.7723 74.1501 30.726 73.733C30.6796 73.3159 30.3089 73.3159 30.3089 73.3159C30.3089 73.3159 30.3552 72.8525 30.1698 72.6671C29.9845 72.4817 29.2893 72.2037 29.2893 72.2037L29.6601 71.0915Z" fill="#F4DAA6"/>
<path d="M30.5869 71.6939C30.4479 71.0915 29.8454 70.3963 28.8722 70.3037C27.9453 70.2573 26.7867 71.2305 26.4623 71.972C26.0916 72.8061 26.555 73.3622 26.8794 73.5939C27.1575 73.8257 28.7332 73.3622 29.4747 72.8525C30.2625 72.3891 30.5869 71.6939 30.5869 71.6939Z" fill="#F4DAA6"/>
<path d="M26.5087 81.9355L26.6477 77.9501L27.7136 77.4867H26.694V76.9306C26.694 76.9306 27.1111 76.3281 27.7136 76.1891C28.1771 76.0964 28.3161 76.3281 28.3161 76.3281L28.2697 77.116L26.8794 82.1672L26.5087 81.9355Z" fill="#1A59C6"/>
<path d="M27.7136 83.4648L30.3552 78.1818L30.7723 76.3745C30.7723 76.2355 30.9577 76.1428 31.0504 76.2355C31.4675 76.5135 32.0236 77.1623 32.0236 77.5794C32.0236 78.1355 31.6992 79.0623 31.6992 79.0623L30.5406 78.3209L31.3284 79.5257L28.1771 83.5112H27.7136V83.4648Z" fill="#1A59C6"/>
<path d="M28.2234 77.5794L29.5674 78.2282L30.3552 78.1355L27.7136 83.4648L26.9721 82.2136L26.8331 82.1672L27.5283 79.5721L27.9917 77.9501L28.2234 77.5794Z" fill="#C4CACC"/>
<path d="M29.521 78.1355L29.0576 78.8306C28.9649 78.9696 28.8259 79.016 28.6405 79.016L28.5015 78.9696C28.3161 78.9233 28.1771 78.7379 28.1771 78.5526L28.2698 77.6721L29.521 78.1355Z" fill="#030E42"/>
<path d="M30.6797 76.8379C30.6797 76.8379 30.0308 77.6257 29.5674 77.7184C29.104 77.8111 28.6869 77.7647 28.6869 77.7647L28.8259 78.6916C28.8722 78.9233 29.104 79.1087 29.3357 79.1087L29.8918 79.155L30.3553 78.2282L30.6797 76.8379Z" fill="white"/>
<path d="M27.8063 78.6916L28.6405 77.7184L28.2234 77.0696L27.8063 78.6916Z" fill="white"/>
<path d="M28.2234 78.7843L26.9721 82.2136L27.4356 82.5843L27.8063 83.2795L28.7332 78.9696L28.2234 78.7843Z" fill="#030E42"/>
<path d="M26.6941 82.9087C26.7404 82.8624 26.7404 82.8624 26.6941 82.9087C26.7404 82.9087 26.8331 82.9551 26.6477 82.677C26.4624 82.399 26.5087 82.4453 26.5087 82.4453C26.5087 82.4453 25.8135 82.4453 25.7672 82.4453C25.7208 82.4453 25.4428 82.0746 25.4428 82.0746L26.4623 81.9819C26.4623 81.9819 26.7868 81.9819 27.0185 82.1672C27.2502 82.3526 27.8063 83.1404 27.8063 83.1404L28.2698 83.4648L27.9917 83.7429C27.5746 83.4185 27.0648 83.0941 26.6941 82.9087Z" fill="#EFAE6F"/>
<path d="M23.9134 84.1136L26.7404 85.6892C26.9258 85.7819 27.0648 85.6892 27.0648 85.4575L26.3233 80.8233C26.3233 80.5916 26.1843 80.3136 25.9989 80.2209L23.1719 78.6452C22.9866 78.5526 22.8475 78.6452 22.8475 78.877L23.589 83.5112C23.589 83.7429 23.7281 84.0209 23.9134 84.1136Z" fill="#030E42"/>
<path d="M23.4963 84.299L26.3233 85.8746C26.5087 85.9673 26.6477 85.8746 26.6477 85.6429L25.9062 81.0087C25.9062 80.777 25.7672 80.4989 25.5818 80.4062L22.7548 78.8306C22.5694 78.7379 22.4304 78.8306 22.4304 79.0623L23.1719 83.6965C23.1719 83.9282 23.3109 84.2063 23.4963 84.299Z" fill="white"/>
<path d="M24.2378 80.5916C24.4232 80.638 24.5622 80.5453 24.5159 80.3136L24.3305 79.2477C24.2842 79.016 24.0988 78.8306 23.9598 78.7379C23.7744 78.6916 23.6354 78.7843 23.6817 79.016L23.8671 80.0818C23.8671 80.3136 24.0525 80.5453 24.2378 80.5916Z" fill="#FF3222"/>
<path d="M25.0257 82.4916C25.0257 82.4916 25.7672 82.816 26.1379 82.9551C26.3696 83.0014 26.6014 82.9551 26.694 82.9087C27.0185 83.0941 27.5746 83.4648 27.9917 83.7429L27.2038 84.5307C27.2038 84.5307 26.7867 84.5307 26.7404 84.5307C26.7404 84.5307 25.4891 84.3917 25.1184 83.9746C24.7013 83.5575 24.8403 83.4185 24.6549 82.8624C24.5159 82.2136 25.0257 82.4916 25.0257 82.4916Z" fill="#EFAE6F"/>
<path d="M31.0504 85.7356C31.0504 84.9014 31.8383 80.5916 32.209 79.6648C32.6261 78.5989 33.0895 77.8111 33.5993 78.1355C34.1091 78.4599 34.5725 78.9696 34.6652 80.3599C34.7579 81.7502 32.9969 88.0527 32.4407 88.6088C31.8846 89.1186 31.5602 89.0722 31.0041 88.6551C30.4479 88.2381 27.1112 84.5307 27.1112 84.5307C27.1112 84.5307 27.2502 84.0673 27.6673 83.7429C28.1307 83.3721 28.3161 83.2331 28.3161 83.2331L31.0504 85.7356Z" fill="#1A59C6"/>
<path d="M23.4036 80.1745C23.589 80.2209 23.728 80.1282 23.6817 79.8965L23.4963 78.8306C23.45 78.5989 23.2646 78.4135 23.1256 78.3209C22.9402 78.2745 22.8012 78.3672 22.8475 78.5989L23.0329 79.6648C23.0329 79.8965 23.2183 80.1282 23.4036 80.1745Z" fill="#2773E2"/>
<path d="M27.899 87.4039H27.2502C27.1575 87.4039 27.1112 87.3112 27.1112 87.2649C27.1112 87.1722 27.2039 87.1259 27.2502 87.1259H27.899C27.9917 87.1259 28.0381 87.2185 28.0381 87.2649C28.0381 87.3576 27.9454 87.4039 27.899 87.4039Z" fill="#F8FEFF"/>
<path d="M27.899 88.7478H27.2502C27.1575 88.7478 27.1112 88.6551 27.1112 88.6088C27.1112 88.5161 27.2039 88.4698 27.2502 88.4698H27.899C27.9917 88.4698 28.0381 88.5625 28.0381 88.6088C28.0844 88.6551 27.9917 88.7478 27.899 88.7478Z" fill="#F8FEFF"/>
<path d="M72.0184 59.8766L71.833 62.3328C71.833 62.4254 71.9257 62.5645 72.0184 62.5181L73.9185 62.2864V59.6913L72.0184 59.8766Z" fill="#C17E4F"/>
<path d="M75.8186 61.6376L75.2625 59.4596L77.1626 58.6717L77.5797 61.0815L75.8186 61.6376Z" fill="#C17E4F"/>
<path d="M72.1111 61.8693C71.8794 61.8693 71.6477 62.0084 71.6013 62.2864C71.5086 62.6108 71.3696 63.0742 71.4159 63.3523C71.4623 63.7694 71.4159 63.9547 71.4159 63.9547L72.2501 64.2791L72.4355 63.9547L72.5282 64.5108C72.5282 64.5108 74.1039 65.7621 74.7527 65.9011C75.4479 66.0401 76.5602 65.6231 76.5602 65.4377C76.5602 65.2523 76.1894 64.6962 75.7723 64.3255C75.4479 64.0474 74.7064 62.7498 74.4283 62.1937C74.3356 62.0084 74.1502 61.9157 73.9649 61.9157H72.1111V61.8693Z" fill="#132751"/>
<path d="M74.2893 62.5645L73.5941 62.7498C73.5014 62.7498 73.4551 62.7498 73.4087 62.6572C73.4087 62.5645 73.4087 62.5181 73.5014 62.4718L74.1966 62.2864C74.2893 62.2864 74.3356 62.2864 74.382 62.3791C74.4283 62.4718 74.3819 62.5645 74.2893 62.5645Z" fill="#F6F9ED"/>
<path d="M74.6137 63.0279L73.9185 63.2133C73.8259 63.2133 73.7795 63.2133 73.7332 63.1206C73.7332 63.0279 73.7332 62.9816 73.8258 62.9352L74.521 62.7498C74.6137 62.7498 74.66 62.7498 74.7064 62.8425C74.7064 62.9352 74.66 62.9816 74.6137 63.0279Z" fill="#F6F9ED"/>
<path d="M76.004 61.4059C75.6796 61.4986 75.4479 61.7767 75.4015 62.1011C75.3552 62.3791 75.3552 62.7498 75.4479 62.8889C75.5869 63.2596 75.5869 63.445 75.5869 63.445L76.4211 63.584L76.5138 63.2133L76.7455 63.6767C76.7455 63.6767 78.4602 64.4645 79.1091 64.4182C79.7579 64.3718 80.6847 63.7694 80.6384 63.584C80.5921 63.3986 80.1286 62.9816 79.6652 62.7498C79.3408 62.6108 78.5529 61.7303 78.1358 61.2669C77.9504 61.0352 77.626 60.9425 77.348 61.0352L76.004 61.4059Z" fill="#132751"/>
<path d="M77.765 61.823L77.2089 62.1474C77.1625 62.1937 77.0699 62.1474 77.0699 62.101C77.0235 62.0547 77.0698 61.962 77.1162 61.962L77.6723 61.6376C77.7187 61.5913 77.8114 61.6376 77.8114 61.6839C77.8577 61.6839 77.8114 61.7766 77.765 61.823Z" fill="#F6F9ED"/>
<path d="M78.1358 62.101L77.5796 62.4254C77.5333 62.4718 77.4406 62.4254 77.4406 62.3791C77.3943 62.3327 77.4406 62.2401 77.487 62.2401L78.0431 61.9157C78.0894 61.8693 78.1821 61.9157 78.1821 61.962C78.1821 62.0083 78.1821 62.101 78.1358 62.101Z" fill="#F6F9ED"/>
<path d="M71.2306 30.7274C71.2306 30.7274 72.5282 31.1909 72.899 32.9982C73.0843 33.786 73.5941 37.1226 73.7332 38.6519C73.7795 39.3007 73.4088 40.5983 72.7599 40.7837L71.8794 41.2008L70.8598 35.269L71.2306 30.7274Z" fill="#8BA3EA"/>
<path d="M71.2306 41.7105C71.2306 41.7105 76.6064 45.2325 77.2089 46.5764C77.765 47.9204 77.2089 50.9789 77.2089 50.9789L77.4406 58.6717C77.4406 59.2278 77.1162 59.6913 76.5601 59.8303C75.865 60.0157 75.0308 60.1547 75.0771 59.923C75.1698 59.5522 74.2429 54.0839 74.2429 54.0839L69.7012 45.0471L68.6816 43.0544L71.2306 41.7105Z" fill="#1A59C6"/>
<path d="M64.3254 44.213C64.3254 44.213 63.9083 45.974 65.8084 47.2252C67.7085 48.4765 70.9989 49.5887 70.9989 49.5887C70.9989 49.5887 71.0452 55.7985 71.3696 57.5595C71.6013 58.7181 71.7404 59.4596 71.7867 59.8766C71.833 60.1547 72.0648 60.3864 72.3428 60.3864L73.3624 60.5254C73.7332 60.5718 74.0576 60.2937 74.1039 59.923L74.7527 51.3497C74.7527 51.3497 75.5406 48.8009 74.1966 47.3179C72.8526 45.835 69.2378 42.3593 69.2378 42.3593L64.3254 44.213Z" fill="#367EE8"/>
<path d="M64.7888 30.5884C64.7888 30.5884 62.5643 31.4226 62.3325 32.9519C62.1008 34.4811 62.8423 41.6642 63.1667 43.1471C63.4911 44.6301 63.5375 44.1667 64.3253 44.213C65.1132 44.2593 68.728 43.1935 69.7012 42.6837C70.6744 42.1276 71.0915 42.1276 71.1842 41.7105C71.2769 41.2934 70.9989 37.0763 70.9989 37.0763C70.9989 37.0763 71.7867 35.547 71.7404 34.2031C71.694 32.8592 71.3696 31.0982 71.3696 31.0982C71.3696 31.0982 71.0452 30.403 70.7671 30.125C70.4891 29.8469 69.9329 29.8933 69.9329 29.8933L64.7888 30.5884Z" fill="#201E30"/>
<path d="M69.1915 27.9469C69.1915 27.9469 68.6817 29.0128 69.0988 29.8006L69.7476 30.6347L68.4963 32.5348L64.6497 30.125C64.6497 30.125 65.901 30.3567 66.1791 29.8469C66.4572 29.3372 66.4572 26.3249 66.4572 26.3249L69.1915 27.9469Z" fill="#DDAE76"/>
<path d="M70.3037 24.3786C70.3037 24.3786 70.6745 25.5835 70.4427 26.4176C70.211 27.2518 69.4695 28.642 68.728 28.642C67.9865 28.642 66.2718 27.4835 66.2254 25.6761C66.1791 23.8688 68.2182 23.0346 68.2182 23.0346L70.072 24.1005L70.3037 24.3786Z" fill="#F2C38F"/>
<path d="M69.9329 23.4981C69.9329 23.4981 69.5159 25.1664 67.8475 25.4444C66.1791 25.7225 65.4839 25.2591 65.4839 25.2591L64.5107 24.8883C64.5107 24.8883 65.3913 22.2932 66.7352 21.9224C68.0792 21.5517 69.9793 22.7102 69.9793 22.7102L69.9329 23.4981Z" fill="#FFE7C0"/>
<path d="M70.5354 26.0005C70.5354 26.0005 71.5086 24.7956 71.4159 24.2395C71.3233 23.7298 71.0916 22.9419 70.5354 22.6175C69.9793 22.2468 69.6085 22.6639 69.5622 22.9419C69.4695 23.22 69.7939 23.8688 70.1647 24.6566C70.5354 25.3517 70.5354 26.0005 70.5354 26.0005Z" fill="#FFE7C0"/>
<path d="M69.2841 30.0323C69.2841 30.0323 69.7012 29.9396 69.9793 29.9396C70.2574 29.9396 68.867 33.6933 68.867 33.6933L65.0668 31.0518L64.4644 30.125C64.7888 30.1713 65.2986 30.5421 65.2986 30.5421L68.4499 32.5811L69.2841 30.0323Z" fill="#EAEFE1"/>
<path d="M66.7352 25.0273C66.7352 25.0273 66.5498 26.9737 66.9206 27.4835C67.2913 28.0396 67.6158 28.6884 67.1523 29.3372C66.6889 30.0323 66.1791 31.3762 65.0668 31.0518C63.9546 30.7274 63.4448 31.3299 62.796 32.2104C62.1472 33.0909 62.0545 32.164 62.3326 31.3299C62.6106 30.4957 63.1667 28.7811 64.6034 28.5493C65.5766 28.4103 65.5766 28.9664 65.5766 28.9664C65.5766 28.9664 64.3717 27.8542 64.279 26.7883C64.1863 25.7688 64.3253 24.2859 65.1132 23.4981C65.9474 22.7102 66.7352 25.0273 66.7352 25.0273Z" fill="#FFE7C0"/>
<path d="M69.0061 38.6983C68.9597 38.6983 68.867 38.6983 69.0987 38.4666C69.3305 38.2349 69.3305 38.2349 69.3305 38.2349C69.3305 38.2349 70.0256 38.4202 70.1183 38.4202C70.211 38.4202 70.5354 38.0958 70.5354 38.0958L69.5158 37.6788C69.5158 37.6788 69.1914 37.5861 68.9134 37.6788C68.6353 37.7715 67.8475 38.5129 67.8475 38.5129L67.2913 38.7446L67.4767 39.1154C67.9865 39.0227 68.6353 38.8373 69.0061 38.6983Z" fill="#EFC286"/>
<path d="M71.5086 40.83L68.1719 41.6642C67.9402 41.7105 67.8475 41.5715 67.8938 41.3398L70.1183 36.5666C70.1647 36.3349 70.3964 36.0568 70.6281 36.0105L73.9649 35.1763C74.1966 35.13 74.2893 35.269 74.2429 35.5007L72.0184 40.2739C71.9257 40.552 71.694 40.7837 71.5086 40.83Z" fill="#F0F4E4"/>
<path d="M71.8794 41.1544L68.5426 41.9886C68.3109 42.0349 68.2182 41.8959 68.2646 41.6642L70.4891 36.8909C70.5354 36.6592 70.7672 36.3812 70.9989 36.3348L74.3356 35.5007C74.5673 35.4543 74.66 35.5934 74.6137 35.8251L72.3892 40.5983C72.2965 40.8764 72.0648 41.1081 71.8794 41.1544Z" fill="#1A59C6"/>
<path d="M70.8598 38.7446C70.8598 38.7446 69.9793 38.8837 69.5622 38.8837C69.3305 38.8837 69.0988 38.7446 69.0061 38.6983C68.589 38.8373 67.9865 39.0227 67.4767 39.2081L68.0328 40.2739C68.0328 40.2739 68.4963 40.3666 68.4963 40.413C68.4963 40.413 69.7939 40.6447 70.3037 40.3203C70.8135 39.9959 70.7671 39.8105 71.1379 39.2544C71.4623 38.652 70.8598 38.7446 70.8598 38.7446Z" fill="#EFC286"/>
<path d="M63.7692 40.5056C64.0473 39.5788 64.557 34.7129 64.5107 33.647C64.418 32.3494 64.1863 31.3762 63.5838 31.5616C62.935 31.747 62.3325 32.164 61.8228 33.647C61.313 35.1299 61.1276 42.452 61.4983 43.1471C61.9154 43.8423 62.2398 43.8886 62.935 43.6105C63.6302 43.3325 68.1719 40.3203 68.1719 40.3203C68.1719 40.3203 68.1719 39.7641 67.8475 39.3007C67.5231 38.791 67.384 38.5593 67.384 38.5593L63.7692 40.5056Z" fill="#8BA3EA"/>
<path d="M73.9185 59.4596C73.2697 59.5522 71.6941 59.1815 71.6941 59.1815C71.7404 59.5059 71.7867 59.7376 71.8331 59.923C71.8794 60.201 72.1112 60.4327 72.3892 60.4327L73.4087 60.5718C73.7795 60.6181 74.1039 60.3401 74.1503 59.9693L74.1966 59.4132C74.1502 59.4132 74.0576 59.4596 73.9185 59.4596Z" fill="url(#paint38_linear)"/>
<path d="M74.9844 59.1815C75.0307 59.5986 75.0771 59.8766 75.0307 59.923C74.9844 60.1547 75.8186 59.9693 76.5138 59.8303C77.0235 59.6913 77.3943 59.2278 77.3943 58.6717V58.0229C77.1162 58.2547 76.8382 58.4864 76.5601 58.7181C76.004 59.2278 75.1234 59.1815 74.9844 59.1815Z" fill="url(#paint39_linear)"/>
<ellipse opacity="0.6" cx="71" cy="201.5" rx="50" ry="6.5" fill="#C4C4C4" fill-opacity="0.4"/>
<defs>
<linearGradient id="paint0_linear" x1="95.9532" y1="104.063" x2="94.563" y2="111.015" gradientUnits="userSpaceOnUse">
<stop stop-color="#5B4793"/>
<stop offset="1" stop-color="#390E4A"/>
</linearGradient>
<linearGradient id="paint1_linear" x1="138.836" y1="95.9588" x2="138.065" y2="117.792" gradientUnits="userSpaceOnUse">
<stop stop-color="#CDACEF"/>
<stop offset="1" stop-color="#2C224C"/>
</linearGradient>
<linearGradient id="paint2_linear" x1="58.903" y1="133.774" x2="59.8729" y2="133.774" gradientUnits="userSpaceOnUse">
<stop stop-color="#5B3893"/>
<stop offset="1" stop-color="#2C224C"/>
</linearGradient>
<linearGradient id="paint3_linear" x1="58.913" y1="125.761" x2="59.875" y2="125.761" gradientUnits="userSpaceOnUse">
<stop stop-color="#5B3893"/>
<stop offset="1" stop-color="#2C224C"/>
</linearGradient>
<linearGradient id="paint4_linear" x1="16.1419" y1="40.7898" x2="123.379" y2="130.816" gradientUnits="userSpaceOnUse">
<stop stop-color="white"/>
<stop offset="1"/>
</linearGradient>
<linearGradient id="paint5_linear" x1="16.1419" y1="40.7898" x2="123.379" y2="130.816" gradientUnits="userSpaceOnUse">
<stop stop-color="#FFD2FD"/>
<stop offset="1" stop-color="#D3095C"/>
</linearGradient>
<linearGradient id="paint6_linear" x1="135.763" y1="91.1326" x2="133.809" y2="100.905" gradientUnits="userSpaceOnUse">
<stop stop-color="#5B4793"/>
<stop offset="1" stop-color="#390E4A"/>
</linearGradient>
<linearGradient id="paint7_linear" x1="41.3638" y1="24.4447" x2="87.2445" y2="61.5035" gradientUnits="userSpaceOnUse">
<stop stop-color="#0092F4"/>
<stop offset="0.5161" stop-color="#004CA9"/>
<stop offset="1" stop-color="#001595"/>
</linearGradient>
<linearGradient id="paint8_linear" x1="104.678" y1="145.108" x2="137.351" y2="136.071" gradientUnits="userSpaceOnUse">
<stop stop-color="#0092F4"/>
<stop offset="0.5161" stop-color="#004CA9"/>
<stop offset="1" stop-color="#001595"/>
</linearGradient>
<linearGradient id="paint9_linear" x1="80.1645" y1="182.505" x2="93.4204" y2="178.839" gradientUnits="userSpaceOnUse">
<stop stop-color="#0092F4"/>
<stop offset="0.5161" stop-color="#004CA9"/>
<stop offset="1" stop-color="#001595"/>
</linearGradient>
<linearGradient id="paint10_linear" x1="82.4659" y1="178.477" x2="189.831" y2="178.477" gradientUnits="userSpaceOnUse">
<stop stop-color="white"/>
<stop offset="1"/>
</linearGradient>
<linearGradient id="paint11_linear" x1="83.678" y1="179.113" x2="89.8461" y2="177.406" gradientUnits="userSpaceOnUse">
<stop stop-color="#0092F4"/>
<stop offset="0.5161" stop-color="#004CA9"/>
<stop offset="1" stop-color="#001595"/>
</linearGradient>
<linearGradient id="paint12_linear" x1="97.7536" y1="181.13" x2="237.094" y2="154.868" gradientUnits="userSpaceOnUse">
<stop stop-color="#0092F4"/>
<stop offset="0.5161" stop-color="#004CA9"/>
<stop offset="1" stop-color="#001595"/>
</linearGradient>
<linearGradient id="paint13_linear" x1="97.2693" y1="178.561" x2="236.61" y2="152.298" gradientUnits="userSpaceOnUse">
<stop stop-color="#0092F4"/>
<stop offset="0.5161" stop-color="#004CA9"/>
<stop offset="1" stop-color="#001595"/>
</linearGradient>
<linearGradient id="paint14_linear" x1="96.9871" y1="177.063" x2="236.327" y2="150.801" gradientUnits="userSpaceOnUse">
<stop stop-color="#0092F4"/>
<stop offset="0.5161" stop-color="#004CA9"/>
<stop offset="1" stop-color="#001595"/>
</linearGradient>
<linearGradient id="paint15_linear" x1="96.4956" y1="174.455" x2="235.836" y2="148.193" gradientUnits="userSpaceOnUse">
<stop stop-color="#0092F4"/>
<stop offset="0.5161" stop-color="#004CA9"/>
<stop offset="1" stop-color="#001595"/>
</linearGradient>
<linearGradient id="paint16_linear" x1="95.8813" y1="171.196" x2="235.222" y2="144.934" gradientUnits="userSpaceOnUse">
<stop stop-color="#0092F4"/>
<stop offset="0.5161" stop-color="#004CA9"/>
<stop offset="1" stop-color="#001595"/>
</linearGradient>
<linearGradient id="paint17_linear" x1="95.3744" y1="168.506" x2="234.714" y2="142.244" gradientUnits="userSpaceOnUse">
<stop stop-color="#0092F4"/>
<stop offset="0.5161" stop-color="#004CA9"/>
<stop offset="1" stop-color="#001595"/>
</linearGradient>
<linearGradient id="paint18_linear" x1="95.0032" y1="166.539" x2="234.344" y2="140.276" gradientUnits="userSpaceOnUse">
<stop stop-color="#0092F4"/>
<stop offset="0.5161" stop-color="#004CA9"/>
<stop offset="1" stop-color="#001595"/>
</linearGradient>
<linearGradient id="paint19_linear" x1="118.484" y1="56.1547" x2="120.115" y2="51.3482" gradientUnits="userSpaceOnUse">
<stop stop-color="#0092F4"/>
<stop offset="0.5161" stop-color="#004CA9"/>
<stop offset="1" stop-color="#001095"/>
</linearGradient>
<linearGradient id="paint20_linear" x1="123.286" y1="36.3078" x2="121.254" y2="43.3626" gradientUnits="userSpaceOnUse">
<stop stop-color="#0092F4"/>
<stop offset="0.5161" stop-color="#004CA9"/>
<stop offset="1" stop-color="#001595"/>
</linearGradient>
<linearGradient id="paint21_linear" x1="118.061" y1="45.7804" x2="122.567" y2="32.4989" gradientUnits="userSpaceOnUse">
<stop stop-color="#0092F4"/>
<stop offset="0.5161" stop-color="#004CA9"/>
<stop offset="1" stop-color="#003895"/>
</linearGradient>
<linearGradient id="paint22_linear" x1="123.258" y1="42.8878" x2="127.953" y2="29.047" gradientUnits="userSpaceOnUse">
<stop stop-color="#0092F4"/>
<stop offset="0.5161" stop-color="#004CA9"/>
<stop offset="1" stop-color="#003895"/>
</linearGradient>
<linearGradient id="paint23_linear" x1="128.31" y1="40.0049" x2="133.12" y2="25.8279" gradientUnits="userSpaceOnUse">
<stop stop-color="#0092F4"/>
<stop offset="0.5161" stop-color="#004CA9"/>
<stop offset="1" stop-color="#003895"/>
</linearGradient>
<linearGradient id="paint24_linear" x1="82.9548" y1="170.745" x2="85.0794" y2="164.483" gradientUnits="userSpaceOnUse">
<stop stop-color="#0092F4"/>
<stop offset="0.5161" stop-color="#004CA9"/>
<stop offset="1" stop-color="#001095"/>
</linearGradient>
<linearGradient id="paint25_linear" x1="89.2111" y1="144.888" x2="86.5633" y2="154.079" gradientUnits="userSpaceOnUse">
<stop stop-color="#0092F4"/>
<stop offset="0.5161" stop-color="#004CA9"/>
<stop offset="1" stop-color="#001595"/>
</linearGradient>
<linearGradient id="paint26_linear" x1="82.4041" y1="157.229" x2="88.2746" y2="139.926" gradientUnits="userSpaceOnUse">
<stop stop-color="#0092F4"/>
<stop offset="0.5161" stop-color="#004CA9"/>
<stop offset="1" stop-color="#003895"/>
</linearGradient>
<linearGradient id="paint27_linear" x1="89.1739" y1="153.46" x2="95.2917" y2="135.428" gradientUnits="userSpaceOnUse">
<stop stop-color="#0092F4"/>
<stop offset="0.5161" stop-color="#004CA9"/>
<stop offset="1" stop-color="#003895"/>
</linearGradient>
<linearGradient id="paint28_linear" x1="95.7566" y1="149.705" x2="102.023" y2="131.234" gradientUnits="userSpaceOnUse">
<stop stop-color="#0092F4"/>
<stop offset="0.5161" stop-color="#004CA9"/>
<stop offset="1" stop-color="#003895"/>
</linearGradient>
<linearGradient id="paint29_linear" x1="10.9159" y1="76.4538" x2="13.1848" y2="69.7662" gradientUnits="userSpaceOnUse">
<stop stop-color="#0092F4"/>
<stop offset="0.5161" stop-color="#004CA9"/>
<stop offset="1" stop-color="#001095"/>
</linearGradient>
<linearGradient id="paint30_linear" x1="17.5971" y1="48.8397" x2="14.7694" y2="58.6554" gradientUnits="userSpaceOnUse">
<stop stop-color="#0092F4"/>
<stop offset="0.5161" stop-color="#004CA9"/>
<stop offset="1" stop-color="#001595"/>
</linearGradient>
<linearGradient id="paint31_linear" x1="10.3277" y1="62.0193" x2="16.5972" y2="43.5402" gradientUnits="userSpaceOnUse">
<stop stop-color="#0092F4"/>
<stop offset="0.5161" stop-color="#004CA9"/>
<stop offset="1" stop-color="#003895"/>
</linearGradient>
<linearGradient id="paint32_linear" x1="17.5574" y1="57.9947" x2="24.091" y2="38.7373" gradientUnits="userSpaceOnUse">
<stop stop-color="#0092F4"/>
<stop offset="0.5161" stop-color="#004CA9"/>
<stop offset="1" stop-color="#003895"/>
</linearGradient>
<linearGradient id="paint33_linear" x1="24.5874" y1="53.9836" x2="31.2796" y2="34.2583" gradientUnits="userSpaceOnUse">
<stop stop-color="#0092F4"/>
<stop offset="0.5161" stop-color="#004CA9"/>
<stop offset="1" stop-color="#003895"/>
</linearGradient>
<linearGradient id="paint34_linear" x1="17.7399" y1="120.456" x2="0.790395" y2="130.588" gradientUnits="userSpaceOnUse">
<stop/>
<stop offset="1" stop-color="white"/>
</linearGradient>
<linearGradient id="paint35_linear" x1="17.7399" y1="120.456" x2="0.790395" y2="130.588" gradientUnits="userSpaceOnUse">
<stop stop-color="#FFD9EA"/>
<stop offset="1" stop-color="white"/>
</linearGradient>
<linearGradient id="paint36_linear" x1="12.7541" y1="118.771" x2="-4.19542" y2="128.903" gradientUnits="userSpaceOnUse">
<stop/>
<stop offset="1" stop-color="white"/>
</linearGradient>
<linearGradient id="paint37_linear" x1="12.7541" y1="118.771" x2="-4.19542" y2="128.903" gradientUnits="userSpaceOnUse">
<stop stop-color="#FFD9EA"/>
<stop offset="1" stop-color="white"/>
</linearGradient>
<linearGradient id="paint38_linear" x1="71.7188" y1="59.8734" x2="79.4794" y2="59.8734" gradientUnits="userSpaceOnUse">
<stop stop-color="white"/>
<stop offset="1" stop-color="#AD7B7B"/>
</linearGradient>
<linearGradient id="paint39_linear" x1="74.9819" y1="59.0161" x2="82.1693" y2="59.0161" gradientUnits="userSpaceOnUse">
<stop stop-color="white"/>
<stop offset="1" stop-color="#AD7B7B"/>
</linearGradient>
</defs>
</svg>
