<svg width="60" height="60" viewBox="0 0 60 60" fill="none" xmlns="http://www.w3.org/2000/svg">
<path d="M5.9172 54.0103L0.175822 21.4138C0.120384 21.0992 0.0858257 20.7812 0.0723738 20.4621C-0.0129514 16.7665 2.64066 13.5742 6.28962 12.9828L17.3689 11.0276L17.0689 54.0103H5.9172Z" fill="#35495E"/>
<path d="M48.5586 52.5828C48.3665 53.3804 47.7212 53.9891 46.9138 54.1345L14.3069 59.8862C12.2516 60.245 10.1414 59.7014 8.51539 58.3942C6.88935 57.087 5.90498 55.1429 5.81375 53.0586C5.73227 49.5253 8.1649 46.4292 11.6172 45.6724L20.7517 48.2379H20.7413L12.5172 49.6966C11.6 49.8578 10.8033 50.4217 10.3465 51.2333C9.88962 52.0448 9.82066 53.0184 10.1586 53.8862C10.7437 55.2839 12.2298 56.0788 13.7172 55.7897L38.6379 51.3931L48.5586 52.5828Z" fill="#2C3E50"/>
<path d="M20.7413 48.2379L12.5172 49.6965C11.5999 49.8578 10.8033 50.4217 10.3464 51.2332C9.88959 52.0448 9.82063 53.0184 10.1586 53.8862C10.7437 55.2839 12.2298 56.0788 13.7172 55.7896L38.6379 51.3931L20.7413 48.2379Z" fill="#F9EAB0"/>
<path d="M13.2682 34.3148L19.0168 1.71412C19.2226 0.593522 20.2904 -0.153956 21.4137 0.0361909L53.7692 5.74136C57.4208 6.33326 60.0765 9.52758 59.9917 13.2258C59.9776 13.5436 59.943 13.8601 59.8882 14.1734L54.1396 46.7741L13.2682 34.3148Z" fill="#E64C3C"/>
<path d="M47.0048 10.8352C46.9441 10.8351 46.8836 10.83 46.8238 10.8197L23.3917 6.68793C22.8629 6.55752 22.5258 6.03944 22.6208 5.50314C22.7157 4.96685 23.2103 4.59605 23.7517 4.65517L47.1827 8.78173C47.7112 8.8743 48.0812 9.3555 48.0348 9.89C47.9885 10.4245 47.5413 10.8349 47.0048 10.8352Z" fill="#3F5C6C"/>
<path d="M42.031 15.2069C41.9703 15.207 41.9097 15.2014 41.85 15.1903L26.5686 12.4996C26.0188 12.3881 25.6581 11.8587 25.7554 11.3062C25.8528 10.7538 26.3728 10.3796 26.9276 10.4627L42.21 13.1524C42.7415 13.2422 43.115 13.7251 43.0682 14.2622C43.0214 14.7992 42.5701 15.2103 42.031 15.2069Z" fill="#3F5C6C"/>
<path d="M44.1908 19.8273L22.7925 16.0473C22.2297 15.9479 21.6929 16.3235 21.5935 16.8863L19.7935 27.0759C19.6941 27.6387 20.0697 28.1755 20.6325 28.2749L42.0308 32.0549C42.5935 32.1543 43.1303 31.7787 43.2297 31.2159L45.0297 21.0263C45.1292 20.4635 44.7535 19.9267 44.1908 19.8273Z" fill="#ECF0F1"/>
<path d="M59.9896 13.2207C59.9773 13.5399 59.9427 13.8579 59.8862 14.1724L54.1345 46.7689L46.1586 44.3379L50.7827 18.1241L51.8793 11.9379L52.9965 5.60687L53.7724 5.74136C57.4197 6.33571 60.0718 9.52618 59.9896 13.2207Z" fill="#C03A2B"/>
<path d="M48.0207 38.3379L15.662 32.6379C15.5425 32.6173 15.4213 32.6069 15.3 32.6069C14.2278 32.6096 13.3353 33.431 13.2438 34.4993C13.1523 35.5676 13.8921 36.5288 14.9482 36.7138L47.5448 42.4552C48.4612 42.6211 49.2554 43.1882 49.7099 44.0011C50.1644 44.814 50.2316 45.7875 49.8931 46.6552C49.3111 48.0498 47.8273 48.8415 46.3448 48.5483L13.8724 42.8276C13.7528 42.807 13.6317 42.7966 13.5103 42.7965C12.4361 42.7939 11.5386 43.6137 11.4443 44.6838C11.3499 45.7538 12.0902 46.7181 13.1482 46.9034L45.7551 52.6448C47.8089 53.0048 49.9182 52.4631 51.5442 51.1579C53.1702 49.8527 54.1555 47.9106 54.2482 45.8276C54.3294 42.1277 51.6732 38.9332 48.0207 38.3379Z" fill="#802F34"/>
<path d="M49.8931 46.6552C49.3111 48.0498 47.8273 48.8415 46.3448 48.5483L13.8724 42.8276L14.9482 36.7138L47.5448 42.4552C48.4612 42.6211 49.2554 43.1882 49.7099 44.0011C50.1644 44.814 50.2316 45.7876 49.8931 46.6552Z" fill="#F9EAB0"/>
</svg>
