<svg width="30" height="31" viewBox="0 0 30 31" fill="none" xmlns="http://www.w3.org/2000/svg">
<path d="M13.8281 1.14552C13.6176 0.96785 13.3745 0.833989 13.1129 0.751603C12.8512 0.669217 12.576 0.639925 12.3032 0.665406C12.0303 0.690886 11.7651 0.770639 11.5227 0.900094C11.2803 1.02955 11.0655 1.20617 10.8906 1.41983L0.473934 14.0801C0.167513 14.4577 0 14.9313 0 15.42C0 15.9088 0.167513 16.3823 0.473934 16.7599L10.5364 29.4202C10.7325 29.665 10.9803 29.8622 11.2615 29.9973C11.5427 30.1324 11.8502 30.202 12.1614 30.2009C12.5557 30.2023 12.9422 30.0903 13.2761 29.878C13.61 29.6657 13.8776 29.3619 14.0478 29.0017C14.218 28.6415 14.2838 28.2398 14.2375 27.8433C14.1912 27.4467 14.0348 27.0716 13.7864 26.7615L4.7656 15.4306L14.0989 4.09959C14.4467 3.67019 14.6134 3.11923 14.5627 2.56621C14.512 2.01319 14.248 1.50272 13.8281 1.14552V1.14552Z" fill="#2CDD9B"/>
<path d="M19.3489 15.4305L28.6823 4.09958C29.0359 3.66868 29.206 3.11314 29.1552 2.55519C29.1044 1.99724 28.8369 1.48258 28.4114 1.12443C27.986 0.76627 27.4375 0.593961 26.8866 0.645403C26.3357 0.696845 25.8275 0.967825 25.4739 1.39873L15.0573 14.059C14.7509 14.4365 14.5833 14.9101 14.5833 15.3988C14.5833 15.8876 14.7509 16.3612 15.0573 16.7387L25.1198 29.399C25.3158 29.6438 25.5636 29.841 25.8448 29.9761C26.126 30.1112 26.4335 30.1807 26.7448 30.1797C27.139 30.181 27.5255 30.0691 27.8594 29.8568C28.1933 29.6445 28.4609 29.3406 28.6311 28.9805C28.8013 28.6203 28.8671 28.2186 28.8208 27.822C28.7745 27.4255 28.6181 27.0504 28.3698 26.7403L19.3489 15.4305Z" fill="#2CDD9B"/>
</svg>
