<svg width="284" height="49" viewBox="0 0 284 49" fill="none" xmlns="http://www.w3.org/2000/svg">
<g clip-path="url(#clip0)">
<path d="M253.966 19.5924C252.544 19.6952 251.135 19.9381 249.759 20.3178C249.556 20.372 249.34 20.3351 249.164 20.2166L245.908 17.9924V22.9249C245.908 23.1075 245.843 23.2844 245.725 23.4216C241.728 28.09 242.181 35.1946 246.738 39.2898C251.296 43.3853 258.231 42.9206 262.229 38.2522C266.227 33.5838 265.773 26.4791 261.216 22.3837C259.211 20.5819 256.634 19.5895 253.966 19.5924ZM253.966 40.6033C248.707 40.6033 244.443 36.2357 244.443 30.8483C244.443 25.4605 248.707 21.093 253.966 21.093C259.226 21.093 263.489 25.4605 263.489 30.8483C263.483 36.2332 259.223 40.5972 253.966 40.6033Z" fill="black"/>
<path d="M256.164 30.8482C256.164 32.0915 255.18 33.0993 253.966 33.0993C252.753 33.0993 251.769 32.0915 251.769 30.8482C251.769 29.605 252.753 28.5969 253.966 28.5969C255.18 28.5969 256.164 29.605 256.164 30.8482Z" fill="black"/>
<path d="M253.966 22.5938C249.516 22.5938 245.908 26.2894 245.908 30.8482C245.908 35.4067 249.516 39.1023 253.966 39.1023C258.416 39.1023 262.024 35.4067 262.024 30.8482C262.019 26.2916 258.414 22.5993 253.966 22.5938ZM253.966 34.5999C251.943 34.5999 250.304 32.9201 250.304 30.8482C250.304 28.776 251.943 27.0962 253.966 27.0962C255.989 27.0962 257.629 28.776 257.629 30.8482C257.626 32.9192 255.988 34.5976 253.966 34.5999Z" fill="black"/>
<path d="M279.223 6.08505H273.744V7.58597H280.18C279.915 7.05149 279.594 6.5484 279.223 6.08505Z" fill="black"/>
<path d="M273.744 3.12198V4.58444H277.63C276.483 3.75612 275.143 3.25175 273.744 3.12198Z" fill="black"/>
<path d="M273.012 0.0820389C266.943 0.0820389 262.024 5.12151 262.024 11.3379C262.024 17.5544 266.943 22.5939 273.012 22.5939C274.433 22.4907 275.842 22.2478 277.219 21.8681C277.28 21.8517 277.343 21.8434 277.407 21.8434C277.551 21.8437 277.693 21.8876 277.814 21.9693L281.07 24.1938V19.2613C281.07 19.0784 281.135 18.9018 281.253 18.7647C285.264 14.1097 284.832 7.00535 280.288 2.8961C278.279 1.07955 275.691 0.0788346 273.012 0.0820389ZM280.088 17.8431C280.076 17.8565 280.065 17.871 280.052 17.8835C276.549 21.8668 270.557 22.1863 266.668 18.5974C266.424 18.3718 266.191 18.1337 265.971 17.8835C265.958 17.871 265.948 17.8565 265.935 17.8431C262.418 13.8498 262.726 7.69108 266.624 4.08715C270.522 0.483223 276.534 0.798851 280.052 4.79211C280.065 4.80493 280.076 4.81934 280.088 4.8328C280.908 5.76719 281.544 6.85475 281.961 8.03619C281.961 8.04356 281.966 8.05125 281.969 8.05958C283.162 11.4257 282.438 15.1915 280.088 17.8431Z" fill="black"/>
<path d="M273.744 9.08685V10.5874H281.032C280.986 10.0796 280.894 9.57712 280.757 9.08685H273.744Z" fill="black"/>
<path d="M265.266 13.589H280.758C280.895 13.0987 280.986 12.5963 281.032 12.0884H264.99C265.036 12.5963 265.129 13.0987 265.266 13.589Z" fill="black"/>
<path d="M273.012 19.5923C274.666 19.5926 276.279 19.0684 277.63 18.0914H268.397C269.747 19.0674 271.359 19.5916 273.012 19.5923Z" fill="black"/>
<path d="M272.279 3.12198C268.412 3.48824 265.349 6.62593 264.991 10.5875H272.279V3.12198ZM267.884 9.08687H266.419V7.58595H267.884V9.08687ZM270.814 9.08687H269.349V7.58595H270.814V9.08687ZM270.814 6.08504H269.349V4.58444H270.814V6.08504Z" fill="black"/>
<path d="M266.801 16.5905H279.223C279.594 16.1275 279.915 15.6241 280.18 15.0899H265.843C266.109 15.6241 266.429 16.1275 266.801 16.5905Z" fill="black"/>
<path d="M250.084 11.9381L248.866 11.1053C248.585 11.5359 248.318 11.9862 248.073 12.4431L249.358 13.1657C249.584 12.7472 249.829 12.3335 250.084 11.9381Z" fill="black"/>
<path d="M258.926 5.26633L258.508 3.82629C258.016 3.97658 257.529 4.14609 257.062 4.33386L257.597 5.7316C258.027 5.55985 258.474 5.40315 258.926 5.26633Z" fill="black"/>
<path d="M253.933 7.80414L253.063 6.5961C252.656 6.90468 252.257 7.23537 251.874 7.57984L252.842 8.70552C253.194 8.38957 253.561 8.08644 253.933 7.80414Z" fill="black"/>
<path d="M277.009 30.0895L278.237 30.9075C278.515 30.4676 278.777 30.0129 279.013 29.5566L277.72 28.8519C277.504 29.2723 277.264 29.6863 277.009 30.0895Z" fill="black"/>
<path d="M268.251 36.8753L268.681 38.3092C269.167 38.1593 269.652 37.9792 270.121 37.784L269.569 36.3943C269.14 36.5722 268.696 36.7343 268.251 36.8753Z" fill="black"/>
<path d="M273.212 34.2731L274.096 35.4689C274.503 35.1546 274.902 34.8184 275.273 34.4701L274.29 33.3582C273.946 33.677 273.584 33.9847 273.212 34.2731Z" fill="black"/>
</g>
<path d="M5.5 29.008H0.088V27.6H12.54V29.008H7.128V43H5.5V29.008ZM28.0108 27.6V43H26.4048V35.894H16.7688V43H15.1408V27.6H16.7688V34.464H26.4048V27.6H28.0108ZM43.9273 41.592V43H33.0373V27.6H43.5973V29.008H34.6653V34.486H42.6293V35.872H34.6653V41.592H43.9273ZM53.5119 27.6H55.1399V41.592H63.7639V43H53.5119V27.6ZM76.168 38.886H67.588L65.74 43H64.046L71.086 27.6H72.692L79.732 43H78.016L76.168 38.886ZM75.574 37.566L71.878 29.294L68.182 37.566H75.574ZM95.1495 27.6V43H93.8075L83.9075 30.504V43H82.2795V27.6H83.6215L93.5435 40.096V27.6H95.1495ZM111.022 35.3H112.584V41.174C111.865 41.8047 111.015 42.2887 110.032 42.626C109.049 42.9633 108.015 43.132 106.93 43.132C105.39 43.132 104.004 42.7947 102.772 42.12C101.54 41.4453 100.572 40.514 99.868 39.326C99.164 38.1233 98.812 36.7813 98.812 35.3C98.812 33.8187 99.164 32.484 99.868 31.296C100.572 30.0933 101.54 29.1547 102.772 28.48C104.004 27.8053 105.397 27.468 106.952 27.468C108.125 27.468 109.203 27.6587 110.186 28.04C111.169 28.4067 111.997 28.9567 112.672 29.69L111.66 30.724C110.443 29.5213 108.895 28.92 107.018 28.92C105.771 28.92 104.642 29.1987 103.63 29.756C102.633 30.2987 101.848 31.0613 101.276 32.044C100.704 33.012 100.418 34.0973 100.418 35.3C100.418 36.5027 100.704 37.588 101.276 38.556C101.848 39.524 102.633 40.2867 103.63 40.844C104.627 41.4013 105.749 41.68 106.996 41.68C108.58 41.68 109.922 41.284 111.022 40.492V35.3ZM123.396 43.132C121.401 43.132 119.846 42.56 118.732 41.416C117.617 40.272 117.06 38.6073 117.06 36.422V27.6H118.688V36.356C118.688 38.1453 119.091 39.48 119.898 40.36C120.704 41.24 121.87 41.68 123.396 41.68C124.936 41.68 126.109 41.24 126.916 40.36C127.722 39.48 128.126 38.1453 128.126 36.356V27.6H129.71V36.422C129.71 38.6073 129.152 40.272 128.038 41.416C126.938 42.56 125.39 43.132 123.396 43.132ZM143.951 38.886H135.371L133.523 43H131.829L138.869 27.6H140.475L147.515 43H145.799L143.951 38.886ZM143.357 37.566L139.661 29.294L135.965 37.566H143.357ZM160.694 35.3H162.256V41.174C161.537 41.8047 160.687 42.2887 159.704 42.626C158.721 42.9633 157.687 43.132 156.602 43.132C155.062 43.132 153.676 42.7947 152.444 42.12C151.212 41.4453 150.244 40.514 149.54 39.326C148.836 38.1233 148.484 36.7813 148.484 35.3C148.484 33.8187 148.836 32.484 149.54 31.296C150.244 30.0933 151.212 29.1547 152.444 28.48C153.676 27.8053 155.069 27.468 156.624 27.468C157.797 27.468 158.875 27.6587 159.858 28.04C160.841 28.4067 161.669 28.9567 162.344 29.69L161.332 30.724C160.115 29.5213 158.567 28.92 156.69 28.92C155.443 28.92 154.314 29.1987 153.302 29.756C152.305 30.2987 151.52 31.0613 150.948 32.044C150.376 33.012 150.09 34.0973 150.09 35.3C150.09 36.5027 150.376 37.588 150.948 38.556C151.52 39.524 152.305 40.2867 153.302 40.844C154.299 41.4013 155.421 41.68 156.668 41.68C158.252 41.68 159.594 41.284 160.694 40.492V35.3ZM177.753 41.592V43H166.863V27.6H177.423V29.008H168.491V34.486H176.455V35.872H168.491V41.592H177.753ZM200.78 27.6V43H197.216V36.686H190.22V43H186.656V27.6H190.22V33.672H197.216V27.6H200.78ZM211.266 43.264C209.066 43.264 207.35 42.6553 206.118 41.438C204.9 40.2207 204.292 38.4827 204.292 36.224V27.6H207.856V36.092C207.856 38.8493 209 40.228 211.288 40.228C212.402 40.228 213.253 39.898 213.84 39.238C214.426 38.5633 214.72 37.5147 214.72 36.092V27.6H218.24V36.224C218.24 38.4827 217.624 40.2207 216.392 41.438C215.174 42.6553 213.466 43.264 211.266 43.264ZM233.07 34.992C233.95 35.2707 234.639 35.74 235.138 36.4C235.636 37.0453 235.886 37.8447 235.886 38.798C235.886 40.1473 235.358 41.1887 234.302 41.922C233.26 42.6407 231.735 43 229.726 43H221.762V27.6H229.286C231.163 27.6 232.6 27.9593 233.598 28.678C234.61 29.3967 235.116 30.372 235.116 31.604C235.116 32.352 234.932 33.0193 234.566 33.606C234.214 34.1927 233.715 34.6547 233.07 34.992ZM225.304 30.284V33.914H228.846C229.726 33.914 230.393 33.76 230.848 33.452C231.302 33.144 231.53 32.6893 231.53 32.088C231.53 31.4867 231.302 31.0393 230.848 30.746C230.393 30.438 229.726 30.284 228.846 30.284H225.304ZM229.462 40.316C230.4 40.316 231.104 40.162 231.574 39.854C232.058 39.546 232.3 39.0693 232.3 38.424C232.3 37.148 231.354 36.51 229.462 36.51H225.304V40.316H229.462Z" fill="black"/>
<defs>
<clipPath id="clip0">
<rect x="243" width="41" height="42" fill="white"/>
</clipPath>
</defs>
</svg>
