<?xml version="1.0"?>
<svg xmlns="http://www.w3.org/2000/svg" xmlns:xlink="http://www.w3.org/1999/xlink" version="1.1" id="Capa_1" x="0px" y="0px" viewBox="0 0 512 512" style="enable-background:new 0 0 512 512;" xml:space="preserve" width="512px" height="512px" class=""><g><g>
	<path style="fill:#33FDB2" d="M467,61H165c-24.901,0-45,20.099-45,45s20.099,45,45,45h302c24.901,0,45-20.099,45-45   S491.901,61,467,61z" data-original="#B758CE" class="" data-old_color="#B758CE"/>
	<path style="fill:#33FDB2" d="M467,211H165c-24.901,0-45,20.099-45,45s20.099,45,45,45h302c24.901,0,45-20.099,45-45   S491.901,211,467,211z" data-original="#B758CE" class="" data-old_color="#B758CE"/>
	<path style="fill:#33FDB2" d="M467,361H165c-24.901,0-45,20.099-45,45s20.099,45,45,45h302c24.901,0,45-20.099,45-45   S491.901,361,467,361z" data-original="#B758CE" class="" data-old_color="#B758CE"/>
	<path style="fill:#33FDB2" d="M45,61C20.099,61,0,81.099,0,106s20.099,45,45,45s45-20.099,45-45S69.901,61,45,61z" data-original="#B758CE" class="" data-old_color="#B758CE"/>
	<path style="fill:#33FDB2" d="M45,211c-24.901,0-45,20.099-45,45s20.099,45,45,45s45-20.099,45-45S69.901,211,45,211z" data-original="#B758CE" class="" data-old_color="#B758CE"/>
	<path style="fill:#33FDB2" d="M45,361c-24.901,0-45,20.099-45,45s20.099,45,45,45s45-20.099,45-45S69.901,361,45,361z" data-original="#B758CE" class="" data-old_color="#B758CE"/>
</g><g>
	<path style="fill:#2CDD9B" d="M0,406h90c0,24.901-20.099,45-45,45S0,430.901,0,406z" data-original="#AA3DC8" class="active-path" data-old_color="#AA3DC8"/>
	<path style="fill:#2CDD9B" d="M512,406c0,24.901-20.099,45-45,45H165c-24.901,0-45-20.099-45-45H512z" data-original="#AA3DC8" class="active-path" data-old_color="#AA3DC8"/>
	<path style="fill:#2CDD9B" d="M0,256h90c0,24.901-20.099,45-45,45S0,280.901,0,256z" data-original="#AA3DC8" class="active-path" data-old_color="#AA3DC8"/>
	<path style="fill:#2CDD9B" d="M512,256c0,24.901-20.099,45-45,45H165c-24.901,0-45-20.099-45-45H512z" data-original="#AA3DC8" class="active-path" data-old_color="#AA3DC8"/>
	<path style="fill:#2CDD9B" d="M0,106h90c0,24.901-20.099,45-45,45S0,130.901,0,106z" data-original="#AA3DC8" class="active-path" data-old_color="#AA3DC8"/>
	<path style="fill:#2CDD9B" d="M512,106c0,24.901-20.099,45-45,45H165c-24.901,0-45-20.099-45-45H512z" data-original="#AA3DC8" class="active-path" data-old_color="#AA3DC8"/>
</g></g> </svg>
