<svg xmlns="http://www.w3.org/2000/svg" viewBox="0 0 88.64 58.84"><defs><style>.cls-1{fill:#2cdd9b;fill-opacity:0.4;}</style></defs><title>Asset 1</title><g id="Layer_2" data-name="Layer 2"><g id="Layer_1-2" data-name="Layer 1"><path class="cls-1" d="M46.8,34.69a12.22,12.22,0,0,1-4.2-4.8A12.64,12.64,0,0,1,41,23.44a15,15,0,0,1,4.5-11.25,15.35,15.35,0,0,1,11.1-4.35,13.7,13.7,0,0,1,9.9,3.75,13.19,13.19,0,0,1,3.75,9.75,17.22,17.22,0,0,1-1,6,53.39,53.39,0,0,1-4.05,7.35l-15,24.15H35.4Zm-35.4,0a12.22,12.22,0,0,1-4.2-4.8,12.64,12.64,0,0,1-1.65-6.45,15,15,0,0,1,4.5-11.25,15.35,15.35,0,0,1,11.1-4.35,13.7,13.7,0,0,1,9.9,3.75,13.19,13.19,0,0,1,3.75,9.75,17.22,17.22,0,0,1-1,6,53.39,53.39,0,0,1-4.05,7.35l-15,24.15H0Z"/><path d="M72.77,18.44a8.12,8.12,0,0,1-2.7-3.29,8.35,8.35,0,0,1-1-4.33,10,10,0,0,1,3.24-7.4A10.26,10.26,0,0,1,79.83.75a9.18,9.18,0,0,1,6.52,2.71A8.83,8.83,0,0,1,88.64,10a11.54,11.54,0,0,1-.83,4A35.11,35.11,0,0,1,85,18.82L74.46,34.6l-9.8-.31Zm-23.59-.75a8,8,0,0,1-2.7-3.28,8.49,8.49,0,0,1-1-4.34,10,10,0,0,1,3.23-7.4A10.21,10.21,0,0,1,56.24,0a9.13,9.13,0,0,1,6.52,2.7,8.83,8.83,0,0,1,2.29,6.58,11.37,11.37,0,0,1-.83,4,35.72,35.72,0,0,1-2.85,4.81L50.87,33.85l-9.8-.31Z"/></g></g></svg>