<svg xmlns="http://www.w3.org/2000/svg" viewBox="0 0 88.15 54.1"><defs><style>.cls-1{fill:#2cdd9b;fill-opacity:0.4;}</style></defs><title>Asset 1</title><g id="Layer_2" data-name="Layer 2"><g id="Layer_1-2" data-name="Layer 1"><path class="cls-1" d="M41.35,24.15a12.22,12.22,0,0,1,4.2,4.8A12.64,12.64,0,0,1,47.2,35.4a15,15,0,0,1-4.5,11.25A15.35,15.35,0,0,1,31.6,51a13.7,13.7,0,0,1-9.9-3.75A13.19,13.19,0,0,1,18,37.5a17.22,17.22,0,0,1,1.05-6,53.39,53.39,0,0,1,4.05-7.35L38.05,0h14.7Zm35.4,0A12.22,12.22,0,0,1,81,29,12.64,12.64,0,0,1,82.6,35.4a15,15,0,0,1-4.5,11.25A15.35,15.35,0,0,1,67,51a13.7,13.7,0,0,1-9.9-3.75,13.19,13.19,0,0,1-3.75-9.75,17.22,17.22,0,0,1,1-6,53.39,53.39,0,0,1,4.05-7.35L73.45,0h14.7Z"/><path d="M15.6,36.2a8.2,8.2,0,0,1,2.8,3.2,8.47,8.47,0,0,1,1.1,4.3,10,10,0,0,1-3,7.5,10.26,10.26,0,0,1-7.4,2.9,9.11,9.11,0,0,1-6.6-2.5A8.78,8.78,0,0,1,0,45.1a11.41,11.41,0,0,1,.7-4,34.7,34.7,0,0,1,2.7-4.9l10-16.1h9.8Zm23.6,0A8.2,8.2,0,0,1,42,39.4a8.47,8.47,0,0,1,1.1,4.3,10,10,0,0,1-3,7.5,10.26,10.26,0,0,1-7.4,2.9,9.11,9.11,0,0,1-6.6-2.5,8.78,8.78,0,0,1-2.5-6.5,11.41,11.41,0,0,1,.7-4A34.7,34.7,0,0,1,27,36.2L37,20.1h9.8Z"/></g></g></svg>