<svg width="30" height="31" viewBox="0 0 30 31" fill="none" xmlns="http://www.w3.org/2000/svg">
<path d="M15.336 29.6919C15.5465 29.8696 15.7896 30.0034 16.0513 30.0858C16.3129 30.1682 16.5881 30.1975 16.8609 30.172C17.1338 30.1465 17.399 30.0668 17.6414 29.9373C17.8838 29.8079 18.0986 29.6312 18.2735 29.4176L28.6901 16.7573C28.9966 16.3797 29.1641 15.9061 29.1641 15.4174C29.1641 14.9287 28.9966 14.4551 28.6901 14.0775L18.6277 1.41721C18.4316 1.1724 18.1838 0.975194 17.9026 0.840091C17.6214 0.704987 17.3139 0.635415 17.0027 0.636487C16.6084 0.635125 16.2219 0.74709 15.888 0.959372C15.5541 1.17165 15.2865 1.47554 15.1163 1.83572C14.9462 2.1959 14.8804 2.5976 14.9266 2.99413C14.9729 3.39067 15.1293 3.76578 15.3777 4.07587L24.3985 15.4068L15.0652 26.7378C14.7174 27.1672 14.5508 27.7182 14.6015 28.2712C14.6522 28.8242 14.9161 29.3347 15.336 29.6919Z" fill="#2CDD9B"/>
<path d="M9.81513 15.4069L0.481808 26.7378C0.128186 27.1687 -0.0419414 27.7243 0.00885026 28.2822C0.059641 28.8402 0.327192 29.3548 0.752643 29.713C1.17809 30.0711 1.72659 30.2434 2.27748 30.192C2.82837 30.1406 3.33652 29.8696 3.69014 29.4387L14.1068 16.7784C14.4132 16.4009 14.5807 15.9273 14.5807 15.4386C14.5807 14.9498 14.4132 14.4762 14.1068 14.0987L4.04431 1.43844C3.84823 1.19363 3.60048 0.996436 3.31927 0.861333C3.03807 0.72623 2.73055 0.656657 2.41931 0.657729C2.02507 0.656367 1.63854 0.768328 1.30463 0.980609C0.97072 1.19289 0.703129 1.49677 0.532955 1.85695C0.36278 2.21713 0.297006 2.61883 0.343269 3.01536C0.389532 3.4119 0.545935 3.787 0.794309 4.09709L9.81513 15.4069Z" fill="#2CDD9B"/>
</svg>
