<svg width="1441" height="538" viewBox="0 0 1441 538" fill="none" xmlns="http://www.w3.org/2000/svg">
<path d="M440 536C131.2 536 18 346.667 0 252V536H440Z" fill="#00CCFF"/>
<path d="M1000.26 -5.45504e-05C1309.06 0.281925 1422.09 189.719 1440 284.402L1440.26 0.40173L1000.26 -5.45504e-05Z" fill="#00CCFF"/>
<path d="M99.5 102.5C99.5 157.452 54.9523 202 0 202L2.67029e-05 108L0 3C54.9523 3 99.5 47.5477 99.5 102.5Z" fill="#2CDD9B"/>
<path d="M1340 438.5C1340 383.548 1384.55 339 1439.5 339L1439.5 433L1439.5 538C1384.55 538 1340 493.452 1340 438.5Z" fill="#2CDD9B"/>
</svg>
